<?xml version="1.0" encoding="UTF-8" standalone="no"?>
<svg
   xmlns:dc="http://purl.org/dc/elements/1.1/"
   xmlns:cc="http://creativecommons.org/ns#"
   xmlns:rdf="http://www.w3.org/1999/02/22-rdf-syntax-ns#"
   xmlns:svg="http://www.w3.org/2000/svg"
   xmlns="http://www.w3.org/2000/svg"
   viewBox="0 0 793.75 293.875"
   height="293.875"
   width="793.75"
   xml:space="preserve"
   version="1.1"
   id="svg2"><metadata
     id="metadata8"><rdf:RDF><cc:Work
         rdf:about=""><dc:format>image/svg+xml</dc:format><dc:type
           rdf:resource="http://purl.org/dc/dcmitype/StillImage" /></cc:Work></rdf:RDF></metadata><defs
     id="defs6"><clipPath
       id="clipPath18"
       clipPathUnits="userSpaceOnUse"><path
         id="path20"
         d="m 4237.6,871.309 c -136.15,0 -197.7,74.832 -197.7,138.111 -0.1,91.11 91.92,116.91 249.48,122.48 96.42,4.49 171.36,4.57 228.2,4.63 -7.23,-159.792 45.41,-265.221 -279.98,-265.221 z m 70.47,692.371 c -100.43,-0.15 -220.45,-18.97 -298.21,-79.58 -61.03,-47.57 62.41,-106.94 172.37,-55.42 27.07,12.68 65.33,23.69 104.65,23.84 169.12,1.11 225.05,-70.66 230.7,-189.61 -72.79,0 -152.19,-0.23 -251.94,-3.65 -268.92,-6.66 -401.68,-88.4 -401.52,-254.45 0.26,-145.669 140.78,-251.388 336.9,-251.388 217.1,0 431.6,41.449 431.6,41.449 61.11,61.109 51.99,498.339 51.99,498.339 -0.25,192.91 -165.45,270.7 -376.54,270.47 z M 1156.13,871.309 c -136.15,0 -197.712,74.832 -197.712,138.111 -0.098,91.11 91.922,116.91 249.492,122.48 96.43,4.49 171.36,4.57 228.2,4.63 -7.23,-159.792 45.42,-265.221 -279.98,-265.221 z m 70.48,692.371 c -100.45,-0.15 -220.47,-18.97 -298.231,-79.58 -61.02,-47.57 62.418,-106.94 172.371,-55.42 27.07,12.68 65.34,23.69 104.67,23.84 169.12,1.11 225.04,-70.66 230.69,-189.61 -72.8,0 -152.18,-0.23 -251.94,-3.65 -268.936,-6.66 -401.69,-88.4 -401.533,-254.45 0.254,-145.669 140.781,-251.388 336.903,-251.388 217.12,0 431.62,41.449 431.62,41.449 61.1,61.109 51.99,498.339 51.99,498.339 -0.26,192.91 -165.46,270.7 -376.54,270.47 z m 2183.41,-356.72 -236.17,-0.32 0,221.9 243.38,0 c 91.99,0.06 178.61,-9.33 178.82,-102.61 0.06,-93.16 -84.25,-118.92 -186.03,-118.97 z m 362.93,115.95 c -0.18,153.31 -127.83,232.36 -298.16,232.18 l -474.54,0 0,-773.43 173.6,0 0,305.04 210.21,0.12 c 157.05,-1.99 212.87,-36.15 212.87,-182.742 l 0,-122.418 176.02,0 0,141.469 c 0,112.301 -22.6,181.641 -117.4,210.041 72.07,42.2 117.65,109.88 117.4,189.74 z m 1409.32,240.77 c -220.75,-0.23 -385.38,-109.96 -384.98,-333.92 l 0,-448.1 162.94,0 0,448.1 c -0.07,125.37 76.41,202.89 222.25,203.07 145.74,0.23 223.2,-77.6 223.5,-203.07 l 0,-448.1 162.95,0 0,448.1 c -0.28,224 -165.9,334.45 -386.66,333.92 z m -3055.55,-135.14 168.01,0 c 126.97,0 127.36,-0.06 127.36,-123.75 0,-22.48 0,-523.13 0,-523.13 l 173.55,0 c 0,0 0,500.22 0,523.13 0,123.69 -0.33,123.75 124.44,123.75 l 169.71,0 0,126.55 -763.07,0 0,-126.55 z m -255.61,-347.91 c 0,61.68 0,474.46 0,474.46 l -173.62,0 c 0,0 0,-524.93 0,-599.93 0,-174 173.62,-173.5 173.62,-173.5 l 425.94,0 0,126.449 -253.32,0 c -172.62,0 -172.62,0.172 -172.62,172.521" /></clipPath><linearGradient
       id="linearGradient22"
       spreadMethod="pad"
       gradientTransform="matrix(-4786.29,4.184e-4,4.184e-4,4786.29,5568.93,1158.55)"
       gradientUnits="userSpaceOnUse"
       y2="0"
       x2="1"
       y1="0"
       x1="0"><stop
         id="stop24"
         offset="0"
         style="stop-opacity:1;stop-color:#41baee" /><stop
         id="stop26"
         offset="0.45"
         style="stop-opacity:1;stop-color:#0e88d3" /><stop
         id="stop28"
         offset="1"
         style="stop-opacity:1;stop-color:#25388d" /></linearGradient></defs><g
     transform="matrix(1.25,0,0,-1.25,0,293.875)"
     id="g10"><g
       transform="scale(0.1,0.1)"
       id="g12"><g
         id="g14"><g
           clip-path="url(#clipPath18)"
           id="g16"><path
             id="path30"
             style="fill:url(#linearGradient22);fill-opacity:1;fill-rule:nonzero;stroke:none"
             d="m 4237.6,871.309 c -136.15,0 -197.7,74.832 -197.7,138.111 -0.1,91.11 91.92,116.91 249.48,122.48 96.42,4.49 171.36,4.57 228.2,4.63 -7.23,-159.792 45.41,-265.221 -279.98,-265.221 z m 70.47,692.371 c -100.43,-0.15 -220.45,-18.97 -298.21,-79.58 -61.03,-47.57 62.41,-106.94 172.37,-55.42 27.07,12.68 65.33,23.69 104.65,23.84 169.12,1.11 225.05,-70.66 230.7,-189.61 -72.79,0 -152.19,-0.23 -251.94,-3.65 -268.92,-6.66 -401.68,-88.4 -401.52,-254.45 0.26,-145.669 140.78,-251.388 336.9,-251.388 217.1,0 431.6,41.449 431.6,41.449 61.11,61.109 51.99,498.339 51.99,498.339 -0.25,192.91 -165.45,270.7 -376.54,270.47 z M 1156.13,871.309 c -136.15,0 -197.712,74.832 -197.712,138.111 -0.098,91.11 91.922,116.91 249.492,122.48 96.43,4.49 171.36,4.57 228.2,4.63 -7.23,-159.792 45.42,-265.221 -279.98,-265.221 z m 70.48,692.371 c -100.45,-0.15 -220.47,-18.97 -298.231,-79.58 -61.02,-47.57 62.418,-106.94 172.371,-55.42 27.07,12.68 65.34,23.69 104.67,23.84 169.12,1.11 225.04,-70.66 230.69,-189.61 -72.8,0 -152.18,-0.23 -251.94,-3.65 -268.936,-6.66 -401.69,-88.4 -401.533,-254.45 0.254,-145.669 140.781,-251.388 336.903,-251.388 217.12,0 431.62,41.449 431.62,41.449 61.1,61.109 51.99,498.339 51.99,498.339 -0.26,192.91 -165.46,270.7 -376.54,270.47 z m 2183.41,-356.72 -236.17,-0.32 0,221.9 243.38,0 c 91.99,0.06 178.61,-9.33 178.82,-102.61 0.06,-93.16 -84.25,-118.92 -186.03,-118.97 z m 362.93,115.95 c -0.18,153.31 -127.83,232.36 -298.16,232.18 l -474.54,0 0,-773.43 173.6,0 0,305.04 210.21,0.12 c 157.05,-1.99 212.87,-36.15 212.87,-182.742 l 0,-122.418 176.02,0 0,141.469 c 0,112.301 -22.6,181.641 -117.4,210.041 72.07,42.2 117.65,109.88 117.4,189.74 z m 1409.32,240.77 c -220.75,-0.23 -385.38,-109.96 -384.98,-333.92 l 0,-448.1 162.94,0 0,448.1 c -0.07,125.37 76.41,202.89 222.25,203.07 145.74,0.23 223.2,-77.6 223.5,-203.07 l 0,-448.1 162.95,0 0,448.1 c -0.28,224 -165.9,334.45 -386.66,333.92 z m -3055.55,-135.14 168.01,0 c 126.97,0 127.36,-0.06 127.36,-123.75 0,-22.48 0,-523.13 0,-523.13 l 173.55,0 c 0,0 0,500.22 0,523.13 0,123.69 -0.33,123.75 124.44,123.75 l 169.71,0 0,126.55 -763.07,0 0,-126.55 z m -255.61,-347.91 c 0,61.68 0,474.46 0,474.46 l -173.62,0 c 0,0 0,-524.93 0,-599.93 0,-174 173.62,-173.5 173.62,-173.5 l 425.94,0 0,126.449 -253.32,0 c -172.62,0 -172.62,0.172 -172.62,172.521" /></g></g></g></g></svg>