<?xml version="1.0" encoding="UTF-8" ?>
<!DOCTYPE svg PUBLIC "-//W3C//DTD SVG 1.1//EN" "http://www.w3.org/Graphics/SVG/1.1/DTD/svg11.dtd">
<svg width="600pt" height="142pt" viewBox="0 0 600 142" version="1.1" xmlns="http://www.w3.org/2000/svg">
<path fill="#ffffff" d=" M 0.00 0.00 L 600.00 0.00 L 600.00 142.00 L 0.00 142.00 L 0.00 0.00 Z" />
<path fill="#060606" d=" M 30.01 17.39 C 32.55 17.40 35.08 17.40 37.61 17.37 C 37.63 30.23 37.55 43.08 37.66 55.93 C 43.42 47.96 52.93 42.33 62.94 42.79 C 71.11 42.59 79.31 45.96 84.86 51.97 C 89.96 57.46 92.77 64.67 93.93 71.99 C 95.43 84.05 94.12 97.37 86.20 107.13 C 76.73 119.05 57.84 121.12 45.55 112.47 C 42.41 110.45 39.84 107.70 37.60 104.74 C 37.60 108.49 37.61 112.24 37.60 115.99 C 35.07 116.01 32.53 116.00 30.00 116.01 C 30.00 83.14 29.99 50.26 30.01 17.39 Z" />
<path fill="#e8554e" d=" M 312.40 17.44 C 315.90 15.86 320.36 16.16 323.29 18.78 C 327.58 22.32 327.61 29.78 323.40 33.38 C 319.59 36.83 312.82 36.59 309.54 32.52 C 305.55 28.10 306.86 19.97 312.40 17.44 Z" />
<path fill="#060606" d=" M 134.17 43.22 C 142.19 42.25 150.98 42.52 157.99 47.02 C 163.83 50.50 167.04 57.36 167.18 64.02 C 167.16 81.34 167.18 98.67 167.17 116.00 C 164.65 116.01 162.14 116.01 159.63 116.01 C 159.64 113.26 159.64 110.51 159.59 107.77 C 153.53 114.18 144.85 117.94 136.00 117.63 C 126.57 118.17 116.55 113.30 112.38 104.60 C 107.35 94.65 110.20 80.91 119.90 74.87 C 132.18 67.08 149.88 69.78 159.65 80.47 C 159.13 72.92 161.12 64.70 157.29 57.75 C 152.93 50.69 143.77 48.69 136.04 49.82 C 128.74 50.54 122.39 54.86 117.71 60.30 C 116.27 58.41 114.81 56.53 113.33 54.68 C 118.81 48.74 126.08 44.34 134.17 43.22 Z" />
<path fill="#060606" d=" M 198.64 56.56 C 204.56 49.02 213.09 42.90 223.00 42.75 C 223.00 45.62 223.00 48.49 223.01 51.36 C 215.02 50.06 207.26 54.26 201.86 59.85 C 200.27 61.53 198.32 63.47 198.59 65.99 C 198.63 82.66 198.59 99.32 198.61 115.99 C 196.07 116.01 193.53 116.00 191.00 116.00 C 190.99 92.21 191.02 68.42 190.98 44.63 C 193.52 44.64 196.07 44.63 198.61 44.59 C 198.63 48.58 198.56 52.57 198.64 56.56 Z" />
<path fill="#060606" d=" M 243.55 53.47 C 256.24 38.93 282.71 38.68 294.15 54.90 C 292.33 56.50 290.53 58.12 288.72 59.72 C 280.75 47.47 261.64 46.56 251.48 56.46 C 244.98 62.41 242.31 71.46 242.20 80.05 C 242.24 88.41 244.74 97.16 250.72 103.25 C 257.81 110.65 269.60 112.86 278.98 108.82 C 282.94 107.06 286.20 104.04 288.77 100.59 C 290.50 102.30 292.33 103.91 294.22 105.44 C 288.78 112.66 280.29 117.75 271.09 117.63 C 259.59 118.68 247.64 113.52 241.10 103.90 C 230.87 89.07 231.50 67.10 243.55 53.47 Z" />
<path fill="#060606" d=" M 354.63 55.04 C 361.48 47.94 370.89 42.52 381.00 42.79 C 386.90 42.64 393.25 44.15 397.48 48.51 C 401.43 52.59 402.68 58.48 402.99 63.97 C 403.02 81.31 402.98 98.66 403.00 116.00 C 400.47 116.01 397.93 116.01 395.40 115.99 C 395.39 100.35 395.40 84.70 395.40 69.05 C 395.12 63.86 394.90 57.96 390.98 54.05 C 387.67 50.53 382.61 49.88 378.03 49.64 C 368.85 50.02 359.98 54.85 354.57 62.26 C 354.65 80.17 354.57 98.08 354.61 115.99 C 352.07 116.01 349.54 116.01 347.00 115.99 C 346.96 92.22 347.08 68.46 346.94 44.69 C 349.49 44.64 352.05 44.63 354.60 44.59 C 354.60 48.07 354.59 51.56 354.63 55.04 Z" />
<path fill="#060606" d=" M 434.63 55.04 C 441.48 47.94 450.89 42.52 461.00 42.79 C 466.89 42.64 473.22 44.14 477.45 48.48 C 481.42 52.55 482.67 58.44 482.99 63.93 C 483.02 81.29 482.97 98.64 483.00 116.00 C 480.47 116.01 477.93 116.00 475.40 115.99 C 475.39 100.35 475.40 84.70 475.40 69.05 C 475.12 63.86 474.89 57.96 470.98 54.04 C 467.66 50.52 462.61 49.88 458.03 49.64 C 448.85 50.02 439.99 54.85 434.57 62.25 C 434.65 80.16 434.57 98.08 434.61 115.99 C 432.07 116.01 429.54 116.01 427.00 115.99 C 426.98 92.21 427.04 68.43 426.98 44.64 C 429.51 44.65 432.06 44.64 434.60 44.59 C 434.60 48.07 434.59 51.56 434.63 55.04 Z" />
<path fill="#060606" d=" M 531.36 43.13 C 539.56 42.06 548.30 43.11 555.41 47.59 C 564.58 53.18 570.11 63.48 571.37 73.97 C 572.13 82.33 571.63 91.08 567.80 98.70 C 563.48 108.35 554.23 115.61 543.77 117.26 C 535.86 118.30 527.42 117.66 520.43 113.52 C 512.20 108.91 506.59 100.46 504.38 91.41 C 501.37 79.57 503.09 66.28 510.20 56.19 C 515.11 49.20 522.92 44.45 531.36 43.13 Z" />
<path fill="#e8554e" d=" M 309.05 44.54 C 314.17 44.59 319.30 44.55 324.42 44.57 C 324.44 68.37 324.39 92.17 324.45 115.96 C 319.31 116.04 314.17 115.92 309.04 116.05 C 308.96 92.21 308.94 68.38 309.05 44.54 Z" />
<path fill="#ffffff" d=" M 37.60 62.86 C 42.64 55.40 51.09 50.36 60.10 49.72 C 66.49 49.51 73.22 51.54 77.66 56.33 C 85.10 63.73 86.96 74.99 85.93 85.05 C 85.20 94.44 80.57 104.37 71.68 108.53 C 60.04 114.04 45.32 108.90 38.13 98.63 C 37.21 97.26 37.73 95.54 37.59 94.01 C 37.63 83.62 37.60 73.24 37.60 62.86 Z" />
<path fill="#ffffff" d=" M 530.50 50.63 C 539.48 48.08 549.81 50.87 555.87 58.07 C 564.39 68.19 565.63 83.27 560.40 95.19 C 557.30 102.37 551.02 108.41 543.24 110.08 C 534.20 112.43 524.00 109.09 518.27 101.67 C 508.76 89.42 508.83 70.60 518.53 58.47 C 521.70 54.85 525.78 51.85 530.50 50.63 Z" />
<path fill="#ffffff" d=" M 121.31 84.24 C 124.40 79.65 129.83 77.21 135.19 76.58 C 144.29 75.62 153.86 79.18 159.62 86.42 C 159.66 91.53 159.60 96.65 159.67 101.77 C 154.58 108.32 146.21 111.79 138.02 111.67 C 131.40 111.85 124.32 109.01 120.77 103.20 C 117.19 97.49 117.40 89.73 121.31 84.24 Z" />
</svg>
