<?xml version="1.0" encoding="UTF-8" standalone="no"?>
<svg
   xmlns:dc="http://purl.org/dc/elements/1.1/"
   xmlns:cc="http://creativecommons.org/ns#"
   xmlns:rdf="http://www.w3.org/1999/02/22-rdf-syntax-ns#"
   xmlns:svg="http://www.w3.org/2000/svg"
   xmlns="http://www.w3.org/2000/svg"
   viewBox="0 0 1488.1875 1052.3625"
   height="1052.3625"
   width="1488.1875"
   xml:space="preserve"
   version="1.1"
   id="svg2"><metadata
     id="metadata8"><rdf:RDF><cc:Work
         rdf:about=""><dc:format>image/svg+xml</dc:format><dc:type
           rdf:resource="http://purl.org/dc/dcmitype/StillImage" /></cc:Work></rdf:RDF></metadata><defs
     id="defs6"><clipPath
       id="clipPath18"
       clipPathUnits="userSpaceOnUse"><path
         id="path20"
         d="m 344.452,340.557 574.954,0 0,181.148 -574.954,0 0,-181.148 z" /></clipPath></defs><g
     transform="matrix(1.25,0,0,-1.25,0,1052.3625)"
     id="g10"><path
       id="path12"
       style="fill:#ffffff;fill-opacity:0;fill-rule:nonzero;stroke:none"
       d="m 344.451,340.558 574.955,0 0,181.148 -574.955,0 0,-181.148 z" /><g
       id="g14"><g
         clip-path="url(#clipPath18)"
         id="g16"><g
           transform="translate(494.6963,438.5049)"
           id="g22"><path
             id="path24"
             style="fill:#e53d42;fill-opacity:1;fill-rule:nonzero;stroke:none"
             d="m 0,0 c 5.536,0.007 10.606,1.987 14.551,5.266 l 0,-13.725 c -4.558,-2.199 -9.666,-3.437 -15.069,-3.442 -19.173,-0.026 -34.738,15.446 -34.765,34.556 -0.013,10.222 4.424,19.414 11.488,25.761 l 38.346,0 0,-8.277 C 10.594,43.434 5.499,45.414 -0.062,45.408 -12.641,45.388 -22.828,35.212 -22.811,22.673 -22.792,10.136 -12.582,-0.018 0,0 m -37.921,22.651 c -0.012,9.995 3.933,19.068 10.352,25.765 l -37.403,0 c -3.204,-7.975 -4.978,-16.674 -4.964,-25.789 0.05,-38.198 31.16,-69.121 69.489,-69.071 5.152,0.008 10.165,0.592 14.998,1.659 l 0,33.439 C 9.942,-13.38 4.85,-14.524 -0.511,-14.531 -21.145,-14.557 -37.893,2.091 -37.921,22.651 m -34.034,-0.026 c -0.014,9.097 1.708,17.787 4.815,25.791 l -28.531,0 0,-109.859 110.222,0 0,14.594 c -4.835,-1.039 -9.851,-1.6 -14.998,-1.606 -39.442,-0.053 -71.456,31.768 -71.508,71.08 m 86.506,9.867 0,-19.579 C 11.395,8.252 6.056,5.189 -0.005,5.18 c -9.713,-0.011 -17.594,7.823 -17.607,17.5 -0.015,9.678 7.846,17.534 17.554,17.549 6.083,0.007 11.444,-3.062 14.609,-7.737 m -2.527,-9.788 c 0,6.637 -5.398,12.015 -12.055,12.015 -6.658,0 -12.055,-5.378 -12.055,-12.015 0,-6.637 5.397,-12.016 12.055,-12.016 6.657,0 12.055,5.379 12.055,12.016" /></g><g
           transform="translate(767.8848,377.7568)"
           id="g26"><path
             id="path28"
             style="fill:#2d2c2e;fill-opacity:1;fill-rule:nonzero;stroke:none"
             d="m 0,0 -2.081,6.056 -11.949,0 -2.082,-6.056 -4.89,0 11.096,30.173 3.701,0 L 4.893,0 0,0 Z m -7.948,23.351 -4.718,-13.393 9.309,0 -4.591,13.393 z M -29.506,0 l -13.991,21.229 0,-21.229 -4.591,0 0,30.173 4.213,0 13.986,-21.188 0,21.188 4.596,0 0,-30.173 -4.213,0 z m -25.382,15.088 c 0,-5.766 0.082,-9.155 -2.895,-12.124 -2.082,-2.077 -4.76,-3.219 -7.988,-3.219 -3.236,0 -5.872,1.142 -7.958,3.219 -2.973,2.969 -2.931,6.358 -2.931,12.124 0,5.761 -0.042,9.152 2.931,12.118 2.086,2.077 4.722,3.222 7.958,3.222 3.228,0 5.906,-1.145 7.988,-3.222 2.977,-2.966 2.895,-6.357 2.895,-12.118 m -4.59,0 c 0,6.058 -0.259,7.752 -1.792,9.361 -1.06,1.144 -2.675,1.866 -4.501,1.866 -1.833,0 -3.447,-0.722 -4.512,-1.866 -1.528,-1.609 -1.782,-3.303 -1.782,-9.361 0,-6.061 0.254,-7.76 1.782,-9.368 1.065,-1.143 2.679,-1.865 4.512,-1.865 1.826,0 3.441,0.722 4.501,1.865 1.533,1.608 1.792,3.307 1.792,9.368 M -98.855,0 l 0,30.173 4.592,0 0,-26.063 14.583,0 0,-4.11 -19.175,0 z m -25.64,0 0,30.173 19.348,0 0,-4.111 -14.755,0 0,-8.816 12.585,0 0,-4.068 -12.585,0 0,-9.068 14.755,0 0,-4.11 -19.348,0 z m -6.12,9.027 c -1.021,-6.019 -5.317,-9.282 -10.801,-9.282 -3.188,0 -5.866,1.142 -7.95,3.219 -2.978,2.969 -2.934,6.358 -2.934,12.124 0,5.761 -0.044,9.152 2.934,12.118 2.084,2.077 4.762,3.222 7.95,3.222 5.612,0 9.736,-3.222 10.801,-9.282 l -4.679,0 c -0.722,3.052 -2.72,5.169 -6.122,5.169 -1.83,0 -3.401,-0.675 -4.467,-1.822 -1.487,-1.609 -1.824,-3.347 -1.824,-9.405 0,-6.061 0.337,-7.797 1.824,-9.412 1.066,-1.143 2.637,-1.821 4.467,-1.821 3.402,0 5.442,2.116 6.167,5.172 l 4.634,0 z M -162.335,0 l -6.377,12.711 -5.739,0 0,-12.711 -4.593,0 0,30.173 11.733,0 c 5.74,0 9.397,-3.689 9.397,-8.814 0,-4.368 -2.636,-7.038 -6.036,-8.012 L -156.979,0 l -5.356,0 z m -0.169,21.315 c 0,3.01 -2.084,4.747 -5.147,4.747 l -6.8,0 0,-9.452 6.8,0 c 3.063,0 5.147,1.695 5.147,4.705 M -188.229,0 l -2.084,6.056 -11.948,0 -2.084,-6.056 -4.889,0 11.099,30.173 3.698,0 11.1,-30.173 -4.892,0 z m -7.952,23.351 -4.717,-13.393 9.308,0 -4.591,13.393 z M -212.425,8.519 C -212.425,2.964 -216.25,0 -221.564,0 l -12.245,0 0,30.173 11.776,0 c 5.655,0 9.141,-3.136 9.141,-8.264 0,-3.265 -2.082,-5.638 -4.08,-6.399 2.339,-0.889 4.547,-3.18 4.547,-6.991 m -4.591,0.209 c 0,2.715 -1.743,4.58 -4.973,4.58 l -7.232,0 0,-9.198 7.232,0 c 3.23,0 4.973,1.907 4.973,4.618 m -0.466,13.009 c 0,2.844 -1.998,4.325 -4.934,4.325 l -6.805,0 0,-8.646 6.805,0 c 2.936,0 4.934,1.485 4.934,4.321" /></g><g
           transform="translate(828.8555,416.9961)"
           id="g30"><path
             id="path32"
             style="fill:#e53d42;fill-opacity:1;fill-rule:nonzero;stroke:none"
             d="m 0,0 0,30.173 4.595,0 0,-26.062 14.584,0 L 19.179,0 0,0 Z m -9.184,0 -2.084,6.058 -11.944,0 -2.084,-6.058 -4.89,0 11.098,30.173 3.697,0 L -4.291,0 -9.184,0 Z m -7.948,23.353 -4.718,-13.393 9.309,0 -4.591,13.393 z m -20.45,2.709 0,-26.062 -4.595,0 0,26.062 -8.332,0 0,4.111 21.261,0 0,-4.111 -8.334,0 z m -22.75,4.111 4.593,0 0,-30.173 -4.593,0 0,30.173 z m -5.567,-9.152 c 0,-5.256 -3.786,-9.155 -9.697,-9.155 l -6.889,0 0,-11.866 -4.591,0 0,30.173 11.48,0 c 5.911,0 9.697,-3.898 9.697,-9.152 m -4.593,0 c 0,3.219 -2.126,5.041 -5.359,5.041 l -6.634,0 0,-10.044 6.634,0 c 3.233,0 5.359,1.781 5.359,5.003 M -96.26,0 l -2.086,6.058 -11.947,0 -2.084,-6.058 -4.89,0 11.103,30.173 3.694,0 L -91.369,0 -96.26,0 Z m -7.953,23.353 -4.718,-13.393 9.309,0 -4.591,13.393 z M -119.348,9.027 c -1.021,-6.019 -5.317,-9.282 -10.8,-9.282 -3.187,0 -5.868,1.142 -7.95,3.219 -2.977,2.969 -2.935,6.36 -2.935,12.121 0,5.764 -0.042,9.155 2.935,12.121 2.082,2.078 4.763,3.222 7.95,3.222 5.615,0 9.735,-3.222 10.8,-9.282 l -4.674,0 c -0.724,3.054 -2.725,5.171 -6.126,5.171 -1.828,0 -3.403,-0.678 -4.463,-1.822 -1.491,-1.609 -1.827,-3.349 -1.827,-9.41 0,-6.058 0.336,-7.796 1.827,-9.407 1.06,-1.142 2.635,-1.821 4.463,-1.821 3.401,0 5.444,2.118 6.164,5.17 l 4.636,0 z m -37.587,6.272 c 0,-4.408 0.216,-9.196 -3.058,-12.458 C -161.908,0.931 -164.628,0 -167.821,0 l -10.627,0 0,30.173 10.627,0 c 3.193,0 5.913,-0.933 7.828,-2.839 3.274,-3.264 3.058,-7.674 3.058,-12.035 m -4.59,0 c 0,4.194 -0.044,6.991 -1.618,8.732 -1.232,1.353 -2.973,2.031 -5.142,2.031 l -5.57,0 0,-21.951 5.57,0 c 2.169,0 3.91,0.678 5.142,2.033 1.574,1.739 1.618,4.96 1.618,9.155 M -202.855,0 l 0,30.173 4.595,0 0,-26.062 14.583,0 0,-4.111 -19.178,0 z m -11.137,0 -6.382,12.713 -5.739,0 0,-12.713 -4.591,0 0,30.173 11.734,0 c 5.743,0 9.397,-3.684 9.397,-8.814 0,-4.366 -2.637,-7.037 -6.034,-8.01 L -208.636,0 l -5.356,0 z m -0.172,21.317 c 0,3.009 -2.082,4.745 -5.145,4.745 l -6.804,0 0,-9.452 6.804,0 c 3.063,0 5.145,1.697 5.145,4.707 m -23.344,-6.232 c 0,-5.761 0.086,-9.152 -2.891,-12.121 -2.082,-2.077 -4.763,-3.219 -7.994,-3.219 -3.23,0 -5.867,1.142 -7.948,3.219 -2.977,2.969 -2.935,6.36 -2.935,12.121 0,5.764 -0.042,9.155 2.935,12.121 2.081,2.078 4.718,3.222 7.948,3.222 3.231,0 5.912,-1.144 7.994,-3.222 2.977,-2.966 2.891,-6.357 2.891,-12.121 m -4.591,0 c 0,6.061 -0.255,7.755 -1.787,9.368 -1.06,1.142 -2.68,1.864 -4.507,1.864 -1.831,0 -3.441,-0.722 -4.506,-1.864 -1.532,-1.613 -1.788,-3.307 -1.788,-9.368 0,-6.058 0.256,-7.757 1.788,-9.363 1.065,-1.142 2.675,-1.865 4.506,-1.865 1.827,0 3.447,0.723 4.507,1.865 1.532,1.606 1.787,3.305 1.787,9.363 M -270.077,0 l -3.996,0 -6.164,21.146 -6.125,-21.146 -3.996,0 -7.91,30.173 4.846,0 5.274,-21.571 6.082,21.571 3.699,0 6.08,-21.571 5.273,21.571 4.846,0 L -270.077,0 Z" /></g><g
           transform="translate(661.2061,456.2354)"
           id="g34"><path
             id="path36"
             style="fill:#e53d42;fill-opacity:1;fill-rule:nonzero;stroke:none"
             d="m 0,0 0,30.175 19.346,0 0,-4.111 -14.753,0 0,-8.814 12.585,0 0,-4.068 -12.585,0 0,-9.069 14.753,0 L 19.346,0 0,0 Z m -24.407,0 0,30.175 4.595,0 0,-26.062 14.585,0 0,-4.113 -19.18,0 z m -12.497,30.175 4.59,0 0,-30.175 -4.59,0 0,30.175 z M -43.707,8.521 C -43.707,2.964 -47.536,0 -52.851,0 l -12.246,0 0,30.175 11.778,0 c 5.656,0 9.141,-3.136 9.141,-8.266 0,-3.261 -2.082,-5.633 -4.08,-6.397 2.34,-0.891 4.551,-3.18 4.551,-6.991 m -4.595,0.211 c 0,2.713 -1.742,4.577 -4.973,4.577 l -7.231,0 0,-9.196 7.231,0 c 3.231,0 4.973,1.906 4.973,4.619 m -0.466,13.008 c 0,2.841 -1.999,4.324 -4.934,4.324 l -6.804,0 0,-8.646 6.804,0 c 2.935,0 4.934,1.483 4.934,4.322 m -23.13,-6.65 c 0,-5.766 0.085,-9.155 -2.89,-12.126 -2.086,-2.075 -4.762,-3.219 -7.993,-3.219 -3.235,0 -5.871,1.144 -7.952,3.219 -2.978,2.971 -2.937,6.36 -2.937,12.126 0,5.761 -0.041,9.152 2.937,12.12 2.081,2.074 4.717,3.22 7.952,3.22 3.231,0 5.907,-1.146 7.993,-3.22 2.975,-2.968 2.89,-6.359 2.89,-12.12 m -4.593,0 c 0,6.058 -0.256,7.752 -1.787,9.366 -1.061,1.142 -2.676,1.861 -4.503,1.861 -1.83,0 -3.446,-0.719 -4.511,-1.861 -1.529,-1.614 -1.782,-3.308 -1.782,-9.366 0,-6.061 0.253,-7.757 1.782,-9.368 1.065,-1.142 2.681,-1.865 4.511,-1.865 1.827,0 3.442,0.723 4.503,1.865 1.531,1.611 1.787,3.307 1.787,9.368 M -105.021,0 l 0,20.173 -6.973,-14.704 -3.402,0 -7.141,14.704 0,-20.173 -4.595,0 0,30.175 4.595,0 8.842,-18.774 8.674,18.774 4.591,0 0,-30.175 -4.591,0 z" /></g></g></g><g
       transform="translate(863.3262,423.9014)"
       id="g38"><path
         id="path40"
         style="fill:#e53d42;fill-opacity:1;fill-rule:nonzero;stroke:none"
         d="M 0,0 -2.047,-3.93 -4.071,0 l -1.252,0 0,-6.905 1.252,0 0,4.513 1.459,-2.896 1.151,0 1.461,2.896 0,-4.513 1.25,0 L 1.25,0 0,0 Z m -11.426,0 0,-1.115 1.849,0 0,-5.79 1.234,0 0,5.79 1.866,0 0,1.115 -4.949,0 z" /></g></g></svg>
