<?xml version="1.0" encoding="utf-8"?>
<!-- Generator: Adobe Illustrator 16.0.4, SVG Export Plug-In . SVG Version: 6.00 Build 0)  -->
<!DOCTYPE svg PUBLIC "-//W3C//DTD SVG 1.1//EN" "http://www.w3.org/Graphics/SVG/1.1/DTD/svg11.dtd">
<svg version="1.1" id="logo" xmlns="http://www.w3.org/2000/svg" xmlns:xlink="http://www.w3.org/1999/xlink" x="0px" y="0px"
	 width="1133.696px" height="454.338px" viewBox="0 0 1133.696 454.338" enable-background="new 0 0 1133.696 454.338"
	 xml:space="preserve">
<path id="y" fill="#85B826" d="M1133.696,109.355L958.028,454.338h-63.609l50.514-95.786L812.739,109.355H879.2l97.281,194.682
	l96.996-194.682H1133.696z"/>
<path id="a" fill="#F5AF04" d="M717.713,240.953c-51.518,1.676-83.523,10.987-83.523,44.924c0,21.953,17.516,45.766,61.979,45.766
	c59.602,0,91.426-32.494,91.426-85.774v-5.872C766.698,239.996,740.928,240.185,717.713,240.953z M844.409,311.347
	c0,16.542,0.475,32.865,1.92,47.563h-52.85c-1.402-12.107-1.92-24.129-1.92-35.795c-28.574,35.121-62.557,45.216-109.701,45.216
	c-69.926,0-107.355-36.949-107.355-79.695c0-61.915,50.91-83.741,139.316-85.773c24.18-0.554,51.324-0.626,73.775-0.626v-6.061
	c0-41.454-26.58-58.487-72.643-58.487c-34.184,0-59.373,14.158-61.979,38.601H593.28c6.318-60.96,70.367-76.384,126.686-76.384
	c67.461,0,124.443,24.009,124.443,95.354V311.347z"/>
<path id="b" fill="#2B62AC" d="M431.741,329.482c52.812,0,88.932-38.013,88.932-95.354c0-57.354-36.119-95.36-88.932-95.36
	c-52.501,0-88.929,38.006-88.929,95.36C342.812,291.47,379.239,329.482,431.741,329.482z M286.012,0h56.8l-0.008,142.709
	c27.839-33.169,66.203-42.804,103.957-42.804c63.303,0,133.607,42.72,133.607,134.933c0,77.247-55.914,133.493-134.664,133.493
	c-41.221,0-80.024-14.779-103.949-44.074c0,11.69-0.655,23.492-1.929,34.653h-55.744c0.965-18.043,1.931-40.5,1.931-58.673V0z"/>
<path id="e" fill="#E63339" d="M226.326,210.721c-2.202-53.141-40.566-73.032-81.562-73.032c-44.207,0-79.509,22.373-85.679,73.032
	H226.326z M57.848,248.506c3.073,51.567,38.638,82.049,87.517,82.049c33.888,0,64.021-13.79,74.105-43.822h58.599
	c-11.396,60.925-76.137,81.599-131.862,81.599C44.899,368.331,0,312.536,0,237.291C0,154.463,46.443,99.905,147.135,99.905
	c80.153,0,138.877,41.94,138.877,133.491v15.109H57.848z"/>
</svg>
