<?xml version="1.0" encoding="UTF-8" standalone="no"?>
<svg
   xmlns:dc="http://purl.org/dc/elements/1.1/"
   xmlns:cc="http://creativecommons.org/ns#"
   xmlns:rdf="http://www.w3.org/1999/02/22-rdf-syntax-ns#"
   xmlns:svg="http://www.w3.org/2000/svg"
   xmlns="http://www.w3.org/2000/svg"
   viewBox="0 0 778.15997 102.21333"
   height="102.21333"
   width="778.15997"
   xml:space="preserve"
   id="svg2"
   version="1.1"><metadata
     id="metadata8"><rdf:RDF><cc:Work
         rdf:about=""><dc:format>image/svg+xml</dc:format><dc:type
           rdf:resource="http://purl.org/dc/dcmitype/StillImage" /></cc:Work></rdf:RDF></metadata><defs
     id="defs6"><clipPath
       id="clipPath20"
       clipPathUnits="userSpaceOnUse"><path
         id="path18"
         d="M 0,0 H 5836 V 766.629 H 0 Z" /></clipPath></defs><g
     transform="matrix(1.3333333,0,0,-1.3333333,0,102.21333)"
     id="g10"><g
       transform="scale(0.1)"
       id="g12"><g
         id="g14"><g
           clip-path="url(#clipPath20)"
           id="g16"><path
             id="path22"
             style="fill:#4bbaed;fill-opacity:1;fill-rule:nonzero;stroke:none"
             d="m 2531.38,87.9688 h -566.86 l 566.86,566.9022 z m -670.21,0 V 12.8594 h 745.31 V 758.234 h -75.1 L 1861.17,87.9688" /><path
             id="path24"
             style="fill:#4bbaed;fill-opacity:1;fill-rule:nonzero;stroke:none"
             d="m 1861.16,12.8594 h 745.371 V 87.9688 H 1861.16 Z" /><path
             id="path26"
             style="fill:#171717;fill-opacity:1;fill-rule:nonzero;stroke:none"
             d="m 0,12.2656 h 84.418 v 742.191 H 0 Z" /><path
             id="path28"
             style="fill:#171717;fill-opacity:1;fill-rule:nonzero;stroke:none"
             d="M 826.543,185.434 C 750.145,110.098 682.441,79.3477 592.973,79.3477 c -159.661,0 -284.715,134.3903 -284.715,305.9963 0,172.152 121.945,301.984 283.68,301.984 110.257,0 177.386,-50.625 228.566,-100.09 l 11.316,-11.019 59.957,61.547 -12.031,11.019 c -77.293,70.723 -155.558,117.844 -286.773,117.844 -208.047,0 -371.071,-169.203 -371.071,-385.344 0,-217.34 158.621,-381.238125 368.996,-381.238125 143.875,0 229.028,64.871125 293.434,128.351125 l 11.367,11.391 -58.113,56.34 -11.043,-10.695" /><path
             id="path30"
             style="fill:#171717;fill-opacity:1;fill-rule:nonzero;stroke:none"
             d="m 3103.28,79.3906 c -161.34,0 -287.78,134.3944 -287.78,305.9064 0,172.199 122.89,302.031 285.76,302.031 161.36,0 287.78,-134.441 287.78,-306 0,-172.105 -122.82,-301.9374 -285.76,-301.9374 m 0,687.2384 C 2869.14,766.629 2729.1,570.684 2729.1,381.328 2729.1,163.945 2889.1,0 3101.26,0 c 231.35,0 371.88,192.578 374.09,378.703 v 11.156 c -2.12,214.754 -162.1,376.77 -372.07,376.77" /><path
             id="path32"
             style="fill:#171717;fill-opacity:1;fill-rule:nonzero;stroke:none"
             d="M 3950.41,92.5781 H 3708.36 V 346.246 h 224.9 c 129.28,0 200.46,-44.172 200.46,-124.344 0,-79.804 -70.26,-129.3239 -183.31,-129.3239 m -23.33,333.9379 h -218.72 v 247.535 h 223.7 c 102.91,0 161.92,-42.696 161.92,-117.106 0,-80.5 -63.95,-130.429 -166.9,-130.429 m 157.96,-29.832 c 61.87,36.793 94.47,94.421 94.47,167.316 0,48.18 -17.02,89.488 -50.4,122.777 -43.56,43.614 -113.09,67.68 -195.85,67.68 H 3623.99 V 12.2656 h 324.49 c 164.31,0 270.54,83.0782 270.54,211.5744 0,80.082 -46.29,139.695 -133.98,172.844" /><path
             id="path34"
             style="fill:#171717;fill-opacity:1;fill-rule:nonzero;stroke:none"
             d="m 4343.59,12.2656 h 84.3711 v 742.191 H 4343.59 Z" /><path
             id="path36"
             style="fill:#171717;fill-opacity:1;fill-rule:nonzero;stroke:none"
             d="m 4678.31,754.457 h -84.37 V 12.2656 h 501.67 v 80.3125 h -417.3 V 754.457" /><path
             id="path38"
             style="fill:#171717;fill-opacity:1;fill-rule:nonzero;stroke:none"
             d="m 1334.55,687.328 c 146.26,0 262.01,-105.578 283.12,-257.445 h -564.45 c 19.77,151.867 134.87,257.445 281.33,257.445 m 2.02,79.301 C 1102.36,766.629 962.434,570.684 962.434,381.328 962.434,163.945 1122.37,0 1334.55,0 c 137.57,0 255.02,68.5117 322.31,187.828 l 8.97,15.86 -78.38,30.8 -6.75,-11.894 C 1529.29,131.535 1440.36,79.3906 1336.57,79.3906 c -149.7,0 -268.76,112.3084 -284.76,267.6834 l 655.61,0.094 0.99,18.992 c 0.71,10.699 1.13,17.152 0.18,21.07 -0.78,216.329 -160.74,379.399 -372.02,379.399" /><path
             id="path40"
             style="fill:#171717;fill-opacity:1;fill-rule:nonzero;stroke:none"
             d="m 5461.59,687.328 c 146.29,0 261.96,-105.578 283.03,-257.445 h -564.41 c 19.78,151.867 134.9,257.445 281.38,257.445 M 5835.68,387.23 c -0.83,216.329 -160.77,379.399 -372.02,379.399 -234.26,0 -374.23,-195.945 -374.23,-385.301 C 5089.43,163.945 5249.37,0 5461.59,0 c 137.57,0 255,68.5117 322.22,187.828 l 9.13,15.86 -78.38,30.8 -6.82,-11.894 C 5656.33,131.535 5567.4,79.3906 5463.66,79.3906 5314,79.3906 5194.87,191.699 5178.78,347.074 l 655.65,0.094 0.97,18.992 c 0.78,11.207 1.16,17.246 0.28,21.07" /><path
             id="path42"
             style="fill:#171717;fill-opacity:1;fill-rule:nonzero;stroke:none"
             d="m 1936.26,654.871 566.9,-566.9022 h -566.9 z m 0,103.324 h -75.1 V 12.8594 h 745.35 V 87.9688 L 1936.26,758.195" /></g></g></g></g></svg>