<?xml version="1.0" encoding="utf-8"?>
<!-- Generator: Adobe Illustrator 21.0.2, SVG Export Plug-In . SVG Version: 6.00 Build 0)  -->
<svg version="1.1" id="Capa_1" xmlns="http://www.w3.org/2000/svg" xmlns:xlink="http://www.w3.org/1999/xlink" x="0px" y="0px"
	 viewBox="0 0 158.6 94.9" style="enable-background:new 0 0 158.6 94.9;" xml:space="preserve">
<style type="text/css">
	.st0{fill:#FF3D55;}
</style>
<g>
	<path class="st0" d="M18.5,60.5c-5.3,0-9.3-3.2-8.3-11.2C13.7,22,18.8,6.1,28.6,6.1c3.5,0,6,2.2,6,6.1c0,5.9-4.9,17.9-14.6,32.8
		c-0.2,0.9-0.3,1.9-0.4,2.8c-0.5,3.9,1.4,5.4,4.1,5.4c4.1,0,14.1-4.1,19.9-8.1c1.4-0.2,0.8,1.8,0.2,3.2
		C36.8,53.2,25.5,60.5,18.5,60.5z M21,38.2c6.6-12.3,9.4-23,9.4-25.6c0-1.3-0.5-1.7-1.3-1.7C26.7,11,23.6,22.3,21,38.2z"/>
	<path class="st0" d="M43.9,48.3c0.8,4.1,3.5,5.6,7,5.6c5.4,0,12.4-3.8,15.6-8.1c2-0.4,2.7,1.2,1.9,2.6C63.2,56,54.4,60.5,47.1,60.5
		c-7.1,0-12.8-4.2-12.8-13.5c0-9.8,6.5-25.5,18.9-25.5c6.9,0,8.6,3.8,8.6,7.2C61.8,35.1,58.4,40.3,43.9,48.3z M43.6,45.1
		c7.3-4.6,12.3-9.9,12.3-14.8c0-1.7-0.9-2.9-2.2-2.9C46.3,27.4,43.9,39.8,43.6,45.1z"/>
	<path class="st0" d="M79.6,26.6l-4.4,21.2c-0.9,4.2,0.3,5.6,2.3,5.6c2.8,0,6-1.9,7.9-3.8c0.8,0.4,1.3,1.1,1.3,1.8
		c0,0.5-0.2,1.1-0.7,1.7c-3.5,4-9.3,7.5-14.3,7.5c-4.6,0-7.6-2.9-5.9-11.2l4.8-22.8h-3.8c-0.4-2.4,0.8-4.4,3.2-4.4h1.5l1.4-6.2
		c0.8-3.5,3.6-4.7,6.3-4.7c1.4,0,2.6,0.4,3.5,1l-2.1,9.9h5.5c0.4,2.4-0.8,4.4-3.2,4.4H79.6z"/>
	<path class="st0" d="M108.7,60c-3,14-7.6,28.9-19.1,28.9c-4,0-7.8-3-7.8-9.3c0-9.3,10.3-16.5,19.3-20.3c0.5-1.9,0.9-3.8,1.5-5.9
		c-2.7,4.1-6.1,7-9.7,7c-6.9,0-8.3-7.8-8.3-12.7c0-13.2,7.5-26.3,16.7-26.3c3,0,5.1,0.8,6.8,2.5c1.1-1.5,2.9-2.2,4.6-2.2
		c1.2,0,2.3,0.4,3.1,1l-5.6,29.8c-0.2,1.1-0.4,2.1-0.6,3.1c3.6-2,7.2-4.3,9.5-6.6c1,1,1.2,2.6,0.1,3.8
		C117.9,54.1,113.4,57.5,108.7,60z M99.7,64.6c-7.3,3.3-13.4,9-13.4,14c0,2.6,1.9,3.5,2.7,3.5C93.6,82.2,96.3,77,99.7,64.6z
		 M106.8,27.8c-1.1-0.5-2.1-0.6-3.1-0.6c-8,0-10.9,11.9-10.9,20.1c0,3.8,1.5,5.4,3.6,5.4c2.1,0,4.9-2,6.7-4.7L106.8,27.8z"/>
	<path class="st0" d="M148.4,35c0,11.2-8.1,25.5-19.9,25.5c-7.8,0-11.1-6.3-11.1-13.3c0-11.4,7.9-25.6,19.3-25.6
		C145,21.5,148.4,27.6,148.4,35z M127.1,44.7c0,6.6,2.3,9.2,4.9,9.2c6,0,10.8-11.6,10.8-19.5c0-4.1-1.3-7.2-4.4-7.2
		C131.6,27.2,127.1,37.3,127.1,44.7z"/>
</g>
</svg>
