<?xml version="1.0" encoding="utf-8"?>
<!-- Generator: Adobe Illustrator 20.1.0, SVG Export Plug-In . SVG Version: 6.00 Build 0)  -->
<svg version="1.1" id="Layer_1" xmlns="http://www.w3.org/2000/svg" xmlns:xlink="http://www.w3.org/1999/xlink" x="0px" y="0px"
	 viewBox="8.14 337.445 610 161" enable-background="new 8.14 337.445 610 161" xml:space="preserve">
<g>
	<path d="M62.905,401.492L41.433,378.85v22.005h-5.847v-34.761l0.957-0.212l21.153,22.323v-21.579h5.847v34.76L62.905,401.492z"/>
	<path d="M78.212,400.855v-34.228h20.941v5.315H84.059v8.929h13.606v5.103H84.059v9.461h15.095v5.314H78.212V400.855z"/>
	<path d="M112.866,400.855v-34.228h5.847v34.335h-5.847V400.855z"/>
	<path d="M160.914,382.783v14.988c-3.614,2.339-7.654,3.721-12.756,3.721c-9.78,0-18.178-7.122-18.178-17.646
		c0-10.629,8.61-17.752,18.178-17.752c5.102,0,8.609,1.383,12.118,3.508l-2.658,4.678c-2.764-1.807-6.059-2.87-9.248-2.87
		c-7.76,0-12.225,5.528-12.225,12.331c0,7.334,5.422,12.543,12.118,12.543c2.977,0,4.891-0.531,6.91-1.594v-6.697h-7.973v-5.103
		h13.713V382.783z"/>
	<path d="M196.418,400.855v-14.669h-15.732v14.775h-5.847v-34.335h5.847v14.35h15.732v-14.35h5.847v34.335h-5.847V400.855z"/>
	<path d="M226.182,401.174c-2.87,0-6.272-0.319-9.248-0.639v-33.59c2.552-0.426,5.953-0.639,8.823-0.639
		c9.035,0,13.5,4.358,13.5,8.93c0,3.613-1.701,6.272-5.953,7.76c4.996,1.382,6.91,4.465,6.91,8.185
		C240.108,396.39,235.324,401.174,226.182,401.174z M226.714,371.409c-1.488,0-2.87,0.106-4.04,0.319v9.461
		c0.851,0.105,2.02,0.105,3.508,0.105c4.996,0,7.017-2.232,7.017-5.102C233.092,373.429,231.072,371.409,226.714,371.409z
		 M226.182,385.441c-1.169,0-2.764,0-3.508,0.105v10.311c1.17,0.106,2.552,0.212,4.145,0.212c4.678,0,7.017-2.232,7.017-5.421
		C233.836,387.779,231.284,385.441,226.182,385.441z"/>
	<path d="M267.321,401.492c-9.886,0-17.221-7.547-17.221-17.646c0-10.204,7.547-17.752,17.539-17.752
		c9.886,0,17.221,7.548,17.221,17.752C284.86,393.945,277.206,401.492,267.321,401.492z M267.532,371.303
		c-6.59,0-11.055,5.315-11.055,12.438c0,7.122,4.571,12.543,11.055,12.543c6.484,0,11.056-5.421,11.056-12.543
		C278.588,376.618,274.017,371.303,267.532,371.303z"/>
	<path d="M309.946,401.492c-8.61,0-13.606-4.783-13.606-13.713v-21.153h5.847v20.728c0,5.847,2.87,8.823,7.866,8.823
		c4.89,0,7.866-2.977,7.866-8.823v-20.728h5.847v21.153C323.766,396.496,318.344,401.492,309.946,401.492z"/>
	<path d="M356.718,400.855l-7.44-12.331c-0.638,0-1.17,0-1.808,0c-1.169,0-2.338,0-3.401-0.106v12.438h-5.953v-33.909
		c2.765-0.319,5.528-0.532,9.036-0.532c9.779,0,14.031,4.677,14.031,10.843c0,4.465-2.444,8.078-6.696,9.886l8.929,13.819h-6.697
		V400.855z M347.896,371.622c-1.382,0-2.764,0-3.934,0.319v11.692c1.063,0.106,2.232,0.212,3.402,0.212
		c5.102,0,7.653-2.338,7.653-6.272C355.018,373.961,352.361,371.622,347.896,371.622z"/>
	<path d="M396.368,400.855v-14.669h-15.732v14.775h-5.847v-34.335h5.847v14.35h15.732v-14.35h5.847v34.335h-5.847V400.855z"/>
	<path d="M431.766,401.492c-9.886,0-17.221-7.547-17.221-17.646c0-10.204,7.548-17.752,17.54-17.752
		c9.886,0,17.221,7.548,17.221,17.752C449.306,393.945,441.653,401.492,431.766,401.492z M431.979,371.303
		c-6.591,0-11.055,5.315-11.055,12.438c0,7.122,4.57,12.543,11.055,12.543c6.484,0,11.056-5.421,11.056-12.543
		C443.034,376.618,438.463,371.303,431.979,371.303z"/>
	<path d="M477.156,401.492c-9.886,0-17.221-7.547-17.221-17.646c0-10.204,7.547-17.752,17.539-17.752
		c9.887,0,17.221,7.548,17.221,17.752C494.696,393.945,487.149,401.492,477.156,401.492z M477.369,371.303
		c-6.591,0-11.056,5.315-11.056,12.438c0,7.122,4.571,12.543,11.056,12.543s11.055-5.421,11.055-12.543
		C488.424,376.618,483.854,371.303,477.369,371.303z"/>
	<path d="M517.656,401.174c-3.721,0-6.378-0.213-9.886-0.532v-33.696c3.295-0.426,6.165-0.532,9.567-0.532
		c13.607,0,20.303,7.76,20.303,17.114C537.641,393.094,531.263,401.174,517.656,401.174z M518.082,371.516
		c-1.701,0-3.19,0.107-4.358,0.318v23.918c1.488,0.213,2.657,0.318,4.89,0.318c8.822,0,12.756-5.314,12.756-12.543
		C531.369,376.299,526.798,371.516,518.082,371.516z"/>
	<path d="M550.822,400.855v-34.228h5.847v34.335h-5.847V400.855z"/>
	<path d="M571.338,400.855v-34.228h20.941v5.315h-15.095v8.929h13.607v5.103h-13.607v9.461h15.095v5.314h-20.941V400.855z"/>
	<path d="M308.778,469.524c-3.934,0-7.761-1.382-10.736-3.401l2.02-5.209c2.764,1.913,5.952,3.188,8.929,3.188
		c3.614,0,5.209-2.126,5.209-4.464c0-2.339-1.064-3.934-6.484-6.166c-5.953-2.551-8.185-5.634-8.185-9.779
		c0-4.996,4.146-9.567,11.268-9.567c3.295,0,6.59,1.17,8.61,2.445l-1.914,5.103c-1.807-1.275-4.57-2.445-6.909-2.445
		c-3.614,0-5.315,1.914-5.315,4.252c0,2.339,1.701,3.614,5.953,5.527c6.804,2.977,8.717,5.74,8.717,10.205
		C320.152,464.74,315.9,469.524,308.778,469.524z"/>
	<path d="M347.789,469.524c-9.886,0-17.221-7.548-17.221-17.646c0-10.204,7.547-17.752,17.539-17.752
		c9.887,0,17.221,7.548,17.221,17.752C365.223,461.977,357.675,469.524,347.789,469.524z M347.896,439.335
		c-6.591,0-11.056,5.315-11.056,12.438c0,7.122,4.571,12.543,11.056,12.543c6.484,0,11.055-5.421,11.055-12.543
		C358.95,444.65,354.38,439.335,347.896,439.335z"/>
	<path d="M383.719,439.973v9.992h13.287v5.209h-13.287v13.713h-5.847v-34.228h20.941v5.314H383.719z"/>
	<path d="M424.113,439.973v28.914h-5.847v-28.914h-10.948v-5.314h27.638v5.314H424.113z"/>
	<path d="M477.369,469.524l-0.957,0.106l-10.63-23.812l-10.523,23.812l-0.85-0.106l-11.056-34.866h6.484l6.165,21.578l9.567-21.897
		h0.638l9.567,21.792l6.059-21.473h6.378L477.369,469.524z"/>
	<path d="M518.507,468.887l-3.295-7.866h-13.606l-3.296,7.866h-6.059l15.839-34.761h0.85l15.732,34.761H518.507z M508.408,444.969
		l-4.89,11.48h9.779L508.408,444.969z"/>
	<path d="M553.693,468.887l-7.441-12.331c-0.638,0-1.169,0-1.807,0c-1.17,0-2.339,0-3.402-0.107v12.438h-5.846v-33.91
		c2.764-0.318,5.527-0.531,9.035-0.531c9.779,0,14.031,4.677,14.031,10.843c0,4.464-2.444,8.078-6.696,9.886l8.929,13.818h-6.803
		V468.887z M544.869,439.654c-1.382,0-2.764,0-3.933,0.318v11.693c1.062,0.106,2.231,0.212,3.401,0.212
		c5.103,0,7.653-2.338,7.653-6.272C551.991,441.992,549.441,439.654,544.869,439.654z"/>
	<path d="M571.338,468.887v-34.228h20.941v5.314h-15.095v8.93h13.607v5.102h-13.607v9.461h15.095v5.315h-20.941V468.887z"/>
</g>
</svg>
