<?xml version="1.0" encoding="utf-8"?>
<!-- Generator: Adobe Illustrator 19.0.0, SVG Export Plug-In . SVG Version: 6.00 Build 0)  -->
<svg version="1.1" id="Layer_1" xmlns="http://www.w3.org/2000/svg" xmlns:xlink="http://www.w3.org/1999/xlink" x="260px" y="560px"
	 viewBox="0 0 200 200"  xml:space="preserve">
<g id="XMLID_272_">
	<path id="XMLID_273_" d="M370.7,315.3C370.7,315.3,370.7,315.3,370.7,315.3C370.7,315.3,370.8,315.3,370.7,315.3
		C370.8,315.3,370.8,315.3,370.7,315.3C370.8,315.3,370.7,315.3,370.7,315.3C370.7,315.3,370.7,315.3,370.7,315.3z"/>
	<path id="XMLID_277_" d="M571.2,329.1h38.6v-3.4h0l0-25.2c-1-1.9-2.3-3.4-3.8-4.7V281l-2.3-5.9l-2.7,6v1.6v0h-2.1v-6.5v-1.3
		l-2.7-3.3l-2.3,3.3v7.9h-2.3v-1.6l-2.7-6l-2.3,5.9v9.4c-2.5-6.6-5.5-14.7-6.5-17.4c-0.4-1-0.3-2.1,0.1-3.3c0,0,0.1,0,0.3,0.1
		c0.2,0,0.5,0.1,0.9,0.2c0.7,0.1,1.7,0.3,2.8,0.3c0.1,1.3,0.2,2.4,0.3,3.2c0.1,0.5,0.1,0.8,0.1,1.1c0,0.3,0.1,0.4,0.1,0.4
		s0-0.1,0.1-0.4c0-0.3,0.1-0.6,0.1-1.1c0.1-0.8,0.2-1.9,0.3-3.2c0.5,0,0.9,0,1.4-0.1c0.8-0.1,1.6-0.3,2.4-0.6
		c0.4-0.2,0.8-0.4,1.3-0.7c0.4-0.3,0.8-0.7,1.1-1.2c0.1-0.3,0.3-0.6,0.3-1c0-0.4-0.1-0.7-0.2-1.1c-0.1-0.1-0.1-0.3-0.2-0.4
		c-0.1-0.1-0.2-0.3-0.3-0.4c-0.1-0.1-0.2-0.3-0.3-0.4l-0.2-0.2l0,0l0,0l-0.1,0l0,0l-0.1-0.1l-0.2-0.1c-0.1-0.1-0.2-0.2-0.3-0.2
		c-0.2-0.2-0.4-0.3-0.7-0.4c-0.4-0.2-0.9-0.4-1.3-0.6c-0.7-0.3-1.5-0.5-2.2-0.7c0-0.3,0-0.7,0-1c0-1.1,0-2.1,0-3.2
		c0-1.1,0-2.2,0-3.2c0-1.1,0-2.1-0.1-3.1c-0.1-2-0.2-3.9-0.3-5.5c-0.1-1.6-0.3-3-0.4-3.9c-0.1-0.5-0.1-0.8-0.1-1.1
		c0-0.3-0.1-0.4-0.1-0.4s0,0.1-0.1,0.4c0,0.3-0.1,0.6-0.1,1.1c-0.1,0.9-0.3,2.3-0.4,3.9c-0.1,1.6-0.2,3.5-0.3,5.5
		c0,1-0.1,2.1-0.1,3.1c0,1.1,0,2.1,0,3.2c0,1.1,0,2.2,0,3.2c0,0.2,0,0.4,0,0.6c-1.1-0.2-2.2-0.4-3.1-0.5c-1.3-0.2-2.4-0.2-3.2-0.3
		c-0.4,0-0.7,0-0.9,0c-0.2,0-0.3,0-0.3,0l0,0c-0.1,0-0.3,0-0.4,0c-1.3,0.2-2.2,1.4-2,2.7c0.2,1.3,1.4,2.2,2.7,2c0,0,0.1,0,0.3,0
		c0.2,0,0.5-0.1,0.8-0.1c0.5-0.1,1.1-0.1,1.9-0.2c-1.4,1.6-3.9,4.8-3.1,7.3c0.7,2.1,4,12.1,6.4,19.5c-2,0.4-3.9,1.1-5.8,1.8
		c-1,0.3-1.9,0.6-2.8,1.1l-0.1-3.3c2.6-0.3,4.5-2.5,4.5-5.2c0-2.9-2.3-5.2-5.2-5.2c-2.9,0-5.2,2.3-5.2,5.2c0,2.7,2,4.9,4.6,5.2v3.9
		c-0.2,0.1-0.3,0.2-0.5,0.3c-2.3,1.3-4.3,2.9-6.1,4.7c-0.2,0.2-0.3,0.3-0.4,0.5c-0.2-2.8-0.3-5.6-0.5-8.3v-2.7v-1.4
		c0-0.2-0.1-0.3-0.2-0.4c-0.1,0-0.1,0-0.2-0.1c-0.2-2.1-0.4-4.2-0.6-6.2v-1.4c0-0.2-0.1-0.3-0.2-0.4c-0.3-2.8-0.7-5.4-1.1-8
		c0.7-0.7,1.4-1.4,1.9-2.2c0.2-0.3,0.2-0.6,0.1-0.9c0.2-0.3,0-0.6-0.3-0.7c-0.6-0.2-1.3-0.1-1.9,0.1c-0.1,0-0.2,0.1-0.4,0.1
		c-2.8-16.5-6.8-26.9-11.3-26.9c-2.8,0-5.4,4-7.6,11h-10.5c-0.2-1.9-0.5-3.7-0.7-5.4c-0.4-3.4-0.8-6-1-7.4c0.9-0.4,1.6-1.4,1.6-2.5
		c0-1.5-1.2-2.7-2.7-2.7c-1.5,0-2.7,1.2-2.7,2.7c0,1.2,0.7,2.2,1.8,2.6c-0.1,1.7-0.2,5.2-0.4,9.7c0,1-0.1,2-0.1,3
		c-0.5,11.9-1.2,28-1.6,33c0,0-3.8-46-4.8-54.1c1-0.4,1.7-1.4,1.7-2.5c0-1.5-1.2-2.7-2.7-2.7c-1.5,0-2.7,1.2-2.7,2.7
		c0,1.2,0.7,2.2,1.8,2.6c-0.2,3.7-1.9,29.4-3.1,47.6c-1-0.4-2.4-0.8-4.2-0.9c0.2-0.8,0.4-1.8,0.5-2.8c0.2-2.2-1.8-3.1-1.8-3.1
		s-1.9,0.8-1.8,3c0.1,1,0.3,2,0.5,2.8c-1.8,0.1-3.1,0.5-4.2,0.9c-0.2-3.9-0.5-8.1-0.7-12.4c-0.1-1.7-0.2-3.3-0.3-5
		c-0.8-14.2-1.5-27.7-1.7-30.3c1-0.4,1.8-1.4,1.8-2.5c0-1.5-1.2-2.7-2.7-2.7c-1.5,0-2.7,1.2-2.7,2.7c0,1.1,0.7,2.1,1.6,2.5
		c-1,7.1-4.3,43.2-5.1,52.1c-0.1,0-0.2,0.1-0.2,0.1c0,0,0,0.1-0.1,0.1c-0.6-9.8-1.4-38-1.6-44c1-0.4,1.8-1.4,1.8-2.5
		c0-1.5-1.2-2.7-2.7-2.7c-1.5,0-2.7,1.2-2.7,2.7c0,1.1,0.6,2,1.6,2.5c-0.7,4.7-3.5,24.6-4.7,37.8c-0.7,7.6-2,26.9-3.2,44.1v-18.8
		h-1.9c0,0.3,0,0.4,0,0.5c0,0.5,0.3,1,0.7,1.2c-0.6,0.2-1.1,0.6-1.3,1.1c-0.3-0.5-0.8-0.9-1.3-1c0.4-0.2,0.7-0.7,0.7-1.2
		c0-0.1,0-0.1,0-0.5h-2.4c0,0.3,0,0.4,0,0.5c0,0.5,0.3,1,0.7,1.2c-0.9,0.3-1.6,1.1-1.6,2.1c0,0.3,0,0.7,0.1,0.7h-6.2
		c0,0-0.7-1.8-1.8-1.8c-1.1,0-1.8,1.8-1.8,1.8H462c0.1,0,0.1-0.5,0.1-0.7c0-1-0.7-1.9-1.6-2.1c0.4-0.2,0.7-0.8,0.7-1.2
		c0-0.1,0-0.1,0-0.5h-2.4c0,0.3,0,0.4,0,0.5c0,0.5,0.3,1,0.7,1.2c-0.6,0.2-1.1,0.6-1.3,1.1c-0.3-0.5-0.8-0.9-1.3-1
		c0.4-0.2,0.7-0.7,0.7-1.2c0-0.1,0-0.1,0-0.5h-2.4c0,0.3,0,0.4,0,0.5c0,0.5,0.3,1,0.7,1.2c-0.9,0.3-1.6,1.1-1.6,2.1
		c0,0.3,0,0.7,0.1,0.7h-0.1v5.7l1-0.2v11.3h-0.6v1.6h-2V310h1v-2h-1v-5h0.6l-3.9-5.4L445,303h1.2v2.3v2.3v0.3h-1v2h1v2.3v13.4h-2.1
		c0-6.5-0.1-13-0.1-19.4c-1.1-4.5-7.2-4.7-8.7-0.6V300h-4v-3h-2v3h-1v-4h-2v4h-2v25.7h-2v-54.9c0,0-23-0.2-35,20c-0.6,0-1.2,0-1.8,0
		c-1.1,0-1.1,1.7,0,1.7c0.3,0,0.5,0,0.8,0c-0.3,0.6-0.6,1.1-0.9,1.7c-0.7,0-1,0.9-0.6,1.3c-0.1,0.2-0.2,0.4-0.2,0.6
		c0,0-0.1-0.1-0.1-0.1c-0.9-0.6-2-0.8-3.2-0.6c-1.4,0.3-2.5,1.2-3.2,2.3c0.1-0.5,0.1-1-0.1-1.5c-0.5,0.6-0.9,1.4-1.1,2.2
		c-0.1,0-0.1,0-0.2,0c0.2-0.9,0.6-1.8,1.2-2.5c-0.2-0.5-0.6-0.8-1-1.2c0.1,0.4,0.2,0.8,0.2,1.3c0-0.6-0.3-1.1-0.6-1.6
		c-0.8-0.4-1.7-0.7-2.6-0.8c0.1,0.1,0.2,0.2,0.1,0.3c0,0-0.1,0.1-0.1,0.1c-0.1,0-0.2,0-0.3,0c0.1-0.1,0.2-0.3,0.3-0.4
		c-0.7,0-1.4,0-2,0.2c-0.2,0.1-0.2,0.3-0.1,0.4c0.4,0.4,0.7,0.8,1,1.2c0.3,0.1,0.5,0.2,0.7,0.3c0,0,0.1-0.1,0.1-0.1
		c0.1,0,0.2-0.1,0.3-0.1c-0.1,0.1-0.2,0.2-0.2,0.3c0,0,0,0,0,0c0.2,0.1,0.3,0.2,0.5,0.3c0.1,0,0.2,0,0.2,0c0,0,0,0,0,0.1
		c0.1,0,0.2,0,0.3,0c0,0,0,0.1-0.1,0.2c0.6,0.6,1.1,1.4,1.6,2.2c0,0,0,0,0,0c-0.1,0.1-0.1,0.1-0.2,0.2c-0.4-0.8-1-1.5-1.7-2.1
		c0,0,0,0,0,0c0,0-0.1,0.1-0.1,0.1c-0.5-0.2-1.1-0.4-1.7-0.4c-1.3-0.1-2.6,0.6-3.3,1.7c-0.3,0.5-0.4,1-0.4,1.6
		c0,0.2,0.2,0.2,0.3,0.2c0.1,0,0.1,0.1,0.2,0.1c0,0,0,0.1,0,0.1c0.2,0.1,0.3,0.2,0.5,0.2c0.2,0.1,0.3,0.1,0.4,0.1
		c0.2-0.1,0.5-0.4,0.7-0.7c0,0.1,0,0.3,0,0.4c0,0.1,0.1,0.2,0.2,0.2c0.1,0,0.2-0.1,0.3-0.1c0.3-0.3,0.3-0.3,0.3-0.1
		c0.3-0.1,0.5-0.2,0.7-0.2c0.3-0.1,0.5-0.1,0.8-0.1c0,0,0,0.1,0,0.1c0.6,0,1.1,0.1,1.7,0.3c0,0.1-0.1,0.2-0.1,0.3
		c-0.8-0.2-1.6-0.3-2.4-0.1c-0.1,0-0.3,0.1-0.4,0.1c0.1,0.1,0.2,0,0.3,0.1c0.3,0.1,0.6,0.4,0.9,0.4c0,0,0,0,0,0c0,0,0.1,0,0.1-0.1
		c0,0,0,0,0,0c0.1,0.1,0.1,0.2,0.2,0.2c-0.5,0.1-1,0.2-1.4,0.4c-0.5,0.2-1.4,0.7-1.8,1.4c-0.1-0.4-0.2-0.7-0.4-1
		c-0.1,0.2-0.1,0.4-0.1,0.6c0,0.1-0.1,0.2-0.2,0.2c0,0.1,0,0.2,0,0.3c0,0.2-0.2,0.2-0.3,0.1c0,0-0.1,0-0.1,0c0,0.1,0,0.2,0,0.4
		c0-0.3,0-0.5,0-0.7c0,0,0,0,0,0c0-0.1,0-0.1,0-0.2c0,0,0.1,0,0.1,0c0.1,0.1,0.3,0.1,0.3-0.1c0-0.1,0-0.2,0-0.3
		c0.1,0,0.2-0.1,0.2-0.2c0-0.1,0-0.1,0-0.2c-0.3-0.5-0.6-0.9-1.1-1.2c0.2,0.5,0.4,1,0.4,1.6c0,0-0.1,0-0.1,0c-0.1-0.7-0.4-1.4-0.9-2
		c-0.3-0.2-0.7-0.3-1-0.4c-0.4-0.1-1.8-0.2-2.9-0.1c0-0.1,0-0.1,0-0.2c0.1,0,0.2,0,0.3,0c0,0,0,0,0,0c0,0,0.1,0,0.1,0
		c0.2-0.1,0.4-0.3,0.5-0.4c0.1-0.1,0.2-0.1,0.2-0.2c-0.4,0-0.9,0-1.3,0c-0.4,0.1-1.2,0.2-1.8,0.4c0,0,0-0.1-0.1-0.1
		c-0.1-0.1-0.2-0.1-0.2-0.2c0.1-0.1,0.3-0.2,0.5-0.3c0,0,0.1,0,0.1,0c0.1,0,0.2-0.1,0.4-0.1c0.4-0.1,0.8-0.2,1-0.2
		c0.5-0.1,0.9-0.1,1.4,0c0,0,0,0,0,0c0.1,0,0.2,0,0.3,0.1c0,0,0,0,0,0c0.1,0,0.2,0,0.3,0.1c0.1,0,0.2,0,0.2,0.1c0,0,0,0,0-0.1
		c0.1,0,0.2,0.1,0.3,0.1c0.2,0,0.3-0.2,0.2-0.3c0-0.1,0-0.1,0-0.2c0.3,0.2,0.8,0.4,1.1,0.4c0,0,0.1,0,0.1,0c0,0,0.1,0,0.1,0
		c0.1,0,0.2,0,0.2-0.1c0.1-0.1,0.1-0.2,0.2-0.3c0.1-0.1,0.1-0.2,0.2-0.2c0,0,0,0,0,0c0,0,0,0,0,0c0.1-0.1,0.2-0.3,0.3-0.4
		c0.1,0,0.2-0.1,0.1-0.2c0-0.1-0.1-0.1-0.1-0.2c-0.2,0.3-0.4,0.7-0.5,1.1c0,0-0.1,0-0.1,0c0.1-0.5,0.2-0.9,0.5-1.3
		c-0.2-0.4-0.5-0.8-0.9-1c-0.1,0.1-0.1,0.1-0.2,0.2c-0.2-0.2-0.3-0.4-0.5-0.6c-1.2-0.6-2.8-0.6-4.2,0c-1.3,0.6-2.4,1.6-3,2.9
		c-0.1,0.3-0.3,0.8-0.4,1.3c0.1,0,0.3,0.1,0.4,0.1c0.1,0,0.1,0.1,0.2,0.1c0,0.2,0,0.3,0,0.5c-0.2-0.1-0.3-0.3-0.6-0.3c0,0,0,0,0,0
		c0,0,0,0.1,0,0.1c0,0,0,0-0.1-0.1c-0.2,0-0.4,0-0.6,0.2c0,0-0.1,0.1-0.1,0.2c-0.1-0.2-0.1-0.4,0.1-0.6c0,0,0.1,0,0.1-0.1
		c0,0,0,0,0,0c0,0,0.1-0.1,0.2-0.1c-0.1-0.1-0.2-0.2-0.3-0.3c0,0,0,0-0.1,0c-0.1-0.1-0.2-0.2-0.3-0.3c-1.2-0.9-2.9-1.3-4.4-1
		c-2.6,0.4-3.7,2.7-3.2,5.1c0,0.1,0.1,0.1,0.1,0.1c0.1,0.1,0.2,0.1,0.3,0.1c0,0.1,0,0.1,0,0.2c0,0,0,0,0,0.1
		c0.2-0.1,0.6-0.2,0.9-0.4c0.3-0.1,0.6-0.2,0.7-0.2c0.1,0,0.2-0.2,0.2-0.3c0-0.2-0.1-0.4-0.1-0.5c0.1,0.2,0.2,0.3,0.3,0.5
		c0,0.1,0.2,0.1,0.3,0.1c0.3-0.1,0.2-0.2,0.4-0.3c0.3-0.2,0.2-0.3,0.2-0.3c0,0,0.1,0,0.4,0c0.2,0,0.3,0,0.5,0c0.1,0,0.3,0.1,0.3,0.1
		c0.3,0,0.7,0,1,0c0.1,0,0.3,0,0.4,0c0.6-0.7,1.3-1.2,2.1-1.3c0.1,0.1,0.2,0.2,0.3,0.2c0,0,0,0,0,0c0,0.1,0,0.2,0,0.3
		c-0.1,0-0.2,0-0.2,0c-0.6,0-1.1,0.4-1.6,0.8c0.6,0,1.2,0,1.8,0.1c0,0,0-0.1,0-0.1c0,0,0.1,0,0.1,0c0,0,0,0,0,0c0-0.1,0-0.1-0.1-0.2
		c0-0.1,0-0.2,0-0.3c0,0.2,0.1,0.3,0.2,0.4c0,0.1-0.1,0.1-0.1,0.2c0,0,0,0,0,0.1c-1.6,0.2-3,2.2-3.5,3.6c-0.6,1.7-0.5,4.3,1.3,5.1
		c0.1,0.1,0.3,0.2,0.5,0.3c0,0,0,0,0,0c0.2-0.3,0.5-0.6,0.6-0.9c0.2-0.2,0.4-0.5,0.6-0.7c0.1-0.1,0.1-0.2,0-0.2
		c-0.3-0.2-0.5-0.5-0.8-0.7c0.1,0,0.2,0.1,0.4,0.1c0,0-0.1-0.1-0.1-0.1c0.2,0,0.3,0.1,0.5,0.1c0.2,0,0.2-0.2,0.1-0.3
		c-0.6-0.7,0.3-0.6,0.5-1c0.1-0.2,0-0.4,0-0.6c0.1-0.3,0.3-0.4,0.3-0.7c0-0.2,0-0.4,0-0.7c0.1-0.4,0.3-0.8,0.5-1.1
		c0.8,3,1.8,5.9,2.5,9c0.2,1,0.4,2.1,0.5,3.1c0.2,0,0.3,0,0.5,0.1c0,0,0-0.1,0-0.1c0.1,0,0.2,0.1,0.2,0.1c0,0,0,0.1,0,0.1
		c0.1,0.1,0.3,0.1,0.4,0.2c0.1,0,0.1,0.1,0.2,0.1c0.1,0.1,0.2,0.3,0.3,0.4c0,0,0,0,0,0c0,0,0,0,0,0.1c-0.1,0.1-0.2,0.2-0.3,0.3
		c0-0.1-0.1-0.1-0.1-0.2c-0.1-0.1-0.3-0.3-0.4-0.4c-0.2-0.2-0.5-0.3-0.8-0.4c0.1,0.7,0.2,1.5,0.3,2.2c-0.1,0-0.1,0-0.2,0
		c-0.7-0.1-1.4-0.1-2.2,0c-0.1,0-0.2,0-0.4,0.1c0,0,0.2,0.1,0.4,0.2c0.2,1.5,0.3,3.1,0.4,4.7c0,0.4,0,0.7,0,1.1
		c-0.5,0.1-1,0.3-1.6,0.6c-0.2,0.1-0.5,0.3-0.7,0.4c0,0,5.1,1.4,7.3,2.9h1.2v0.1h12.6h15.2h0h26.3h2h10.9h0.1h2.1h1h2h1h1h1h0.8h2.1
		h6h2.6h10.4h10h8.9h0.5h14.4h12.1h25.5h1.2H571.2z M541.4,330.3 M373.1,309.9c0,0.1-0.1,0.3-0.1,0.4c-0.2,0.1-0.5,0.2-0.7,0.3
		c-0.1,0.4-0.2,0.7-0.3,1.1c0,0,0.1,0.1,0.1,0.1c0,0.1,0.1,0.2,0.1,0.3c0,0.1,0,0.2,0.1,0.4c0,0.1,0.1,0.1,0.2,0
		c0,0.2-0.1,0.3-0.1,0.5c0,0,0,0,0,0c0,0-0.1,0-0.1-0.1c-0.1-0.1-0.1-0.2-0.1-0.4c0-0.1-0.1-0.3-0.2-0.4c0-0.1-0.1-0.1-0.2-0.1
		c-0.2,0.8-0.4,1.5-0.6,2.3c0.1-0.1,0.1-0.2,0.2-0.3c0.2-0.3,0.6-0.5,0.9-0.6c0,0.1,0,0.3,0,0.4c-0.2,0.1-0.5,0.2-0.7,0.4
		c-0.1,0.1-0.3,0.3-0.4,0.5c0,0-0.1,0-0.1,0c0,0.1-0.1,0.3-0.1,0.5c0.1,0,0.2,0.1,0.2,0.1c0.1,0.1,0.2,0.1,0.3,0.2
		c0.1,0.2,0.2,0.3,0.4,0.4c0,0,0,0,0,0c0,0,0,0,0,0.1c-0.1,0-0.2-0.1-0.2,0c0,0-0.1,0.1-0.1,0.1c-0.1-0.1-0.2-0.3-0.3-0.4
		c-0.1-0.1-0.2-0.2-0.3-0.2c-0.2,0.9-0.4,1.8-0.6,2.7c0.1,0,0.2,0,0.2,0.1c0,0,0-0.1,0-0.1c0,0,0,0,0,0c0.1,0.1,0.2,0.1,0.2,0.2
		c0.1,0.1,0.2,0.2,0.3,0.4c0.1,0.1,0.1,0.3,0.2,0.4c-0.1,0-0.2,0.1-0.2,0.1c-0.1-0.1-0.2-0.2-0.3-0.3c-0.1-0.1-0.1-0.1-0.2-0.2
		c-0.1,0-0.1,0-0.1-0.1c-0.1,0-0.2-0.1-0.2-0.1c0,0.2-0.1,0.4-0.1,0.7c-0.1,0.5-0.2,2.7-0.3,4c0,0,0,0.1-0.1,0.1
		c-0.4-0.6-1.1-1.4-2-2.2c-0.5-0.4-1-0.8-1.6-1.1c-0.1-0.5-0.1-0.9-0.2-1.4c-0.6-4.1-1.6-8.1-2.7-12.1c0,0,0,0,0,0
		c0,0.1,0.1,0.2,0.2,0.2l0.3-0.1c0.1,0,0.2,0,0.3,0c-0.1,0.3-0.1,0.5-0.2,0.8c0,0.1,0.1,0.3,0.2,0.2c0.1,0,0.2,0,0.3-0.1
		c0,0,0,0,0,0.1c0.3,0,0.6,0,0.9-0.2c-0.1,0.3-0.3,0.6-0.6,0.8c0,0,0,0,0,0.1c0,0,0.1,0,0.1,0c0,0.1,0,0.2-0.1,0.2
		c0.1,0.2,0.2,0.3,0.4,0.5c0,0,0,0.1,0,0.1c0.1,0.1,0.1,0.1,0.2,0.2c0.3,0,0.5,0,0.7-0.2c-0.1,0.2-0.2,0.4-0.4,0.6
		c0,0,0.1,0.1,0.1,0.1c0,0,0-0.1,0-0.1c0,0,0,0,0,0c0,0,0.1,0,0.1-0.1c0.1,0,0.1,0,0.2-0.1c0.1-0.2,0.3-0.4,0.4-0.6c0,0,0,0,0,0l0,0
		c0.7-1.2,1-2.6,0.7-4c-0.2-0.3-0.5-0.7-0.8-1c0.1,0.1,0.1,0.2,0.2,0.4c0.3,0.7,0.4,1.4,0.3,2c0-0.5-0.1-1-0.3-1.5
		c-0.7-1.7-2.8-3.6-4.7-3.3c-0.1,0.1-0.3,0.1-0.4,0.2c0,0,0,0,0,0.1c0,0.2,0,0.5-0.1,0.7c-0.1-0.1-0.1-0.2-0.1-0.3
		c0.2-0.2,0.3-0.5,0.3-0.8c0,0,0,0,0,0c0.1,0,0.2-0.1,0.4-0.2c0,0,0,0,0,0c0,0,0,0,0.1,0c0.1,0,0.3,0,0.5,0c0,0.1,0,0.1-0.1,0.2
		c0.7-0.1,1.3,0.1,1.9,0.4c0.9,0.5,1.6,1.4,2.1,2.2c0,0,0.1,0,0.1-0.1c0.1-0.1,0.1-0.2,0.2-0.3c-0.3-0.5-0.7-1-1.1-1.4c0,0,0,0,0,0
		c0.1,0,0.1,0,0.2-0.1c0.1-0.2,0.2-0.3,0.3-0.5c0.2,0.3,0.4,0.7,0.5,1c0.1,0.2,0.3,0.2,0.4,0c0.1-0.3,0.2-0.6,0.3-0.9
		c0.1,0.2,0.1,0.5,0.1,0.8c0,0.1,0.1,0.2,0.2,0.2c0.1,0,0.1,0,0.2,0c0,0,0,0.1,0,0.1c0.3,0,0.6,0,0.9,0c-0.1,0.6-0.1,1.2,0.1,1.8
		c0.2,0,0.4,0,0.7,0c-0.1,0.3-0.1,0.7-0.1,1c0,0,0.1,0,0.1,0c0,0,0.1,0,0.1-0.1c0.2,0,0.4-0.1,0.5-0.3c0.3-0.2,0.6-0.4,0.8-0.6
		c0.1-0.1,0.1-0.3,0-0.4c0.1,0.1,0.2,0.3,0.3,0.4c0.1,0.1,0.3,0,0.3-0.1c0.1-0.3,0.2-0.6,0.2-0.9c0,0,0.1,0,0.2-0.1
		c0.5,0,1.1-0.4,1.3-0.8c0.1,0,0.2,0.1,0.2,0.1c0,0,0,0,0,0c0.1,0,0.2,0,0.3-0.1c0.1-0.1,0.2-0.3,0.5-0.4c0.1,0,0.2-0.1,0.3-0.1
		c-0.8,1-1.4,2-1.9,3.2c0,0,0,0,0.1,0c0.2,0,0.3,0,0.5-0.1c0.1-0.1,0.1-0.2,0.1-0.3c0,0,0,0,0,0c0.1,0,0.1,0.1,0.2,0.1c0,0,0,0,0,0
		c0.1-0.1,0.1-0.1,0.2-0.2c-0.1-0.1-0.2-0.1-0.3-0.1c0,0,0,0,0,0c0.1-0.1,0.1-0.3,0.2-0.4c0,0.1,0.1,0.1,0.2,0.1c0,0,0.1,0,0.1-0.1
		c-0.1,0.1-0.1,0.2-0.2,0.3c0.1,0,0.1-0.1,0.2-0.1c0,0,0,0,0,0c0,0,0,0,0,0c0.3-0.1,0.5-0.3,0.8-0.3c0,0,0,0,0,0
		c0.1,0,0.1-0.1,0.2-0.1c0.1,0,0.2-0.1,0.3-0.1c-0.5,0.6-0.9,1.2-1.2,1.8c0,0,0,0,0,0.1c0,0.1-0.1,0.2-0.1,0.3c0,0,0-0.1,0-0.1
		c-0.2,0.3-0.4,0.6-0.5,1c0.1,0,0.2-0.1,0.3-0.1c0,0.1-0.1,0.3-0.1,0.4c-0.1,0-0.2,0.1-0.3,0.1c-0.2,0.4-0.3,0.8-0.5,1.2
		c0,0,0.1,0,0.1,0.1c0,0.1,0.1,0.2,0.1,0.4c0,0,0,0.1,0.1,0.1c0,0.1-0.1,0.2-0.1,0.3c0,0,0,0,0,0c-0.1-0.2-0.1-0.4-0.3-0.5
		c-0.1,0.4-0.3,0.8-0.4,1.2c0,0,0,0,0,0C372.7,310,372.9,309.9,373.1,309.9z M380.3,325.7h-0.7c-2.7-1.6-5.5-0.7-6.4-0.4
		c0-0.3,0-0.7,0-1c1.3-3,5.4-5.3,5.4-5.3c-2.1-0.5-3.9,0.1-5.4,1.1c0.2-5.7,1.2-11.4,4.2-16.4c0,0,0,0,0,0c0,0.1,0.1,0.1,0.2,0.2
		c0,0,0,0.1,0,0.1c0.1,0.4,0.2,0.8,0.1,1.2c0,0,0,0,0-0.1c0,0.1,0,0.1,0,0.2c0,0-0.1,0-0.1,0c0,0.2,0,0.5-0.1,0.8
		c0,0.1,0,0.2,0.1,0.2c0,0,0.1,0.1,0.1,0.1c0.2-0.1,0.3-0.2,0.5-0.4c0,0,0,0,0,0c0-0.1,0-0.1,0-0.2c0,0.1,0,0.1,0,0.2
		c0,0,0.1-0.1,0.1-0.1c0,0,0,0,0,0c0.2,0,0.2,0.3,0.1,0.4c-0.1,0.1-0.2,0.1-0.3,0.2c-0.1,0-0.3,0-0.4-0.1c0.2,0.3,0,0.5,0.1,0.9
		c0,0.1,0.1,0.2,0.2,0.2c0.1,0,0.1,0,0.2,0c0.2-0.1,0.4-0.3,0.5-0.4c0.1,0,0.2,0.2,0.1,0.3c-0.3,0.5-1,0.7-1.1,1c0-0.1,0-0.2,0-0.3
		c0,0,0,0,0,0c-0.1,0.1-0.1,0.3,0.1,0.4c0.2,0.1,0.4,0.1,0.6,0.1c0,0,0,0-0.1,0c0.2,0,0.3,0,0.5,0.1c-0.4,0.2-0.7,0.2-0.9,0.6
		c-0.2,0.5,0.4,1.9,0.5,2.4c0,0.1,0.2,0.2,0.3,0.2c0.1,0,0.2-0.1,0.3-0.2c0.2,0,0.3-0.1,0.5-0.3c0.5-0.4,1-1,1.3-1.6
		C380,316,379.9,321.3,380.3,325.7z M381.5,306.4c-0.1-0.5-0.2-0.9-0.4-1.4c0,0,0.1,0,0.2,0c0.2,0.1,0.4,0.1,0.6,0.1
		C381.7,305.6,381.6,306,381.5,306.4z M382.1,300.3c0,0,0-0.1,0-0.1c0,0,0,0,0,0c0,0,0,0,0,0c0,0,0.1,0,0.1,0
		C382.2,300.2,382.2,300.3,382.1,300.3z M382.9,300.6c-0.1-0.1-0.2-0.2-0.3-0.3c-0.1-0.1-0.2-0.2-0.4-0.3c0,0,0,0,0,0.1
		c-0.2-0.1-0.3-0.2-0.5-0.2c0,0,0-0.1,0-0.1c0,0,0-0.1,0-0.1c0,0,0,0.1,0,0.1c0,0,0,0.1,0,0.1c-1.2-0.5-2.8-0.6-3.7,0.2
		c0,0-0.1-0.1-0.1-0.1c0-0.1,0.1-0.2,0.1-0.3c0.7-0.6,1.9-0.7,2.9-0.5c0,0,0,0,0,0c0.4,0.1,0.8,0.2,1.1,0.4c0,0,0-0.1,0-0.1
		c0,0,0,0.1,0,0.1c0.2,0.1,0.4,0.2,0.5,0.3l0,0c0-0.2-0.1-0.4-0.1-0.5c0.3,0.1,0.4,0.3,0.5,0.2c0.1,0,0.2,0,0.3,0
		C383.2,299.8,383,300.2,382.9,300.6z M383.6,298.6c0-0.1-0.1-0.2-0.1-0.2c0,0,0.1,0.1,0.1,0.1C383.6,298.5,383.6,298.5,383.6,298.6
		z"/>
</g>
</svg>
