<?xml version="1.0" encoding="utf-8"?>
<!-- Generator: Adobe Illustrator 18.1.1, SVG Export Plug-In . SVG Version: 6.00 Build 0)  -->
<svg version="1.1" id="Layer_1" xmlns="http://www.w3.org/2000/svg" xmlns:xlink="http://www.w3.org/1999/xlink" x="0px" y="0px"
	 viewBox="0 0 700 326" enable-background="new 0 0 700 326" xml:space="preserve">
<polygon id="polygon5" stroke="#FFFFFF" stroke-width="0.216" stroke-miterlimit="22.9256" points="0,-2 15.3,-2 0,7.5 "/>
<polygon id="polygon7" fill="#FFFFFF" stroke="#FFFFFF" stroke-width="0.216" stroke-miterlimit="22.9256" points="75.5,-2 
	75.4,30.7 0,11.8 0,7.5 15.3,-2 "/>
<polygon id="polygon9" stroke="#FFFFFF" stroke-width="0.216" stroke-miterlimit="22.9256" points="0,51.5 0,11.8 75.4,30.7 "/>
<polygon id="polygon11" fill="#0F0F0F" stroke="#FFFFFF" stroke-width="0.216" stroke-miterlimit="22.9256" points="242.4,-2
	225.7,-2 245.8,10.6 "/>
<polygon id="polygon13" fill="#FFFFFF" stroke="#FFFFFF" stroke-width="0.216" stroke-miterlimit="22.9256" points="275.4,-2
	245.8,10.6 242.4,-2 "/>
<polygon id="polygon15" fill="#0F0F0F" stroke="#FFFFFF" stroke-width="0.216" stroke-miterlimit="22.9256" points="330.4,-2
	291.4,-2 330.8,10.4 "/>
<polygon id="polygon17" fill="#FFFFFF" stroke="#FFFFFF" stroke-width="0.216" stroke-miterlimit="22.9256" points="283.8,-2
	329.3,82.4 330.8,10.4 291.4,-2 "/>
<polygon id="polygon19" fill="#0F0F0F" stroke="#FFFFFF" stroke-width="0.216" stroke-miterlimit="22.9256" points="283.1,-2
	299.6,55.9 329.3,82.4 283.8,-2 "/>
<polygon id="polygon21" fill="#FFFFFF" stroke="#FFFFFF" stroke-width="0.216" stroke-miterlimit="22.9256" points="280.9,-2
	254.8,55.3 299.6,55.9 283.1,-2 "/>
<polygon id="polygon23" fill="#0F0F0F" stroke="#FFFFFF" stroke-width="0.216" stroke-miterlimit="22.9256" points="254.8,55.3
	280.9,-2 275.4,-2 245.8,10.6 "/>
<polygon id="polygon25" fill="#0F0F0F" stroke="#FFFFFF" stroke-width="0.216" stroke-miterlimit="22.9256" points="165.4,-2
	165.6,30.7 245.8,10.6 225.7,-2 "/>
<polygon id="polygon27" fill="#FFFFFF" stroke="#FFFFFF" stroke-width="0.216" stroke-miterlimit="22.9256" points="254.8,55.3
	245.8,10.6 165.6,30.7 "/>
<polygon id="polygon29" fill="#FFFFFF" stroke="#FFFFFF" stroke-width="0.216" stroke-miterlimit="22.9256" points="71.7,99.6
	54.5,64.8 75.4,30.7 "/>
<polygon id="polygon31" fill="#0F0F0F" stroke="#FFFFFF" stroke-width="0.216" stroke-miterlimit="22.9256" points="0,62.4 0,57.2
	54.5,64.8 71.7,99.6 "/>
<polygon id="polygon33" stroke="#FFFFFF" stroke-width="0.216" stroke-miterlimit="22.9256" points="91.3,145.7 73.5,65.1
	71.7,99.6 "/>
<polygon id="polygon35" fill="#0F0F0F" stroke="#FFFFFF" stroke-width="0.216" stroke-miterlimit="22.9256" points="135.8,176.2
	135.8,55.9 91.3,145.7 "/>
<polygon id="polygon37" fill="#0F0F0F" stroke="#FFFFFF" stroke-width="0.216" stroke-miterlimit="22.9256" points="28.2,131.2
	71.7,99.6 91.3,145.7 "/>
<polygon id="polygon39" fill="#FFFFFF" stroke="#FFFFFF" stroke-width="0.216" stroke-miterlimit="22.9256" points="0,80.2 0,62.4
	71.7,99.6 28.2,131.2 "/>
<polygon id="polygon41" fill="#0F0F0F" stroke="#FFFFFF" stroke-width="0.216" stroke-miterlimit="22.9256" points="0,106.7 0,80.2
	28.2,131.2 "/>
<polygon id="polygon43" stroke="#FFFFFF" stroke-width="0.216" stroke-miterlimit="22.9256" points="0,150.7 0,106.7 28.2,131.2 "/>
<polygon id="polygon45" fill="#FFFFFF" stroke="#FFFFFF" stroke-width="0.216" stroke-miterlimit="22.9256" points="0,187.8
	52.3,220.6 28.2,131.2 0,150.7 "/>
<polygon id="polygon47" fill="#0F0F0F" stroke="#FFFFFF" stroke-width="0.216" stroke-miterlimit="22.9256" points="88.7,205
	52.3,220.6 28.2,131.2 "/>
<polygon id="polygon49" fill="#FFFFFF" stroke="#FFFFFF" stroke-width="0.216" stroke-miterlimit="22.9256" points="91.3,145.7
	88.7,205 28.2,131.2 "/>
<polygon id="polygon51" fill="#0F0F0F" stroke="#FFFFFF" stroke-width="0.216" stroke-miterlimit="22.9256" points="135.8,176.2
	91.3,145.7 88.7,205 "/>
<polygon id="polygon53" fill="#FFFFFF" stroke="#FFFFFF" stroke-width="0.216" stroke-miterlimit="22.9256" points="131.1,218.5
	135.8,176.2 88.7,205 "/>
<polygon id="polygon55" fill="#0F0F0F" stroke="#FFFFFF" stroke-width="0.216" stroke-miterlimit="22.9256" points="135.8,292.4
	131.1,218.5 88.7,205 "/>
<polygon id="polygon57" fill="#FFFFFF" stroke="#FFFFFF" stroke-width="0.216" stroke-miterlimit="22.9256" points="106,265.9
	135.8,292.4 88.7,205 "/>
<polygon id="polygon59" stroke="#FFFFFF" stroke-width="0.216" stroke-miterlimit="22.9256" points="61.3,265.3 106,265.9 88.7,205
	"/>
<polygon id="polygon61" fill="#FFFFFF" stroke="#FFFFFF" stroke-width="0.216" stroke-miterlimit="22.9256" points="61.3,265.3
	88.7,205 52.3,220.6 "/>
<polygon id="polygon63" fill="#0F0F0F" stroke="#FFFFFF" stroke-width="0.216" stroke-miterlimit="22.9256" points="0,233.7
	52.3,220.6 0,187.8 "/>
<polygon id="polygon65" fill="#FFFFFF" stroke="#FFFFFF" stroke-width="0.216" stroke-miterlimit="22.9256" points="0,248.4
	61.3,265.3 52.3,220.6 0,233.7 "/>
<polygon id="polygon67" fill="#FFFFFF" stroke="#FFFFFF" stroke-width="0.216" stroke-miterlimit="22.9256" points="199.9,99.6
	194.7,55.6 135.8,55.9 "/>
<polygon id="polygon69" fill="#0F0F0F" stroke="#FFFFFF" stroke-width="0.216" stroke-miterlimit="22.9256" points="254.8,55.3
	194.7,55.6 199.9,99.6 "/>
<polygon id="polygon71" fill="#0F0F0F" stroke="#FFFFFF" stroke-width="0.216" stroke-miterlimit="22.9256" points="180.3,145.7
	135.8,55.9 199.9,99.6 "/>
<polygon id="polygon73" fill="#FFFFFF" stroke="#FFFFFF" stroke-width="0.216" stroke-miterlimit="22.9256" points="135.8,176.2
	135.8,55.9 180.3,145.7 "/>
<polygon id="polygon75" fill="#0F0F0F" stroke="#FFFFFF" stroke-width="0.216" stroke-miterlimit="22.9256" points="243.4,131.2
	199.9,99.6 180.3,145.7 "/>
<polygon id="polygon77" fill="#FFFFFF" stroke="#FFFFFF" stroke-width="0.216" stroke-miterlimit="22.9256" points="254.8,55.3
	199.9,99.6 243.4,131.2 "/>
<polygon id="polygon79" fill="#0F0F0F" stroke="#FFFFFF" stroke-width="0.216" stroke-miterlimit="22.9256" points="299.6,55.9
	254.8,55.3 243.4,131.2 "/>
<polygon id="polygon81" fill="#FFFFFF" stroke="#FFFFFF" stroke-width="0.216" stroke-miterlimit="22.9256" points="299.9,170.2
	299.6,55.9 243.4,131.2 "/>
<polygon id="polygon83" stroke="#FFFFFF" stroke-width="0.216" stroke-miterlimit="22.9256" points="329.3,82.4 299.6,55.9
	299.9,170.2 "/>
<polygon id="polygon85" fill="#0F0F0F" stroke="#FFFFFF" stroke-width="0.216" stroke-miterlimit="22.9256" points="219.3,220.6
	243.4,131.2 299.9,170.2 "/>
<polygon id="polygon87" stroke="#FFFFFF" stroke-width="0.216" stroke-miterlimit="22.9256" points="182.9,205 219.3,220.6
	243.4,131.2 "/>
<polygon id="polygon89" fill="#FFFFFF" stroke="#FFFFFF" stroke-width="0.216" stroke-miterlimit="22.9256" points="180.3,145.7
	182.9,205 243.4,131.2 "/>
<polygon id="polygon91" fill="#0F0F0F" stroke="#FFFFFF" stroke-width="0.216" stroke-miterlimit="22.9256" points="135.8,176.2
	180.3,145.7 182.9,205 "/>
<polygon id="polygon93" stroke="#FFFFFF" stroke-width="0.216" stroke-miterlimit="22.9256" points="131.1,218.5 135.8,176.2
	182.9,205 "/>
<polygon id="polygon95" fill="#FFFFFF" stroke="#FFFFFF" stroke-width="0.216" stroke-miterlimit="22.9256" points="135.8,292.4
	131.1,218.5 182.9,205 "/>
<polygon id="polygon97" fill="#0F0F0F" stroke="#FFFFFF" stroke-width="0.216" stroke-miterlimit="22.9256" points="165.6,265.9
	135.8,292.4 182.9,205 "/>
<polygon id="polygon99" fill="#FFFFFF" stroke="#FFFFFF" stroke-width="0.216" stroke-miterlimit="22.9256" points="210.4,265.3
	165.6,265.9 182.9,205 "/>
<polygon id="polygon101" fill="#0F0F0F" stroke="#FFFFFF" stroke-width="0.216" stroke-miterlimit="22.9256" points="210.4,265.3
	182.9,205 219.3,220.6 "/>
<polygon id="polygon103" fill="#FFFFFF" stroke="#FFFFFF" stroke-width="0.216" stroke-miterlimit="22.9256" points="299.5,240.7
	219.3,220.6 299.9,170.2 "/>
<polygon id="polygon105" stroke="#FFFFFF" stroke-width="0.216" stroke-miterlimit="22.9256" points="210.4,265.3 219.3,220.6
	299.5,240.7 "/>
<polygon id="polygon107" fill="#0F0F0F" stroke="#FFFFFF" stroke-width="0.216" stroke-miterlimit="22.9256" points="75.4,30.7
	75.5,-2 94.3,-2 100.6,10.9 "/>
<polygon id="polygon109" fill="#0F0F0F" stroke="#FFFFFF" stroke-width="0.216" stroke-miterlimit="22.9256" points="165.4,-2
	165.6,30.7 113,1.2 117.1,-2 "/>
<polygon id="polygon111" fill="#FFFFFF" stroke="#FFFFFF" stroke-width="0.216" stroke-miterlimit="22.9256" points="75.4,30.7
	113,1.2 165.6,30.7 "/>
<polygon id="polygon113" fill="#0F0F0F" stroke="#FFFFFF" stroke-width="0.216" stroke-miterlimit="22.9256" points="94.3,-2
	116.9,-2 100.5,10.8 "/>
<polygon id="polygon115" fill="#FFFFFF" stroke="#FFFFFF" stroke-width="0.216" stroke-miterlimit="22.9256" points="54.5,64.8
	0,57.2 0,51.5 75.4,30.7 "/>
<polygon id="polygon117" stroke="#FFFFFF" stroke-width="0.216" stroke-miterlimit="22.9256" points="73.5,66.4 135.8,55.9
	75.4,30.7 "/>
<polygon id="polygon119" fill="#FFFFFF" stroke="#FFFFFF" stroke-width="0.216" stroke-miterlimit="22.9256" points="73.8,66.4
	135.8,55.9 91.3,145.7 "/>
<polygon id="polygon121" fill="#0F0F0F" stroke="#FFFFFF" stroke-width="0.216" stroke-miterlimit="22.9256" points="135.8,55.9
	75.4,30.7 165.6,30.7 "/>
<polygon id="polygon123" stroke="#FFFFFF" stroke-width="0.216" stroke-miterlimit="22.9256" points="254.8,55.3 135.8,55.9
	165.6,30.7 "/>
<polygon id="polygon125" stroke="#FFFFFF" stroke-width="0.216" stroke-miterlimit="22.9256" points="660.1,-2 643.4,-2 663.5,10.6
	"/>
<polygon id="polygon127" fill="#FFFFFF" stroke="#FFFFFF" stroke-width="0.216" stroke-miterlimit="22.9256" points="693,-2
	663.5,10.6 660.1,-2 "/>
<polygon id="polygon129" fill="#FFFFFF" stroke="#FFFFFF" stroke-width="0.216" stroke-miterlimit="22.9256" points="700,55.7
	700,-2 698.6,-2 672.4,55.3 "/>
<polygon id="polygon131" stroke="#FFFFFF" stroke-width="0.216" stroke-miterlimit="22.9256" points="672.4,55.3 698.6,-2 693,-2
	663.5,10.6 "/>
<polygon id="polygon133" fill="#FFFFFF" stroke="#FFFFFF" stroke-width="0.216" stroke-miterlimit="22.9256" points="583.1,-2
	583.2,30.7 663.5,10.6 643.4,-2 "/>
<polygon id="polygon135" fill="#0F0F0F" stroke="#FFFFFF" stroke-width="0.216" stroke-miterlimit="22.9256" points="672.4,55.3
	663.5,10.6 583.2,30.7 "/>
<polygon id="polygon137" fill="#0F0F0F" stroke="#FFFFFF" stroke-width="0.216" stroke-miterlimit="22.9256" points="416.2,-2
	432.9,-2 412.8,10.6 "/>
<polygon id="polygon139" fill="#0F0F0F" stroke="#FFFFFF" stroke-width="0.216" stroke-miterlimit="22.9256" points="383.3,-2
	412.8,10.6 416.2,-2 "/>
<polygon id="polygon141" fill="#0F0F0F" stroke="#FFFFFF" stroke-width="0.216" stroke-miterlimit="22.9256" points="328.3,-2
	367.2,-2 327.9,10.4 "/>
<polygon id="polygon143" fill="#FFFFFF" stroke="#FFFFFF" stroke-width="0.216" stroke-miterlimit="22.9256" points="374.8,-2
	329.3,82.4 327.9,10.4 367.2,-2 "/>
<polygon id="polygon145" fill="#0F0F0F" stroke="#FFFFFF" stroke-width="0.216" stroke-miterlimit="22.9256" points="375.6,-2
	359.1,55.9 329.3,82.4 374.8,-2 "/>
<polygon id="polygon147" fill="#0F0F0F" stroke="#FFFFFF" stroke-width="0.216" stroke-miterlimit="22.9256" points="377.8,-2
	403.9,55.3 359.1,55.9 375.6,-2 "/>
<polygon id="polygon149" fill="#FFFFFF" stroke="#FFFFFF" stroke-width="0.216" stroke-miterlimit="22.9256" points="403.9,55.3
	377.8,-2 383.3,-2 412.8,10.6 "/>
<polygon id="polygon151" fill="#0F0F0F" stroke="#FFFFFF" stroke-width="0.216" stroke-miterlimit="22.9256" points="493.2,-2
	493,30.7 412.8,10.6 432.9,-2 "/>
<polygon id="polygon153" fill="#FFFFFF" stroke="#FFFFFF" stroke-width="0.216" stroke-miterlimit="22.9256" points="403.9,55.3
	412.8,10.6 493,30.7 "/>
<polygon id="polygon155" fill="#0F0F0F" stroke="#FFFFFF" stroke-width="0.216" stroke-miterlimit="22.9256" points="586.9,99.6
	604.2,64.8 583.2,30.7 "/>
<polygon id="polygon157" fill="#0F0F0F" stroke="#FFFFFF" stroke-width="0.216" stroke-miterlimit="22.9256" points="672.4,55.3
	604.2,64.8 586.9,99.6 "/>
<polygon id="polygon159" fill="#0F0F0F" stroke="#FFFFFF" stroke-width="0.216" stroke-miterlimit="22.9256" points="567.3,145.7
	585.1,65.1 586.9,99.6 "/>
<polygon id="polygon161" fill="#0F0F0F" stroke="#FFFFFF" stroke-width="0.216" stroke-miterlimit="22.9256" points="522.8,176.2
	522.8,55.9 567.3,145.7 "/>
<polygon id="polygon163" fill="#0F0F0F" stroke="#FFFFFF" stroke-width="0.216" stroke-miterlimit="22.9256" points="630.4,131.2
	586.9,99.6 567.3,145.7 "/>
<polygon id="polygon165" fill="#FFFFFF" stroke="#FFFFFF" stroke-width="0.216" stroke-miterlimit="22.9256" points="672.4,55.3
	586.9,99.6 630.4,131.2 "/>
<polygon id="polygon167" fill="#0F0F0F" stroke="#FFFFFF" stroke-width="0.216" stroke-miterlimit="22.9256" points="700,70.8
	700,55.7 672.4,55.3 630.4,131.2 "/>
<polygon id="polygon169" fill="#FFFFFF" stroke="#FFFFFF" stroke-width="0.216" stroke-miterlimit="22.9256" points="686.9,170.2
	700,120.7 700,70.8 630.4,131.2 "/>
<polygon id="polygon171" fill="#0F0F0F" stroke="#FFFFFF" stroke-width="0.216" stroke-miterlimit="22.9256" points="700,158.3
	700,120.7 686.9,170.2 "/>
<polygon id="polygon173" fill="#0F0F0F" stroke="#FFFFFF" stroke-width="0.216" stroke-miterlimit="22.9256" points="606.3,220.6
	630.4,131.2 686.9,170.2 "/>
<polygon id="polygon175" stroke="#FFFFFF" stroke-width="0.216" stroke-miterlimit="22.9256" points="569.9,205 606.3,220.6
	630.4,131.2 "/>
<polygon id="polygon177" fill="#FFFFFF" stroke="#FFFFFF" stroke-width="0.216" stroke-miterlimit="22.9256" points="567.3,145.7
	569.9,205 630.4,131.2 "/>
<polygon id="polygon179" fill="#FFFFFF" stroke="#FFFFFF" stroke-width="0.216" stroke-miterlimit="22.9256" points="522.8,176.2
	567.3,145.7 569.9,205 "/>
<polygon id="polygon181" stroke="#FFFFFF" stroke-width="0.216" stroke-miterlimit="22.9256" points="521.4,220.5 522.8,176.2
	569.9,205 "/>
<polygon id="polygon183" stroke="#FFFFFF" stroke-width="0.216" stroke-miterlimit="22.9256" points="597.4,265.3 552.6,265.9
	569.9,205 "/>
<polygon id="polygon185" fill="#0F0F0F" stroke="#FFFFFF" stroke-width="0.216" stroke-miterlimit="22.9256" points="597.4,265.3
	569.9,205 606.3,220.6 "/>
<polygon id="polygon187" fill="#FFFFFF" stroke="#FFFFFF" stroke-width="0.216" stroke-miterlimit="22.9256" points="686.6,240.7
	606.3,220.6 686.9,170.2 "/>
<polygon id="polygon189" stroke="#FFFFFF" stroke-width="0.216" stroke-miterlimit="22.9256" points="597.4,265.3 606.3,220.6
	686.6,240.7 "/>
<polygon id="polygon191" fill="#FFFFFF" stroke="#FFFFFF" stroke-width="0.216" stroke-miterlimit="22.9256" points="458.7,99.6
	463.9,55.6 522.8,55.9 "/>
<polygon id="polygon193" fill="#FFFFFF" stroke="#FFFFFF" stroke-width="0.216" stroke-miterlimit="22.9256" points="403.9,55.3
	463.9,55.6 458.7,99.6 "/>
<polygon id="polygon195" fill="#0F0F0F" stroke="#FFFFFF" stroke-width="0.216" stroke-miterlimit="22.9256" points="478.3,145.7
	522.8,55.9 458.7,99.6 "/>
<polygon id="polygon197" fill="#FFFFFF" stroke="#FFFFFF" stroke-width="0.216" stroke-miterlimit="22.9256" points="522.8,176.2
	522.8,55.9 478.3,145.7 "/>
<polygon id="polygon199" fill="#0F0F0F" stroke="#FFFFFF" stroke-width="0.216" stroke-miterlimit="22.9256" points="415.2,131.2
	458.7,99.6 478.3,145.7 "/>
<polygon id="polygon201" fill="#0F0F0F" stroke="#FFFFFF" stroke-width="0.216" stroke-miterlimit="22.9256" points="403.9,55.3
	458.7,99.6 415.2,131.2 "/>
<polygon id="polygon203" fill="#0F0F0F" stroke="#FFFFFF" stroke-width="0.216" stroke-miterlimit="22.9256" points="359.1,55.9
	403.9,55.3 415.2,131.2 "/>
<polygon id="polygon205" fill="#FFFFFF" stroke="#FFFFFF" stroke-width="0.216" stroke-miterlimit="22.9256" points="358.8,170.2
	359.1,55.9 415.2,131.2 "/>
<polygon id="polygon207" stroke="#FFFFFF" stroke-width="0.216" stroke-miterlimit="22.9256" points="329.3,82.4 359.1,55.9
	358.8,170.2 "/>
<polygon id="polygon209" fill="#0F0F0F" stroke="#FFFFFF" stroke-width="0.216" stroke-miterlimit="22.9256" points="439.3,220.6
	415.2,131.2 358.8,170.2 "/>
<polygon id="polygon211" fill="#FFFFFF" stroke="#FFFFFF" stroke-width="0.216" stroke-miterlimit="22.9256" points="475.7,205
	439.3,220.6 415.2,131.2 "/>
<polygon id="polygon213" fill="#FFFFFF" stroke="#FFFFFF" stroke-width="0.216" stroke-miterlimit="22.9256" points="478.3,145.7
	475.7,205 415.2,131.2 "/>
<polygon id="polygon215" fill="#0F0F0F" stroke="#FFFFFF" stroke-width="0.216" stroke-miterlimit="22.9256" points="522.8,176.2
	478.3,145.7 475.7,205 "/>
<polygon id="polygon217" fill="#FFFFFF" stroke="#FFFFFF" stroke-width="0.216" stroke-miterlimit="22.9256" points="521.4,220.5
	522.8,176.2 475.7,205 "/>
<polygon id="polygon219" fill="#FFFFFF" stroke="#FFFFFF" stroke-width="0.216" stroke-miterlimit="22.9256" points="448.3,265.3
	493.1,265.9 475.7,205 "/>
<polygon id="polygon221" fill="#0F0F0F" stroke="#FFFFFF" stroke-width="0.216" stroke-miterlimit="22.9256" points="448.3,265.3
	475.7,205 439.3,220.6 "/>
<polygon id="polygon223" stroke="#FFFFFF" stroke-width="0.216" stroke-miterlimit="22.9256" points="358.4,241.5 439.3,220.6
	358.8,170.2 "/>
<polygon id="polygon225" fill="#FFFFFF" stroke="#FFFFFF" stroke-width="0.216" stroke-miterlimit="22.9256" points="448.3,265.3
	439.3,220.6 358.4,241.5 "/>
<polygon id="polygon227" fill="#FFFFFF" stroke="#FFFFFF" stroke-width="0.216" stroke-miterlimit="22.9256" points="583.2,30.7
	583.1,-2 564.4,-2 558.1,10.9 "/>
<polygon id="polygon229" fill="#FFFFFF" stroke="#FFFFFF" stroke-width="0.216" stroke-miterlimit="22.9256" points="493.2,-2
	493,30.7 545.6,1.2 541.6,-2 "/>
<polygon id="polygon231" fill="#0F0F0F" stroke="#FFFFFF" stroke-width="0.216" stroke-miterlimit="22.9256" points="583.2,30.7
	545.7,1.2 493,30.7 "/>
<polygon id="polygon233" fill="#0F0F0F" stroke="#FFFFFF" stroke-width="0.216" stroke-miterlimit="22.9256" points="564.4,-2
	541.7,-2 558.1,10.8 "/>
<polygon id="polygon235" fill="#FFFFFF" stroke="#FFFFFF" stroke-width="0.216" stroke-miterlimit="22.9256" points="604.2,64.8
	672.4,55.3 583.2,30.7 "/>
<polygon id="polygon237" stroke="#FFFFFF" stroke-width="0.216" stroke-miterlimit="22.9256" points="585.2,66.4 522.8,55.9
	583.2,30.7 "/>
<polygon id="polygon239" fill="#FFFFFF" stroke="#FFFFFF" stroke-width="0.216" stroke-miterlimit="22.9256" points="584.8,66.4
	522.8,55.9 567.3,145.7 "/>
<polygon id="polygon241" fill="#FFFFFF" stroke="#FFFFFF" stroke-width="0.216" stroke-miterlimit="22.9256" points="522.8,55.9
	583.2,30.7 493,30.7 "/>
<polygon id="polygon243" stroke="#FFFFFF" stroke-width="0.216" stroke-miterlimit="22.9256" points="403.9,55.3 522.8,55.9
	493,30.7 "/>
<polygon id="polygon245" fill="#0F0F0F" stroke="#FFFFFF" stroke-width="0.216" stroke-miterlimit="22.9256" points="700,174.1
	700,158.3 686.9,170.2 "/>
<polygon id="polygon247" stroke="#FFFFFF" stroke-width="0.216" stroke-miterlimit="22.9256" points="700,235.2 700,174.1
	686.9,170.2 686.6,240.7 "/>
<polygon id="polygon249" stroke="#FFFFFF" stroke-width="0.216" stroke-miterlimit="22.9256" points="0,320.3 0,298.8 4.8,308.9 "/>
<polygon id="polygon251" fill="#0F0F0F" stroke="#FFFFFF" stroke-width="0.216" stroke-miterlimit="22.9256" points="0,328.9
	32.2,328.9 4.8,308.9 0,320.3 "/>
<polygon id="polygon253" fill="#FFFFFF" stroke="#FFFFFF" stroke-width="0.216" stroke-miterlimit="22.9256" points="50.3,328.9
	61.3,265.3 4.8,308.9 32.2,328.9 "/>
<polygon id="polygon255" fill="#0F0F0F" stroke="#FFFFFF" stroke-width="0.216" stroke-miterlimit="22.9256" points="85.5,328.9
	61.3,265.3 50.3,328.9 "/>
<polygon id="polygon257" fill="#FFFFFF" stroke="#FFFFFF" stroke-width="0.216" stroke-miterlimit="22.9256" points="137.4,328.9
	61.3,265.3 85.5,328.9 "/>
<polygon id="polygon259" fill="#FFFFFF" stroke="#FFFFFF" stroke-width="0.216" stroke-miterlimit="22.9256" points="302.8,328.9
	326.8,328.9 358.4,265.3 294.3,308.9 "/>
<polygon id="polygon261" stroke="#FFFFFF" stroke-width="0.216" stroke-miterlimit="22.9256" points="358.4,328.9 358.4,265.3
	326.8,328.9 "/>
<polygon id="polygon263" stroke="#FFFFFF" stroke-width="0.216" stroke-miterlimit="22.9256" points="266.9,328.9 294.3,308.9
	302.8,328.9 "/>
<polygon id="polygon265" fill="#0F0F0F" stroke="#FFFFFF" stroke-width="0.216" stroke-miterlimit="22.9256" points="244.5,328.9
	210.4,265.3 294.3,308.9 266.9,328.9 "/>
<polygon id="polygon267" fill="#0F0F0F" stroke="#FFFFFF" stroke-width="0.216" stroke-miterlimit="22.9256" points="181.5,328.9
	165.6,265.9 237.4,328.9 "/>
<polygon id="polygon269" stroke="#FFFFFF" stroke-width="0.216" stroke-miterlimit="22.9256" points="146.6,328.9 135.8,292.4
	160.3,328.9 "/>
<polygon id="polygon271" fill="#0F0F0F" stroke="#FFFFFF" stroke-width="0.216" stroke-miterlimit="22.9256" points="0,298.8
	4.8,308.9 61.3,265.3 0,248.4 "/>
<polygon id="polygon273" stroke="#FFFFFF" stroke-width="0.216" stroke-miterlimit="22.9256" points="137.4,328.9 98.7,296.6
	135.8,292.4 146.6,328.9 "/>
<polygon id="polygon275" fill="#FFFFFF" stroke="#FFFFFF" stroke-width="0.216" stroke-miterlimit="22.9256" points="106,265.9
	61.3,265.3 98.7,296.6 135.8,292.4 "/>
<polygon id="polygon277" fill="#FFFFFF" stroke="#FFFFFF" stroke-width="0.216" stroke-miterlimit="22.9256" points="135.8,292.4
	160.3,328.9 181.5,328.9 165.6,265.9 "/>
<polygon id="polygon279" fill="#FFFFFF" stroke="#FFFFFF" stroke-width="0.216" stroke-miterlimit="22.9256" points="244.5,328.9
	210.4,265.3 165.6,265.9 237.4,328.9 "/>
<polygon id="polygon281" fill="#FFFFFF" stroke="#FFFFFF" stroke-width="0.216" stroke-miterlimit="22.9256" points="299.5,240.7
	210.4,265.3 294.3,308.9 "/>
<polygon id="polygon283" fill="#FFFFFF" stroke="#FFFFFF" stroke-width="0.216" stroke-miterlimit="22.9256" points="358.8,170.2
	329.3,82.4 299.9,170.2 "/>
<polygon id="polygon285" fill="#FFFFFF" stroke="#FFFFFF" stroke-width="0.216" stroke-miterlimit="22.9256" points="358.8,170.2
	299.9,170.2 299.5,240.7 "/>
<polygon id="polygon287" stroke="#FFFFFF" stroke-width="0.216" stroke-miterlimit="22.9256" points="358.4,265.3 294.3,308.9
	299.5,240.7 "/>
<polygon id="polygon289" fill="#0F0F0F" stroke="#FFFFFF" stroke-width="0.216" stroke-miterlimit="22.9256" points="358.7,169.2
	299.2,240.8 358.4,266 "/>
<polygon id="polygon291" fill="#0F0F0F" stroke="#FFFFFF" stroke-width="0.216" stroke-miterlimit="22.9256" points="700,293.9
	700,324 668.5,316.8 "/>
<polygon id="polygon293" fill="#FFFFFF" stroke="#FFFFFF" stroke-width="0.216" stroke-miterlimit="22.9256" points="638.2,254
	700,280.1 700,293.9 668.5,316.8 "/>
<polygon id="polygon295" stroke="#FFFFFF" stroke-width="0.216" stroke-miterlimit="22.9256" points="651,328.9 618.9,328.9
	638.2,254 668.5,316.8 "/>
<polygon id="polygon297" fill="#FFFFFF" stroke="#FFFFFF" stroke-width="0.216" stroke-miterlimit="22.9256" points="618.9,328.9
	582.2,328.9 567.2,315.3 597.4,265.3 638.2,254 "/>
<polygon id="polygon299" fill="#0F0F0F" stroke="#FFFFFF" stroke-width="0.216" stroke-miterlimit="22.9256" points="671.7,328.9
	668.5,316.8 651,328.9 "/>
<polygon id="polygon301" fill="#0F0F0F" stroke="#FFFFFF" stroke-width="0.216" stroke-miterlimit="22.9256" points="678.3,328.9
	671.7,328.9 668.5,316.8 "/>
<polygon id="polygon303" fill="#0F0F0F" stroke="#FFFFFF" stroke-width="0.216" stroke-miterlimit="22.9256" points="700,324
	700,328.9 678.3,328.9 668.5,316.8 "/>
<polygon id="polygon305" fill="#FFFFFF" stroke="#FFFFFF" stroke-width="0.216" stroke-miterlimit="22.9256" points="403.9,328.9
	401.7,328.9 358.4,241.5 422.5,285.2 "/>
<polygon id="polygon307" fill="#0F0F0F" stroke="#FFFFFF" stroke-width="0.216" stroke-miterlimit="22.9256" points="358.4,328.9
	358.4,241.5 401.7,328.9 "/>
<polygon id="polygon309" fill="#0F0F0F" stroke="#FFFFFF" stroke-width="0.216" stroke-miterlimit="22.9256" points="413.4,328.9
	466,316.8 422.5,285.2 403.9,328.9 "/>
<polygon id="polygon311" fill="#FFFFFF" stroke="#FFFFFF" stroke-width="0.216" stroke-miterlimit="22.9256" points="552.2,328.9
	567.2,315.3 552.6,265.9 531.5,328.9 "/>
<polygon id="polygon313" fill="#0F0F0F" stroke="#FFFFFF" stroke-width="0.216" stroke-miterlimit="22.9256" points="462.8,328.9
	466,316.8 483.4,328.9 "/>
<polygon id="polygon315" fill="#0F0F0F" stroke="#FFFFFF" stroke-width="0.216" stroke-miterlimit="22.9256" points="456.1,328.9
	462.8,328.9 466,316.8 "/>
<polygon id="polygon317" fill="#0F0F0F" stroke="#FFFFFF" stroke-width="0.216" stroke-miterlimit="22.9256" points="413.4,328.9
	456.1,328.9 466,316.8 "/>
<polygon id="polygon319" stroke="#FFFFFF" stroke-width="0.216" stroke-miterlimit="22.9256" points="582.2,328.9 567.2,315.3
	552.2,328.9 "/>
<polygon id="polygon321" fill="#0F0F0F" stroke="#FFFFFF" stroke-width="0.216" stroke-miterlimit="22.9256" points="700,235.2
	700,280.1 638.2,254 686.6,240.7 "/>
<polygon id="polygon323" fill="#0F0F0F" stroke="#FFFFFF" stroke-width="0.216" stroke-miterlimit="22.9256" points="597.4,265.3
	552.6,265.9 567.2,315.3 "/>
<polygon id="polygon325" fill="#0F0F0F" stroke="#FFFFFF" stroke-width="0.216" stroke-miterlimit="22.9256" points="493.1,265.9
	475.7,205 521.4,220.5 "/>
<polygon id="polygon327" fill="#FFFFFF" stroke="#FFFFFF" stroke-width="0.216" stroke-miterlimit="22.9256" points="569.9,205
	552.6,265.9 521.4,220.5 "/>
<polygon id="polygon329" stroke="#FFFFFF" stroke-width="0.216" stroke-miterlimit="22.9256" points="448.3,265.3 358.4,241.5
	422.5,285.2 "/>
<polygon id="polygon331" fill="#FFFFFF" stroke="#FFFFFF" stroke-width="0.216" stroke-miterlimit="22.9256" points="466,316.8
	448.3,265.3 422.5,285.2 "/>
<polygon id="polygon333" fill="#0F0F0F" stroke="#FFFFFF" stroke-width="0.216" stroke-miterlimit="22.9256" points="493.1,265.9
	448.3,265.3 466,316.8 "/>
<polygon id="polygon335" fill="#0F0F0F" stroke="#FFFFFF" stroke-width="0.216" stroke-miterlimit="22.9256" points="519.1,328.9
	516.3,306.2 466,316.8 483.4,328.9 "/>
<polygon id="polygon337" fill="#FFFFFF" stroke="#FFFFFF" stroke-width="0.216" stroke-miterlimit="22.9256" points="493.1,265.9
	466,316.8 516.3,306.2 "/>
<polygon id="polygon339" fill="#FFFFFF" stroke="#FFFFFF" stroke-width="0.216" stroke-miterlimit="22.9256" points="521.4,220.5
	493.1,265.9 516.3,306.2 "/>
<polygon id="polygon341" fill="#0F0F0F" stroke="#FFFFFF" stroke-width="0.216" stroke-miterlimit="22.9256" points="552.6,265.9
	531.5,328.9 519.1,328.9 516.3,306.2 "/>
<polygon id="polygon343" stroke="#FFFFFF" stroke-width="0.216" stroke-miterlimit="22.9256" points="521.4,220.5 516.3,306.2
	552.6,265.9 "/>
</svg>
