<?xml version="1.0" encoding="utf-8"?>
<!-- Generator: Adobe Illustrator 19.0.0, SVG Export Plug-In . SVG Version: 6.00 Build 0)  -->
<svg version="1.1" id="Layer_1" xmlns="http://www.w3.org/2000/svg" xmlns:xlink="http://www.w3.org/1999/xlink" x="0px" y="0px"
	 viewBox="0 0 1190.6 841.9" style="enable-background:new 0 0 1190.6 841.9;" xml:space="preserve">
<style type="text/css">
	.st0{fill:#231F20;}
</style>
<g id="XMLID_1_">
	<path id="XMLID_231_" class="st0" d="M596.1,248.8L447,334.9v172.2l149.1,86.1l149.1-86.1V334.9L596.1,248.8z M727.2,338.4H465
		l131.1-75.7L727.2,338.4z M482.2,486.8c0.1,0,0.2,0,0.3,0.1C482.4,486.8,482.3,486.8,482.2,486.8
		C482.2,486.8,482.2,486.8,482.2,486.8z M483.6,486.6c0-0.1,0-0.1,0-0.2c0.3,0.2,0.8,0.4,1.1,0.4c0,0,0.1,0,0.1,0c0,0,0.1,0,0.1,0
		c0.1,0,0.2,0,0.2-0.1c0.1-0.1,0.1-0.2,0.2-0.3c0.1-0.1,0.1-0.2,0.2-0.2c0,0,0,0,0,0c0,0,0,0,0,0c0.1-0.1,0.2-0.3,0.3-0.4
		c0.1,0,0.2-0.1,0.1-0.2c0-0.1-0.1-0.1-0.1-0.2c0.8-1,2.1-1.5,3.5-1.1c0.6,0.2,1.1,0.5,1.6,0.9c0,0,0,0,0,0c0,0-0.1,0.1-0.1,0.1
		c-0.5-0.2-1.1-0.4-1.7-0.4c-1.3-0.1-2.6,0.6-3.3,1.7c-0.3,0.5-0.4,1-0.4,1.6c0,0.2,0.2,0.2,0.3,0.2c0.1,0,0.1,0.1,0.2,0.1
		c0,0,0,0.1,0,0.1c0.2,0.1,0.3,0.2,0.5,0.2c0.2,0.1,0.3,0.1,0.4,0.1c0.2-0.1,0.5-0.4,0.7-0.7c0,0.1,0,0.3,0,0.4
		c0,0.1,0.1,0.2,0.2,0.2c-0.6,0.3-1.2,0.8-1.3,1.4c-0.3-0.5-0.6-0.9-1.1-1.2c-0.4-0.9-1.1-1.7-2.2-2c0,0,0,0-0.1,0c0,0,0,0,0-0.1
		c0.1,0,0.2,0.1,0.3,0.1C483.5,487,483.6,486.8,483.6,486.6z M491,484.6C491,484.6,490.9,484.6,491,484.6c0,0.1,0.1,0.1,0.2,0.1
		c0,0,0,0.1-0.1,0.2c-0.1-0.1-0.2-0.2-0.3-0.3C490.8,484.6,490.9,484.6,491,484.6z M507.7,524.4l7-9.4L507.7,524.4L507.7,524.4z
		 M483.1,487.5c0.7,0.2,1.3,0.7,1.7,1.2c-0.3-0.2-0.7-0.3-1-0.4c-0.4-0.1-1.8-0.2-2.9-0.1c0-0.1,0-0.1,0-0.2c0.1,0,0.2,0,0.3,0
		c0,0,0,0,0,0c0,0,0.1,0,0.1,0c0.2-0.1,0.4-0.3,0.5-0.4c0.1-0.1,0.2-0.1,0.2-0.2C482.4,487.3,482.8,487.4,483.1,487.5z M499.9,489.1
		c-0.3-0.2-0.7-0.3-1.1-0.4c0,0,0-0.1,0-0.1c0-0.1,0-0.1,0-0.2c0,0,0,0,0,0c0,0,0,0,0,0c0.1,0,0.1,0,0.2-0.1
		c0.3,0.1,0.5,0.3,0.7,0.5c0.2,0.1,0.3,0.3,0.4,0.4C500,489.2,499.9,489.2,499.9,489.1z M498.3,488.6
		C498.3,488.6,498.3,488.6,498.3,488.6C498.3,488.6,498.3,488.6,498.3,488.6C498.3,488.6,498.3,488.6,498.3,488.6z M495.8,491.5
		c0,0-0.1,0-0.1,0c0-0.1,0.1-0.2,0.1-0.3c0,0,0,0,0,0C495.8,491.3,495.8,491.4,495.8,491.5z M494.8,494.2c0-0.1,0-0.1,0-0.2
		C494.9,494.1,494.9,494.2,494.8,494.2C494.9,494.2,494.9,494.2,494.8,494.2C494.9,494.2,494.8,494.2,494.8,494.2z M495.1,495.1
		c0,0.1,0,0.1,0,0.2c-0.1,0-0.1,0-0.1,0C495,495.2,495.1,495.1,495.1,495.1z M498.7,487.7C498.7,487.7,498.7,487.7,498.7,487.7
		C498.7,487.7,498.7,487.7,498.7,487.7C498.7,487.7,498.7,487.7,498.7,487.7z M494.4,486.5c0-0.1,0-0.2,0-0.3c0,0,0.1,0.1,0.1,0.1
		C494.5,486.4,494.4,486.5,494.4,486.5z M493.1,489.9C493.1,489.9,493.1,489.9,493.1,489.9C493.1,489.9,493.1,489.8,493.1,489.9
		C493.1,489.9,493.1,489.9,493.1,489.9z M490.9,494c0-0.1-0.1-0.2-0.1-0.2c-0.2-0.1-0.3-0.3-0.5-0.3c0,0,0,0,0,0
		c0-0.1,0.1-0.1,0.1-0.2c0.1-0.1,0.1-0.1,0.2-0.2c0,0,0,0,0,0c0,0,0,0,0.1,0c0.2-0.1,0.5-0.3,0.8-0.3c0,0,0,0,0,0
		c0-0.1,0.1-0.2,0.1-0.3c0.1,0,0.1-0.1,0.2-0.1c0.1,0,0.2-0.1,0.3-0.1C491.7,492.8,491.3,493.4,490.9,494z M480.3,488.2
		c0-0.1,0-0.2,0.1-0.2c0,0.1,0.1,0.1,0.1,0.2C480.4,488.2,480.4,488.2,480.3,488.2C480.3,488.2,480.3,488.2,480.3,488.2z M482,496.8
		c0,0.1,0,0.2-0.1,0.3c0,0-0.1,0-0.1,0c0-0.1,0.1-0.3,0.1-0.5C482,496.7,482,496.7,482,496.8z M481.6,496.6c0,0.1,0,0.2-0.1,0.2
		c0,0,0-0.1-0.1-0.1c0,0,0-0.1,0-0.2C481.5,496.6,481.5,496.6,481.6,496.6z M482.8,497.4c-0.1,0.2-0.2,0.4-0.4,0.6c0,0,0,0,0,0
		c0,0-0.1-0.1-0.1-0.1c0-0.1-0.1-0.1-0.1-0.2c0,0-0.1-0.1-0.1-0.1C482.3,497.6,482.6,497.6,482.8,497.4z M483.3,497.3
		C483.3,497.3,483.3,497.3,483.3,497.3C483.3,497.3,483.3,497.3,483.3,497.3C483.3,497.3,483.3,497.3,483.3,497.3z M483.2,492.3
		c0,0,0-0.1-0.1-0.1c0,0,0.1,0,0.1-0.1c0.1-0.1,0.1-0.2,0.2-0.3c0.1,0.1,0.1,0.2,0.2,0.3c0.2,0.4,0.3,0.8,0.4,1.2
		C483.8,493,483.5,492.6,483.2,492.3z M477.8,490.4C477.8,490.4,477.8,490.4,477.8,490.4C477.8,490.4,477.8,490.4,477.8,490.4
		C477.8,490.4,477.8,490.4,477.8,490.4z M479.8,490.8c0.1-0.1,0.1-0.2,0.2-0.3c0,0.1,0,0.2,0,0.3
		C479.9,490.8,479.9,490.8,479.8,490.8z M486.2,492.9c-0.1,0.3-0.1,0.7-0.1,1c-0.1,0-0.1,0-0.2-0.1c-0.2-0.3-0.3-0.6-0.4-0.9
		C485.8,492.9,486,492.9,486.2,492.9z M490.8,492.7C490.8,492.7,490.8,492.7,490.8,492.7C490.8,492.7,490.8,492.7,490.8,492.7
		C490.8,492.7,490.8,492.7,490.8,492.7z M488.6,489c0.1,0.1,0.2,0,0.3,0.1c0.3,0.1,0.6,0.4,0.9,0.4c0,0,0,0,0,0c0,0,0.1,0,0.1-0.1
		c0,0,0,0,0,0c0.1,0.1,0.1,0.2,0.2,0.2c-0.5,0.1-1,0.2-1.4,0.4c-0.5,0.2-1.4,0.7-1.8,1.4c-0.1-0.4-0.2-0.7-0.4-1
		C486.8,489.7,487.9,489.2,488.6,489z M488,488.7c0.3-0.3,0.3-0.3,0.3-0.1C488.2,488.6,488.1,488.7,488,488.7z M486.2,505.7
		c0.5-3.1,1.3-6.2,2.2-9.1c0.2-0.7,0.4-1.3,0.7-2c0,0,0,0,0,0c0,0,0-0.1,0-0.1c0.1-0.3,0.2-0.6,0.4-0.9c0,0,0,0,0.1,0
		c0.2,0,0.3,0,0.5-0.1c-0.3,0.6-0.5,1.2-0.8,1.8c0.1-0.1,0.2-0.2,0.3-0.2c0.2-0.5,0.4-0.9,0.6-1.4c0,0,0,0,0,0
		c0.2,0.1,0.4,0.3,0.5,0.4c0,0.1,0.1,0.1,0.1,0.2c-0.2,0.3-0.4,0.6-0.5,1c-0.4,0.1-0.7,0.3-1,0.5c0-0.1,0.1-0.1,0.1-0.2
		c-0.1,0.1-0.2,0.1-0.3,0.2c0,0,0,0,0,0c0,0.1-0.1,0.2-0.1,0.3c0.1,0,0.2,0.1,0.3,0.1c0.3-0.2,0.5-0.3,0.8-0.5
		c-0.2,0.4-0.3,0.8-0.5,1.2c-0.2-0.2-0.4-0.3-0.6-0.4c0-0.1,0.1-0.1,0.1-0.2c-0.1,0-0.1-0.1-0.2-0.1c-0.3,1-0.6,2.1-0.9,3.1
		c0,0,0,0,0,0c0,0,0.1,0,0.1,0c0,0,0-0.1,0-0.1c0-0.2,0.1-0.4,0.3-0.6c0.2-0.6,0.4-1.2,0.6-1.8c0.2,0.1,0.4,0.2,0.6,0.4c0,0,0,0,0,0
		c-0.1,0.4-0.3,0.8-0.4,1.2c0,0,0,0,0,0c-0.2,0.1-0.3,0.2-0.4,0.3c-0.1,0.1-0.1,0.2-0.2,0.2c-0.1,0.1-0.1,0.2-0.2,0.3c0,0,0,0,0,0.1
		c0.1,0,0.2,0,0.2,0.1c0.1-0.2,0.2-0.4,0.4-0.5c0,0,0,0,0,0c-0.1,0.4-0.2,0.7-0.3,1.1c-0.1-0.1-0.2-0.1-0.4-0.1c0,0,0,0,0-0.1
		c0,0,0-0.1,0.1-0.1c-0.1,0-0.1-0.1-0.2-0.1c0,0.1,0,0.1-0.1,0.2c0,0,0,0.1,0,0.1c0,0-0.1,0-0.1,0c0,0,0,0,0,0
		c0-0.1,0.1-0.2,0.1-0.3c0,0-0.1,0-0.1,0c0,0,0,0,0,0c-0.3,1.1-0.5,2.2-0.8,3.3c0,0,0.1,0,0.1,0c0.2-0.9,0.4-1.9,0.6-2.8
		c0,0,0,0,0,0c0.2,0,0.4,0.2,0.5,0.3c-0.2,0.8-0.4,1.5-0.6,2.3c-0.1,0.1-0.1,0.3-0.2,0.4c0,0,0,0,0.1,0c0,0.1-0.1,0.3-0.1,0.5
		c0,0,0,0-0.1,0c-0.1-0.1-0.3-0.1-0.5-0.2c0-0.1,0-0.1,0-0.2c0,0-0.1,0-0.1,0c0,0.1-0.1,0.3-0.1,0.4c-0.2,0.9-0.4,1.8-0.5,2.6
		c-0.1,0.8-0.3,1.6-0.4,2.5c0,0,0,0,0.1,0c0.1-0.7,0.2-1.3,0.3-2c0-0.2,0.1-0.3,0.1-0.5c0,0,0,0,0,0c0,0,0,0,0,0
		c0.1-0.7,0.3-1.4,0.4-2.1c0-0.1,0.1-0.3,0.1-0.4c0,0,0.1,0,0.1,0c0.1,0,0.2,0.1,0.3,0.1c0,0,0.1,0.1,0.1,0.1
		c-0.2,0.9-0.4,1.8-0.6,2.7c-0.1,0-0.2-0.1-0.3-0.1c-0.1,0-0.2,0.1-0.2,0.1c0,0.1,0,0.1,0.1,0.2c0.1,0,0.2,0.1,0.3,0.1
		c0,0.2-0.1,0.4-0.1,0.7c-0.1,0.6-0.2,1.2-0.3,1.7c-0.3-0.1-0.6-0.2-0.9-0.2C485.9,507.9,486,506.8,486.2,505.7z M488.5,505
		C488.5,505,488.5,505,488.5,505C488.5,505.1,488.5,505.1,488.5,505C488.5,505.1,488.5,505.1,488.5,505
		C488.5,505.1,488.5,505.1,488.5,505C488.5,505,488.5,505,488.5,505z M489.9,511.1c0-0.5,0-0.9,0-1.4c0-6.2,1.1-12.4,4.2-17.7
		c0,0,0,0,0,0c0,0.1,0.1,0.1,0.2,0.2c0,0,0,0.1,0,0.1c0.1,0.4,0.2,0.8,0.1,1.2c0,0-0.1,0.1,0,0.1c0,0,0,0,0,0c0,0.2,0,0.5-0.1,0.8
		c0,0.1,0,0.2,0.1,0.2c0,0,0.1,0.1,0.1,0.1c0,0,0,0-0.1,0.1c0,0,0.1,0,0.1,0c0.2,0.3,0,0.5,0.1,0.9c0,0.1,0.1,0.2,0.2,0.2
		c0.1,0,0.1,0,0.2,0c-0.2,0.2-0.4,0.3-0.5,0.5c0,0,0,0.1,0,0.2c0,0,0,0,0,0c-0.1,0.1-0.1,0.3,0.1,0.4c0.2,0.1,0.4,0.1,0.6,0.1
		c0,0,0,0-0.1,0c0.2,0,0.3,0,0.5,0.1c-0.4,0.2-0.7,0.2-0.9,0.6c-0.2,0.5,0.4,1.9,0.5,2.4c0,0.1,0.2,0.2,0.3,0.2
		c0.1,0,0.2-0.1,0.3-0.2c0.2,0,0.3-0.1,0.5-0.3c1.2-0.9,1.9-2.6,2-3.9c0-0.7-0.2-1.7-0.6-2.5c0,0,0.1,0,0.2,0
		c0.2,0.1,0.4,0.1,0.6,0.1c0.2,0,0.5,0,0.7-0.2c0,0.1,0,0.3,0.1,0.4c0,0.1,0.1,0.2,0.2,0.2c-0.2,1-0.3,1.9-0.5,2.9
		c-0.6,4.6-0.9,8.6-0.8,12.2c-3,0.5-5.2,3-6.2,4.3C491.5,512.7,490.8,511.9,489.9,511.1z M498.1,510.8c0.1,1.4,0.2,2.8,0.4,4.1
		c-2.1-0.1-3.6,0.7-3.6,0.7C495.1,513.7,496.7,512,498.1,510.8z M500.4,489.3c-0.2-0.4-0.5-0.7-0.8-1c-0.1-0.1-0.2-0.2-0.4-0.3
		c0,0,0,0,0,0c0-0.2-0.1-0.4-0.1-0.5c0.3,0.1,0.4,0.3,0.5,0.2c0.2,0,0.4,0,0.5-0.1c0.3-0.3,0-0.7-0.1-1c0.2,0.3,0.5,0.5,0.9,0.7
		C500.8,487.9,500.6,488.6,500.4,489.3z M499.7,487c0-0.2,0-0.3,0-0.4c0,0.3,0,0.4,0,0.5c0,0,0,0,0,0
		C499.7,487.1,499.7,487.1,499.7,487z M497.9,483.7c-1.4,0.3-2.5,1.2-3.2,2.3c0.1-0.5,0.1-1-0.1-1.5c0.8-1,2-1.7,3.5-1.7
		c1.1,0,2.2,0.5,2.9,1.3c0,0.1,0.1,0.1,0.2,0.2C500.2,483.7,499.1,483.5,497.9,483.7z M490.2,484c0.1,0,0.2-0.1,0.3-0.1
		c-0.1,0.1-0.2,0.2-0.2,0.3c0,0,0,0,0,0c-0.1-0.1-0.2-0.1-0.3-0.1C490.1,484.1,490.1,484.1,490.2,484z M482.5,486.8
		c0.1,0,0.2,0,0.3,0.1C482.7,486.9,482.6,486.8,482.5,486.8z M484,513.9c0.5,0,1,0,1.5,0c0-1.1,0-2.2,0.1-3.3
		c0.3,0.2,0.6,0.5,0.8,0.7c-0.1,1.1-0.2,2.3-0.2,3.4c-0.5,0-1.1,0-1.7,0.1l-0.6-0.3C484,514.4,484,514.2,484,513.9z M491.6,519h0.8
		h2.4c1-0.7,2.6-1.3,4-1.8c0.5,2.7,1.2,5,2,7.1l-0.2,0L491.6,519z M574.2,511.8c3.5,0.1,6.7,2.6,6.7,6.8v7.1l-13.4-0.3v-6.9
		C567.5,514.4,570.7,511.9,574.2,511.8z M459,377.5h274.2v90l-1.7,3.9v2v0h-2.6v-8.1v-1.7l-3.3-4.1l-2.8,4.1v9.9h-2.8v-2l-3.3-7.4
		l-2.8,7.3v15.2c-0.5,0.1-1.1,0.3-1.7,0.5c-2.6-7-6.7-17.8-7.9-20.9c-0.4-1-0.3-2.1,0.1-3.3c0,0,0.1,0,0.3,0.1
		c0.2,0,0.5,0.1,0.9,0.2c0.7,0.1,1.7,0.3,2.8,0.3c0.1,1.3,0.2,2.4,0.3,3.2c0.1,0.5,0.1,0.8,0.1,1.1c0,0.3,0.1,0.4,0.1,0.4
		s0-0.1,0.1-0.4c0-0.3,0.1-0.6,0.1-1.1c0.1-0.8,0.2-1.9,0.3-3.2c0.5,0,0.9,0,1.4-0.1c0.8-0.1,1.6-0.3,2.4-0.6
		c0.4-0.2,0.8-0.4,1.3-0.7c0.4-0.3,0.8-0.7,1.1-1.2c0.1-0.3,0.3-0.6,0.3-1c0-0.4-0.1-0.7-0.2-1.1c-0.1-0.1-0.1-0.3-0.2-0.4
		c-0.1-0.1-0.2-0.3-0.3-0.4c-0.1-0.1-0.2-0.3-0.3-0.4l-0.2-0.2l0,0l0,0l-0.1,0l0,0l-0.1-0.1l-0.2-0.1c-0.1-0.1-0.2-0.2-0.3-0.2
		c-0.2-0.2-0.4-0.3-0.7-0.4c-0.4-0.2-0.9-0.4-1.3-0.6c-0.7-0.3-1.5-0.5-2.2-0.7c0-0.3,0-0.7,0-1c0-1.1,0-2.1,0-3.2
		c0-1.1,0-2.2,0-3.2c0-1.1,0-2.1-0.1-3.1c-0.1-2-0.2-3.9-0.3-5.5c-0.1-1.6-0.3-3-0.4-3.9c-0.1-0.5-0.1-0.8-0.1-1.1
		c0-0.3-0.1-0.4-0.1-0.4s0,0.1-0.1,0.4c0,0.3-0.1,0.6-0.1,1.1c-0.1,0.9-0.3,2.3-0.4,3.9c-0.1,1.6-0.2,3.5-0.3,5.5
		c0,1-0.1,2.1-0.1,3.1c0,1.1,0,2.1,0,3.2c0,1.1,0,2.2,0,3.2c0,0.2,0,0.4,0,0.6c-1.1-0.2-2.2-0.4-3.1-0.5c-1.3-0.2-2.4-0.2-3.2-0.3
		c-0.4,0-0.7,0-0.9,0c-0.2,0-0.3,0-0.3,0l0,0c-0.1,0-0.3,0-0.4,0c-1.3,0.2-2.2,1.4-2,2.7c0.2,1.3,1.4,2.2,2.7,2c0,0,0.1,0,0.3,0
		c0.2,0,0.5-0.1,0.8-0.1c0.5-0.1,1.1-0.1,1.9-0.2c-1.4,1.6-3.9,4.8-3.1,7.3c0.8,2.4,5,15.1,7.4,22.4c-2.9,0.4-5.7,1.3-8.4,2.8
		c-0.4,0.2-0.8,0.4-1.1,0.7l-0.1-3.8c2.6-0.3,4.5-2.5,4.5-5.2c0-2.9-2.3-5.2-5.2-5.2c-2.9,0-5.2,2.3-5.2,5.2c0,2.7,2,4.9,4.6,5.2
		v4.7c-2.3,1.6-4.2,3.5-5.7,5.7c-2,2-3.6,4.3-4.8,6.8c-0.1-0.2-0.2-0.4-0.3-0.6c-0.6-11.9-1.6-22.8-3-32c0.7-0.7,1.4-1.4,1.9-2.2
		c0.2-0.3,0.2-0.6,0.1-0.9c0.2-0.3,0-0.6-0.3-0.7c-0.6-0.2-1.3-0.1-1.9,0.1c-0.1,0-0.2,0.1-0.4,0.1c-2.8-16.5-6.8-26.9-11.3-26.9
		c-3.3,0-6.3,5.6-8.9,15.2c-0.2-0.8-0.2-1.5-0.2-2.1c0-0.2-0.3-0.2-0.4,0c-0.4,1.2-0.3,2.5-0.2,3.8c0,0-0.1,0-0.1,0
		c-0.1-0.1-0.1-0.2-0.2-0.3c-0.6-0.9-1.8-0.5-1.9,0.5c-0.1,0.6,0,1.2,0.1,1.7c-0.9-0.7-2-1.1-3.5-0.8c-0.6,0.1-0.6,1,0,1.2
		c2.6,0.7,3.6,1.9,4.2,4.5c0,0.2,0.1,0.4,0.1,0.6c-2.1,11.4-3.6,26.2-4.2,42.8c-0.1,0-0.3,0-0.4,0c-0.4,0-0.7,0.1-0.9,0.4
		c-0.5-0.1-1,0.1-1,0.7c-0.1,0.4-0.1,0.8-0.1,1.2c0,0.1-0.1,0.1-0.1,0.2c0,0.1,0,0.2,0,0.3c-0.2,2.9,0.1,5.8,0.9,8.5
		c-0.3,2.6-0.1,5.2,1.3,7.4c0,0,0,0,0,0l-3.2-0.1c-1.1-19.3-2.9-50.3-3.7-60.4c-1.1-13.2-3.7-33.2-4.3-37.9c0.9-0.4,1.6-1.4,1.6-2.5
		c0-1.5-1.2-2.7-2.7-2.7c-1.5,0-2.7,1.2-2.7,2.7c0,1.2,0.7,2.2,1.8,2.6c-0.2,6.3-1.5,38.2-2.1,45.7c0,0-3.8-46-4.8-54.1
		c1-0.4,1.7-1.4,1.7-2.5c0-1.5-1.2-2.7-2.7-2.7c-1.5,0-2.7,1.2-2.7,2.7c0,1.2,0.7,2.2,1.8,2.6c-0.2,3.7-1.9,29.4-3.1,47.6l-0.2,2.7
		c-0.3,5-0.6,9.2-0.8,12l-2.9-1.5l-3.2,0l-2.9,1.4c-0.2-2.8-0.4-7-0.7-12l-0.2-2.8c-1.1-18.2-2.5-44-2.7-47.7c1-0.4,1.8-1.4,1.8-2.5
		c0-1.5-1.2-2.7-2.7-2.7c-1.5,0-2.7,1.2-2.7,2.7c0,1.1,0.7,2.1,1.6,2.5c-1.1,8.1-5.3,54.1-5.3,54.1c-0.5-7.5-1.5-39.4-1.7-45.7
		c1-0.4,1.8-1.4,1.8-2.5c0-1.5-1.2-2.7-2.7-2.7c-1.5,0-2.7,1.2-2.7,2.7c0,1.1,0.6,2,1.6,2.5c-0.7,4.7-3.5,24.6-4.7,37.8
		c-0.9,10-2.9,40.3-4.2,59.6l-1.2,0v-3.4h0.9v-3.2h-0.9v-15.8l1.4,0.3v-8h-0.2c0.1,0,0.2-0.7,0.2-1c0-1.4-1-2.6-2.3-3
		c0.6-0.3,0.9-1,0.9-1.6c0-0.2,0-0.2-0.1-0.7H592c0,0.5-0.1,0.5-0.1,0.6c0,0.7,0.4,1.4,0.9,1.7c-0.8,0.2-1.5,0.7-1.9,1.4
		c-0.4-0.7-1.1-1.3-1.9-1.5c0.6-0.3,0.9-1,0.9-1.6c0-0.2,0-0.2-0.1-0.7h-3.4c0,0.5-0.1,0.5-0.1,0.7c0,0.7,0.4,1.4,0.9,1.7
		c-1.3,0.4-2.3,1.5-2.3,3c0,0.4,0.1,1,0.2,1h-8.6c0,0-1-2.5-2.5-2.5l0,0.1l0-0.1c-1.6,0-2.5,2.5-2.5,2.5h-8.6c0.1,0,0.2-0.6,0.2-1
		c0-1.4-1-2.6-2.3-3c0.6-0.3,0.9-1,0.9-1.7c0-0.2,0-0.2-0.1-0.7h-3.4c0,0.5-0.1,0.5-0.1,0.7c0,0.7,0.4,1.3,0.9,1.6
		c-0.8,0.2-1.5,0.8-1.9,1.5c-0.4-0.7-1.1-1.2-1.9-1.4c0.6-0.3,0.9-1,0.9-1.7c0-0.2,0-0.2-0.1-0.6h-3.4c0,0.5-0.1,0.5-0.1,0.7
		c0,0.7,0.4,1.3,0.9,1.6c-1.3,0.4-2.3,1.6-2.3,3c0,0.4,0.1,1,0.2,1h-0.2v8l1.4-0.3v15.8h-0.9v3.2h0.9v2.6l-2.6,0v-41.3
		c0.2,0,0.4,0,0.5,0c-0.2-0.2-0.3-0.4-0.2-0.6c0.1-0.2,0.1-0.3,0.1-0.5c0-0.1,0-0.2,0-0.3c0-0.1,0-0.2,0-0.3c0,0,0.1,0,0.1,0
		c-0.1-0.1-0.1-0.2-0.2-0.3c0.1,0,0.2,0,0.3,0c-0.1-0.1-0.1-0.3-0.2-0.3c-0.1-0.1-0.2-0.2-0.2-0.3c0-0.1,0-0.3,0-0.4
		c0.1,0,0.2,0.2,0.3,0.1c0-0.2,0-0.3,0-0.5c0-0.1,0-0.1,0-0.2c0-0.1,0-0.1-0.1-0.2c0.1,0,0.1,0,0.2,0c0.1,0,0.2,0.1,0.3,0.2
		c0.1,0,0.2,0.1,0.2,0c-0.1-0.1-0.1-0.2-0.2-0.3c-0.1-0.2-0.1-0.4-0.4-0.5c0,0-0.1-0.1-0.1-0.1c0-0.1,0.3-0.2,0.4-0.1
		c0.4,0.2,1.1,0.2,1.3-0.3c0,0,0,0,0,0c0.3-0.3,0.4-0.6,0.3-1c0-0.1,0-0.2,0.1-0.3c0.1-0.1,0.1-0.2,0-0.2c0,0,0-0.1-0.1-0.1
		c0.1,0,0.1-0.1,0.2-0.1c0.2,0,0.3-0.1,0.4-0.2c0.1-0.1,0.1-0.2,0-0.3c-0.1-0.1-0.1-0.2,0-0.3c0.1-0.2,0.3-0.4,0.4-0.6
		c-0.1,0-0.2-0.1-0.3-0.1c-0.3-0.1-0.3-0.1-0.2-0.3c0-0.1,0-0.1,0.1-0.2c0-0.1,0.1-0.2,0.1-0.3c0,0,0,0,0,0c0,0,0,0.1-0.1,0.1
		c-0.1,0.1-0.1,0.3-0.2,0.4c-0.1,0.1-0.1,0.1-0.3,0.1c-0.4-0.1-0.7-0.1-1.1-0.2c-0.2-0.1-0.5,0-0.7-0.2c0,0,0,0-0.1,0
		c-0.1,0-0.2-0.1-0.4-0.1c-0.1,0-0.2-0.1-0.2-0.2c0-0.2,0-0.3,0-0.5c0.1-0.3-0.2-0.4-0.2-0.7c0-0.1,0-0.1,0-0.2
		c0.1-0.1,0.1-0.3,0.2-0.4c0,0,0,0,0,0c-0.1,0.1-0.1,0.2-0.2,0.4c0,0.1-0.1,0.1-0.2,0.1c-0.3-0.1-0.3-0.2-0.3-0.5c0,0,0-0.1,0-0.1
		c0-0.3,0.1-0.6,0.1-0.8c0,0,0-0.1,0.1-0.1c0.2,0,0.2-0.2,0.2-0.3c0.2,0.1,0.2,0,0.2-0.2c0-0.1,0-0.1,0-0.2c0-0.2,0-0.3,0.2-0.3
		c0,0,0.1,0,0.1,0c0.3-0.1,0.4-0.3,0.3-0.5c0-0.2-0.1-0.4-0.1-0.6c0.1-0.2,0.1-0.5,0-0.7c0,0,0,0,0-0.1c0.1-0.1,0.1-0.3,0.2-0.4
		c0,0,0-0.1,0-0.1c-0.1-0.2,0-0.2,0.1-0.2c0,0,0.1,0,0.1,0c-0.1-0.2-0.1-0.3,0.2-0.4c0-0.1,0-0.2,0.1-0.3c0.1-0.1,0.2-0.1,0.3-0.1
		c0,0,0-0.1,0-0.1c0-0.1-0.1-0.3-0.3-0.3c0,0-0.1-0.1-0.1-0.1c0.2-0.1,0.3-0.2,0.5-0.2c-0.1-0.4-0.1-0.4-0.5-0.3c0,0,0,0,0,0
		c-0.1,0-0.2,0.2-0.2,0.1c-0.1,0-0.1-0.2-0.2-0.2c0,0,0,0,0,0c0.1,0,0.1,0,0.2-0.1c0.1-0.1,0.1-0.2,0.2-0.3c0.1-0.1,0.1-0.4,0-0.6
		c-0.1-0.2-0.3-0.3-0.5-0.5c0-0.1-0.1-0.1-0.1-0.2c0-0.2-0.2-0.4-0.1-0.6c0,0,0,0,0-0.1c0-0.1,0-0.1-0.1-0.2c0-0.2-0.1-0.3-0.1-0.5
		c0,0,0,0,0,0c0-0.1-0.1-0.1-0.1-0.2c0-0.2-0.2-0.2-0.2-0.4c0,0,0,0,0,0c-0.1,0-0.1-0.1-0.1-0.2c0,0-0.1-0.1-0.1-0.1
		c-0.2-0.1-0.3-0.2-0.4-0.3c0,0-0.1-0.1-0.2-0.1c-0.2,0-0.3-0.2-0.4-0.2c-0.1,0-0.1-0.1-0.2-0.2c0.1-0.2,0.1-0.5,0.4-0.5
		c0-0.1,0-0.2,0-0.3c0,0,0-0.1,0-0.1c0-0.2-0.1-0.4-0.1-0.6c0-0.3-0.1-0.4-0.3-0.5c-0.1-0.1-0.2-0.2-0.4-0.2
		c-0.3-0.2-0.3-0.3-0.3-0.6c0.1-0.3,0.2-0.6,0.2-0.9c0-0.1,0.1-0.2,0.2-0.2c0.1,0,0.1-0.1,0.2-0.2c0-0.1,0.1-0.2,0.2-0.2
		c0.1,0,0.2,0,0.3,0c0.2,0,0.3,0,0.5,0c0.2,0,0.2-0.1,0.2-0.3c-0.1-1.1-0.3-2.2-0.4-3.4c0-0.1,0-0.2,0-0.2c0,0,0,0,0,0
		c0,0,0.1,0.1,0.1,0.1c0.2,0.2,0.4,0.4,0.6,0.6c0,0,0.1,0.1,0.1,0.1c0.1,0.1,0.3,0.2,0.4,0.3c0.1,0.1,0.2,0.1,0.4,0
		c-0.2-0.3-0.3-0.3-0.2-0.6c0.1,0,0.2,0,0.3-0.1c0-0.1-0.1-0.2-0.1-0.3c0,0,0-0.1,0-0.2c0-0.1,0-0.1,0-0.2c-0.1-0.2-0.2-0.4-0.2-0.7
		c0-0.1,0-0.1,0-0.2c0-0.2,0.1-0.3,0.1-0.4c0.1-0.3-0.1-0.6-0.4-0.8c0,0-0.1-0.1-0.1-0.1c-0.1-0.2-0.2-0.3-0.2-0.5
		c0-0.1-0.1-0.2-0.1-0.3c-0.1,0-0.1-0.1-0.2-0.2c-0.2-0.2-0.4-0.4-0.8-0.4c-0.3,0-0.6-0.2-0.8-0.4c0.1-0.1,0.2-0.2,0.2-0.2
		c0-0.2,0-0.4,0-0.6c0-0.1-0.1-0.2,0-0.4c0.1-0.4-0.3-0.8-0.6-0.8c-0.1,0-0.2-0.1-0.4-0.1c0,0-0.1,0-0.1,0c-0.1,0.2-0.3,0.3-0.4,0.5
		c-0.1,0.2-0.2,0.4-0.2,0.6c0,0,0,0.1,0,0.1c0.1,0.1,0.1,0.3,0.1,0.4c0,0.2,0,0.3,0.2,0.3c0,0,0.1,0.1,0.1,0.1c0,0-0.1,0.1-0.1,0.1
		c-0.1,0-0.1,0-0.2,0c-0.2,0-0.4,0-0.7,0c-0.1,0-0.3,0-0.4,0c-0.2-0.1-0.4-0.1-0.7-0.2c0,0-0.1,0-0.1,0c-0.1,0.1-0.3,0.1-0.4,0
		c0,0-0.1-0.1-0.1-0.1c-0.2,0-0.4-0.1-0.6-0.1c0,0-0.1,0-0.1,0c0,0-0.1,0-0.1,0c-0.4-0.1-0.7-0.2-1.1-0.3c-0.2-0.1-0.3-0.2-0.5-0.1
		c0,0-0.1,0-0.1,0c-0.2-0.1-0.5-0.1-0.8-0.2c-0.2,0-0.3,0-0.5,0c0,0,0,0,0,0.1c0.2,0.1,0.5,0.1,0.7,0.2c-0.1,0.2-0.1,0.3-0.2,0.5
		c0.1,0,0.2,0,0.3,0.1c0.1,0.1,0.2,0.1,0.2,0c0.1-0.1,0.2,0,0.2,0.1c0,0.1,0,0.2,0,0.3c0,0,0,0,0.1,0c0.1-0.1,0.2-0.1,0.2-0.2
		c0.1-0.1,0.1-0.2,0.2,0c0,0,0.1,0,0.1,0c0.1,0,0.2,0,0.3,0c0.3,0.2,0.5,0.3,0.8,0.4c0.1,0,0.1,0.1,0.1,0.2c0,0.6-0.1,1.2-0.1,1.8
		c0,0.1,0,0.2,0.1,0.2c0.2,0.2,0.5,0.3,0.7,0.5c0.3,0.2,0.3,0.3,0.5-0.1c0.1-0.2,0.2-0.4,0.4-0.5c0.1,0.1,0.1,0.1,0.1,0.3
		c0,0.4,0,0.7-0.1,1.1c-0.1,0.6-0.2,1.1-0.2,1.7c-0.1,0.6-0.2,1.3-0.3,1.9c0,0.3,0,0.4,0.4,0.4c0,0,0,0,0.1,0c0.1,0,0.3,0.1,0.3,0.2
		c0.1,0.3,0.1,0.5,0.1,0.8c0,0.2-0.1,0.4-0.2,0.6c-0.1,0.2-0.3,0.3-0.5,0.4c-0.1,0-0.1,0.1-0.1,0.2c0,0.1,0.1,0.2,0.1,0.2
		c0.1,0.1,0.2,0.1,0.3,0.1c-0.4,0.2-0.3,0.6-0.3,0.9c-0.1,0.4,0,0.7,0.3,0.9c-0.1,0.1-0.2,0.1-0.3,0.2c0.1,0.2,0.2,0.4,0.3,0.6
		c0,0,0.1,0.1,0,0.2c-0.1,0.1-0.1,0.2-0.2,0.3c-0.3,0.2-0.5,0.4-0.7,0.7c-0.2,0.3-0.4,0.5-0.6,0.7c-0.1,0.2-0.2,0.4-0.3,0.6
		c0,0,0,0.1,0,0.1c0,0.2,0,0.3-0.2,0.4c0,0-0.1,0.1-0.1,0.1c-0.1,0.2-0.3,0.4-0.2,0.7c0.1,0.3,0.2,0.4,0.4,0.6c0,0,0.1,0.1,0.1,0.1
		c0,0,0,0,0,0c0,0-0.1-0.1-0.2-0.1c-0.2-0.1-0.3-0.1-0.5-0.2c0,0.1-0.1,0.2-0.1,0.3c0.2,0.1,0.3,0.2,0.5,0.3c-0.1,0-0.3,0-0.3,0.1
		c-0.1,0.1-0.1,0.2-0.1,0.3c0.3,0,0.4,0,0.3,0.3c0.2,0.1,0.3,0.2,0.2,0.4c0.2,0,0.3,0.2,0.2,0.4c-0.1,0.3,0,0.5,0.2,0.6
		c0,0,0.1,0.1,0.1,0.2c0,0.2,0,0.4,0.1,0.6c0.1,0.1,0.1,0.2,0.2,0.3c0,0.1,0,0.1,0,0.2c-0.1,0.1-0.1,0.2-0.1,0.3
		c0,0.3,0.2,0.6,0.5,0.6c0,0,0.1,0,0.1,0.1c0,0.1,0.1,0.2,0.2,0.2c0.3,0,0.4,0.3,0.4,0.5c0.1,0.3,0.1,0.6,0.2,0.8
		c0,0.1,0,0.1-0.1,0.2c-0.1,0.1-0.2,0.2-0.3,0.3c-0.1,0.1-0.1,0.2-0.2,0.4c0,0.1-0.1,0.2-0.1,0.3c0,0.1,0,0.2,0,0.3
		c0,0,0,0.1-0.1,0.1c-0.1,0-0.2,0-0.2,0c-0.1-0.1-0.1,0-0.2,0c-0.1,0-0.3,0.1-0.4,0.1c-0.3,0-0.7,0-1,0.1c-0.1,0-0.3,0-0.3-0.2
		c0,0.2-0.1,0.2-0.2,0.2c-0.3,0-0.5,0.1-0.6,0.4c0,0.1-0.1,0.1-0.2,0.2c-0.1,0.2-0.1,0.2,0.1,0.3c0.1,0.1,0.2,0.2,0.3,0.3
		c0.1,0.2,0.2,0.3,0.4,0.4c0.2,0,0.2,0.1,0.2,0.2c0,0.1,0,0.2,0,0.3c0,0.1,0.1,0.1,0.2,0.2c0,0,0,0,0,0.1c-0.3,0.6,0,1.1,0.4,1.5
		c0.3,0.2,0.6,0.2,0.9,0.1c0.1-0.1,0.3-0.1,0.4,0.1c0.1,0.1,0.3,0.2,0.4,0.2c0,0,0.1,0.1,0.1,0.1c-0.1,0.2-0.1,0.4-0.3,0.5
		c0,0,0,0-0.1,0.1c-0.1,0.1-0.1,0.3-0.2,0.4c0,0.1-0.1,0.1-0.1,0.2c0,0.1,0.1,0,0.2,0c0.1-0.1,0.2-0.1,0.2-0.2c0.1,0,0.2,0,0.2,0.1
		c0.1,0.4,0.2,0.7,0.3,1.1c0,0,0,0.1,0,0.1c-0.2,0.1-0.2,0.3-0.2,0.5c0.1,0,0.1,0,0.2,0c0,0.1-0.1,0.2-0.1,0.3
		c0.2-0.1,0.3-0.1,0.3,0.2c0,0.1-0.1,0.2-0.1,0.2c-0.2,0.2-0.2,0.5,0,0.7c0,0,0.1,0.1,0.1,0.1c0.1,0.1,0.2,0.2,0.1,0.3
		c0,0,0,0.1,0,0.1c0.1,0,0.1,0,0.2,0v41.2l-5.4-0.1v-67.2c0,0-23-0.2-35,20c-0.6,0-1.2,0-1.8,0c-1.1,0-1.1,1.7,0,1.7
		c0.3,0,0.5,0,0.8,0c-0.3,0.6-0.6,1.1-0.9,1.7c-0.7,0-1,0.9-0.6,1.3c-0.3,0.7-0.6,1.5-0.9,2.3c-0.1-0.1-0.2-0.2-0.4-0.4
		c0-0.3-0.4-0.7-0.6-1c-0.7-0.8-1.8-1.3-2.9-1.3c-1.5,0-2.8,0.8-3.6,1.9c-0.2-0.5-0.6-0.8-1-1.2c-0.7-1.9-3.3-2.8-5.3-2.2
		c0.1,0.1,0.2,0.3,0.3,0.4c1.7-0.3,3.6,0.2,4.6,1.5c-0.8-0.4-1.7-0.7-2.6-0.8c0,0,0,0,0,0c0,0,0,0,0,0c-0.7,0-1.4,0-2,0.2
		c-0.2,0.1-0.2,0.3-0.1,0.4c0.4,0.4,0.7,0.8,1,1.2c0,0-0.1,0-0.1,0c-1.5-0.4-3,0.1-3.7,1.3c-0.2-0.4-0.5-0.8-0.9-1c0,0,0,0,0,0
		c0,0,0,0,0,0c-1.1-1.9-3-2.7-5.1-1.9c-1,0.4-1.9,1-2.5,1.8c-0.4,0.5-1.2,1.9-1,2.8c0.1-0.8,0.7-1.8,1-2.3c0.7-0.8,1.5-1.4,2.5-1.8
		c1.7-0.7,3.2-0.2,4.4,1c-1.2-0.6-2.8-0.6-4.2,0c-1.3,0.6-2.4,1.6-3,2.9c-0.1,0.3-0.3,0.8-0.4,1.3c0,0,0,0,0,0c-0.1,0-0.1,0-0.2,0
		c0,0,0-0.1,0-0.1c-0.1,0-0.2,0-0.2,0c-0.1-0.1-0.2-0.2-0.3-0.3c0.1,0,0.1-0.1,0.2-0.1c-1-1.7-2.9-2.6-4.8-2.6
		c-1.2,0-2.5,0.5-3.2,1.6c-0.5,0.7-0.5,1.5-0.5,2.3c0-0.6,0.1-1.2,0.5-1.8c0.7-1.1,2-1.5,3.2-1.6c1.6,0,3.2,0.7,4.2,1.9
		c-1.2-0.9-2.9-1.3-4.4-1c-2.6,0.4-3.7,2.7-3.2,5.1c0,0.1,0.1,0.1,0.1,0.1c0.1,0.1,0.2,0.1,0.3,0.1c0,0.1,0,0.1,0,0.2c0,0,0,0,0,0.1
		c0.2-0.1,0.6-0.2,0.9-0.4c0.3-0.1,0.6-0.2,0.7-0.2c0.1,0,0.2-0.2,0.2-0.3c0-0.2-0.1-0.4-0.1-0.5c0.1,0.2,0.2,0.3,0.3,0.5
		c0,0.1,0.2,0.1,0.3,0.1c0.3-0.1,0.2-0.2,0.4-0.3c0.3-0.2,0.2-0.3,0.2-0.3c0,0,0.1,0,0.4,0c0.2,0,0.3,0,0.5,0c0.1,0,0.3,0.1,0.3,0.1
		c0.3,0,0.7,0,1,0c0.1,0,0.3,0,0.4,0c-0.6,0.7-1.1,1.5-1.3,2.2c-0.3,0.7-0.4,1.4-0.3,2.1c0-0.5,0.1-1.1,0.3-1.6
		c0.3-0.8,1-1.9,1.8-2.7c0.6,0,1.2,0,1.8,0.1c0,0,0-0.1,0-0.1c0,0,0.1,0,0.1,0c0,0,0,0,0,0c0,0.1,0,0.1,0,0.2c0,0,0,0,0,0
		c0,0,0,0,0,0.1c-1.6,0.2-3,2.2-3.5,3.6c-0.6,1.7-0.5,4.3,1.3,5.1c0.1,0.1,0.3,0.2,0.5,0.3c0,0,0,0,0,0c0.2-0.3,0.5-0.6,0.6-0.9
		c0.2-0.2,0.4-0.5,0.6-0.7c0.1-0.1,0.1-0.2,0-0.2c-0.3-0.2-0.5-0.5-0.8-0.7c0.1,0,0.2,0.1,0.4,0.1c0,0-0.1-0.1-0.1-0.1
		c0.2,0,0.3,0.1,0.5,0.1c0.2,0,0.2-0.2,0.1-0.3c-0.6-0.7,0.3-0.6,0.5-1c0.1-0.2,0-0.4,0-0.6c0.1-0.3,0.3-0.4,0.3-0.7
		c0-0.2,0-0.4,0-0.7c0.1-0.4,0.3-0.8,0.5-1.1c0.8,3,1.8,5.9,2.5,9c0.2,1,0.4,2.1,0.5,3.1c0,0,0,0,0,0c0,0.1,0,0.2,0,0.3c0,0,0,0,0,0
		c0.3,2.1,0.5,4.2,0.6,6.3c0,0.5,0,1,0,1.5L459,500.2V377.5z M712.9,459L712.9,459L712.9,459l0.3,0.2c0.1,0,0.1,0.1,0.1,0.1
		c0,0,0.1,0.1,0.1,0.1c0,0,0.1,0.1,0.1,0.1c0.1,0.1,0.1,0.2,0.1,0.4c0,0.2-0.2,0.4-0.4,0.7c-0.2,0.2-0.5,0.4-0.8,0.6
		c-0.6,0.4-1.3,0.7-2,0.9c-0.4,0.1-0.7,0.2-1.1,0.3c0.1-1.3,0.2-2.7,0.2-4.2c0.5,0,1,0.1,1.4,0.2c0.4,0.1,0.7,0.2,1.1,0.3
		c0.2,0.1,0.3,0.1,0.5,0.2c0.1,0,0.2,0.1,0.2,0.1L712.9,459L712.9,459L712.9,459C712.9,459,713,459.1,712.9,459z M707.9,458.1
		c0.1,1.6,0.2,3.2,0.3,4.5c0,0,0,0,0,0c-1.1,0.2-2.1,0.2-2.8,0.2c-0.4,0-0.7,0-0.9,0c-0.1,0-0.2,0-0.3,0c0.6-1.9,1.7-3.8,2.3-4.7
		C707,458,707.5,458,707.9,458.1z M546.6,458.6c0.1-0.3,0.1-0.6,0.3-1c0,0.1,0,0.1,0,0.1c0.3-0.1,0.5-0.1,0.8-0.1
		c0.1,0,0.2,0.1,0.2,0.2l0.2,1.1c0,0.2-0.1,0.3-0.1,0.5c0,0-0.1,0.1-0.1,0.1c-0.3,0-0.6,0-1,0c-0.1,0-0.2,0-0.2-0.2
		c0-0.1,0-0.3-0.1-0.4C546.6,458.8,546.6,458.7,546.6,458.6z M549.2,466.4c0,0,0.1,0,0.1,0c0,0,0,0.1,0,0.1
		c-0.1,0.1-0.2,0.2-0.3,0.2c0,0,0,0-0.1,0C549.1,466.5,549.2,466.4,549.2,466.4z M549.1,462.4c0.1,0,0.1-0.1,0.2,0
		c0.3,0.1,0.6,0.2,0.8,0.5c0,0,0,0,0,0.1c-0.1,0-0.1,0-0.2,0c-0.1-0.1-0.2-0.2-0.4-0.3C549.3,462.6,549.2,462.5,549.1,462.4
		C549.1,462.4,549.1,462.4,549.1,462.4z M550.8,478.5c0-0.1,0.1-0.1,0.2-0.1c0,0.2,0,0.3-0.1,0.5c-0.1-0.1-0.1-0.1-0.1-0.2
		C550.8,478.6,550.8,478.5,550.8,478.5z M550,463c0.1-0.1,0.2,0.1,0.4,0.3C550.3,463.2,550.1,463.1,550,463z M551.3,467.8
		c0-0.1,0-0.2,0-0.4c0,0,0.1,0,0.2,0c0,0.2,0,0.3,0,0.5C551.3,467.9,551.3,467.9,551.3,467.8z M544.9,467.7c-0.1,0-0.1,0-0.2,0
		c0,0-0.1-0.1-0.1-0.1c0,0,0,0,0-0.1C544.8,467.5,544.8,467.6,544.9,467.7C544.9,467.6,544.9,467.6,544.9,467.7z M544.2,468
		C544.1,468,544.1,468,544.2,468c-0.1-0.1-0.1-0.2-0.1-0.3c0,0,0,0,0.1,0C544.1,467.8,544.1,467.9,544.2,468z M544.6,478.7
		c0,0-0.1,0-0.1,0c-0.1-0.2,0.1-0.2,0.2-0.3C544.8,478.6,544.8,478.6,544.6,478.7z M476.5,488.2
		C476.5,488.3,476.5,488.3,476.5,488.2C476.5,488.3,476.4,488.3,476.5,488.2C476.4,488.2,476.5,488.2,476.5,488.2z M469.5,490.4
		c0-0.3,0-0.6,0-0.7c0,0,0,0,0,0C469.5,490,469.5,490.2,469.5,490.4z M475.9,495.5C475.9,495.5,475.9,495.6,475.9,495.5
		C475.9,495.6,475.9,495.5,475.9,495.5C475.9,495.5,475.9,495.5,475.9,495.5z M475.2,496.6c0,0,0,0.1,0.1,0.1c0,0-0.1,0-0.1,0
		C475.2,496.6,475.2,496.6,475.2,496.6z"/>
	<path id="XMLID_286_" class="st0" d="M494.2,492.5c0-0.1,0-0.2,0-0.3C494.1,492.3,494.1,492.3,494.2,492.5
		C494.1,492.5,494.1,492.5,494.2,492.5z"/>
	<path id="XMLID_287_" class="st0" d="M487.8,503.3C487.8,503.3,487.8,503.3,487.8,503.3C487.8,503.3,487.7,503.3,487.8,503.3
		C487.7,503.3,487.7,503.3,487.8,503.3C487.7,503.3,487.7,503.3,487.8,503.3C487.7,503.3,487.8,503.3,487.8,503.3z"/>
	<path id="XMLID_288_" class="st0" d="M543,467C543,467,543,467,543,467C543,467,543,467,543,467C543,467,543,467,543,467z"/>
	<path id="XMLID_291_" class="st0" d="M546,399.9c0.8-0.8,1.2-1.8,1.2-3.1c0-0.8-0.2-1.5-0.6-2.2c-0.4-0.7-1-1.1-1.8-1.3v0
		c0.4-0.2,0.8-0.4,1.1-0.7c0.3-0.2,0.5-0.5,0.7-0.8c0.3-0.6,0.4-1.2,0.4-1.8c0-1.2-0.4-2.2-1.1-3c-0.7-0.7-1.8-1.1-3.3-1.1h-5.7
		v15.2h6.2C544.2,401.1,545.2,400.7,546,399.9z M539.1,387.9h3.2c0.8,0,1.4,0.2,1.8,0.6c0.4,0.4,0.6,0.9,0.6,1.6
		c0,0.6-0.2,1.1-0.6,1.5c-0.4,0.4-1,0.7-1.8,0.7h-3.2V387.9z M539.1,398.9v-4.6h3.5c0.8,0,1.4,0.2,1.8,0.7c0.4,0.4,0.6,1,0.6,1.6
		c0,0.6-0.2,1.1-0.6,1.6c-0.4,0.5-1,0.7-1.8,0.7H539.1z"/>
	<path id="XMLID_295_" class="st0" d="M551.9,397.7h5.6l1.1,3.4h2.4l-5.4-15.2h-1.9l-5.4,15.2h2.4L551.9,397.7z M554.7,389
		L554.7,389l2.2,6.7h-4.3L554.7,389z"/>
	<path id="XMLID_298_" class="st0" d="M565.2,394.6h2.9l3.1,6.5h2.7l-3.4-6.8c1.9-0.7,2.8-2.2,2.9-4.2c0-1.4-0.5-2.5-1.5-3.3
		c-0.8-0.7-1.8-1-3-1H563v15.2h2.2V394.6z M565.2,387.9h3.5c0.7,0,1.3,0.2,1.6,0.5c0.5,0.4,0.7,0.9,0.7,1.7c0,0.7-0.2,1.2-0.6,1.7
		c-0.4,0.5-1,0.7-1.9,0.8h-3.4V387.9z"/>
	<path id="XMLID_299_" class="st0" d="M575.9,397.8c0.1,0.2,0.2,0.4,0.3,0.7c0.4,0.7,0.9,1.3,1.7,1.9c0.8,0.6,1.7,0.9,2.9,0.9
		c1.3,0,2.4-0.4,3.3-1.1c0.9-0.8,1.5-1.8,1.9-3.3h-2.4c-0.6,1.4-1.6,2.1-2.8,2.1c-0.5,0-1-0.1-1.4-0.3c-0.4-0.2-0.7-0.5-0.9-0.8
		c-0.3-0.3-0.5-0.8-0.6-1.3c-0.1-0.5-0.2-1.5-0.2-3c0-1.5,0.1-2.5,0.2-3.1c0.1-0.5,0.3-0.9,0.6-1.3c0.2-0.3,0.5-0.6,0.9-0.8
		c0.4-0.2,0.8-0.3,1.4-0.3c0.7,0,1.3,0.2,1.8,0.6c0.5,0.4,0.8,1,1,1.6h2.4c-0.2-1.3-0.8-2.3-1.7-3.2c-0.9-0.9-2.1-1.3-3.5-1.3
		c-1.2,0-2.1,0.3-2.9,0.9c-0.8,0.6-1.4,1.2-1.7,1.9c-0.2,0.4-0.4,0.9-0.5,1.5c-0.1,0.6-0.2,1.8-0.2,3.6c0,1.7,0.1,2.9,0.2,3.5
		C575.7,397.3,575.8,397.6,575.9,397.8z"/>
	<polygon id="XMLID_300_" class="st0" points="597.4,398.9 590.2,398.9 590.2,394.4 596.3,394.4 596.3,392.4 590.2,392.4 590.2,388 
		597.4,388 597.4,385.8 587.9,385.8 587.9,401.1 597.4,401.1 	"/>
	<polygon id="XMLID_301_" class="st0" points="609.3,398.9 602.1,398.9 602.1,385.8 599.9,385.8 599.9,401.1 609.3,401.1 	"/>
	<path id="XMLID_304_" class="st0" d="M611.6,397.8c0.1,0.2,0.2,0.4,0.3,0.7c0.4,0.7,0.9,1.3,1.7,1.9c0.8,0.6,1.7,0.9,2.9,0.9
		c1.2,0,2.2-0.3,2.9-0.9c0.8-0.5,1.3-1.2,1.7-1.9c0.2-0.4,0.4-0.9,0.5-1.5c0.1-0.6,0.1-1.8,0.1-3.5c0-1.8,0-3-0.1-3.6
		c-0.1-0.6-0.3-1.1-0.5-1.5c-0.3-0.7-0.9-1.3-1.7-1.9c-0.8-0.6-1.8-0.8-2.9-0.9c-1.2,0-2.1,0.3-2.9,0.9c-0.8,0.5-1.4,1.2-1.7,1.9
		c-0.2,0.4-0.4,0.9-0.5,1.5c-0.1,0.6-0.2,1.8-0.2,3.6c0,1.7,0.1,2.9,0.2,3.5C611.5,397.3,611.5,397.6,611.6,397.8z M613.7,390.4
		c0.1-0.5,0.3-0.9,0.6-1.3c0.2-0.3,0.5-0.6,0.9-0.8c0.4-0.2,0.8-0.3,1.4-0.3c0.5,0,1,0.1,1.4,0.3c0.4,0.2,0.7,0.5,0.9,0.8
		c0.3,0.3,0.5,0.8,0.6,1.3c0.1,0.5,0.2,1.6,0.2,3.1c0,1.5-0.1,2.5-0.2,3c-0.1,0.5-0.3,1-0.6,1.3c-0.2,0.3-0.5,0.6-0.9,0.8
		c-0.4,0.2-0.9,0.3-1.4,0.3c-0.5,0-1-0.1-1.4-0.3c-0.4-0.2-0.7-0.5-0.9-0.8c-0.3-0.3-0.5-0.8-0.6-1.3c-0.1-0.5-0.2-1.5-0.2-3
		C613.5,392,613.5,390.9,613.7,390.4z"/>
	<polygon id="XMLID_305_" class="st0" points="627.1,390.2 627.1,390.2 633.8,401.1 635.9,401.1 635.9,385.8 633.7,385.8 
		633.7,396.7 633.6,396.7 626.9,385.8 624.8,385.8 624.8,401.1 627.1,401.1 	"/>
	<path id="XMLID_308_" class="st0" d="M641.4,397.7h5.6l1.1,3.4h2.4l-5.4-15.2h-1.9l-5.4,15.2h2.4L641.4,397.7z M644.2,389
		L644.2,389l2.2,6.7h-4.3L644.2,389z"/>
</g>
<g id="umnteY.tif_8_">
	
		<image style="overflow:visible;" width="1060" height="145" id="Layer_0_1_" xlink:href="BD8AC2C397F8029E.png"  transform="matrix(0.1698 0 0 0.1698 508.9323 345.0769)">
	</image>
</g>
</svg>
