<svg xmlns="http://www.w3.org/2000/svg" viewBox="0 0 700 326"><path stroke="#FFF" stroke-width=".216" stroke-miterlimit="22.926" d="M0-2h15.3L0 7.5z"/><path fill="#FFF" stroke="#FFF" stroke-width=".216" stroke-miterlimit="22.926" d="M75.5-2l-.1 32.7L0 11.8V7.5L15.3-2z"/><path stroke="#FFF" stroke-width=".216" stroke-miterlimit="22.926" d="M0 51.5V11.8l75.4 18.9z"/><path fill="#0F0F0F" stroke="#FFF" stroke-width=".216" stroke-miterlimit="22.926" d="M242.4-2h-16.7l20.1 12.6z"/><path fill="#FFF" stroke="#FFF" stroke-width=".216" stroke-miterlimit="22.926" d="M275.4-2l-29.6 12.6L242.4-2z"/><path fill="#0F0F0F" stroke="#FFF" stroke-width=".216" stroke-miterlimit="22.926" d="M330.4-2h-39l39.4 12.4z"/><path fill="#FFF" stroke="#FFF" stroke-width=".216" stroke-miterlimit="22.926" d="M283.8-2l45.5 84.4 1.5-72L291.4-2z"/><path fill="#0F0F0F" stroke="#FFF" stroke-width=".216" stroke-miterlimit="22.926" d="M283.1-2l16.5 57.9 29.7 26.5L283.8-2z"/><path fill="#FFF" stroke="#FFF" stroke-width=".216" stroke-miterlimit="22.926" d="M280.9-2l-26.1 57.3 44.8.6L283.1-2z"/><path fill="#0F0F0F" stroke="#FFF" stroke-width=".216" stroke-miterlimit="22.926" d="M254.8 55.3L280.9-2h-5.5l-29.6 12.6z"/><path fill="#0F0F0F" stroke="#FFF" stroke-width=".216" stroke-miterlimit="22.926" d="M165.4-2l.2 32.7 80.2-20.1L225.7-2z"/><path fill="#FFF" stroke="#FFF" stroke-width=".216" stroke-miterlimit="22.926" d="M254.8 55.3l-9-44.7-80.2 20.1zM71.7 99.6L54.5 64.8l20.9-34.1z"/><path fill="#0F0F0F" stroke="#FFF" stroke-width=".216" stroke-miterlimit="22.926" d="M0 62.4v-5.2l54.5 7.6 17.2 34.8z"/><path stroke="#FFF" stroke-width=".216" stroke-miterlimit="22.926" d="M91.3 145.7L73.5 65.1l-1.8 34.5z"/><path fill="#0F0F0F" stroke="#FFF" stroke-width=".216" stroke-miterlimit="22.926" d="M135.8 176.2V55.9l-44.5 89.8zM28.2 131.2l43.5-31.6 19.6 46.1z"/><path fill="#FFF" stroke="#FFF" stroke-width=".216" stroke-miterlimit="22.926" d="M0 80.2V62.4l71.7 37.2-43.5 31.6z"/><path fill="#0F0F0F" stroke="#FFF" stroke-width=".216" stroke-miterlimit="22.926" d="M0 106.7V80.2l28.2 51z"/><path stroke="#FFF" stroke-width=".216" stroke-miterlimit="22.926" d="M0 150.7v-44l28.2 24.5z"/><path fill="#FFF" stroke="#FFF" stroke-width=".216" stroke-miterlimit="22.926" d="M0 187.8l52.3 32.8-24.1-89.4L0 150.7z"/><path fill="#0F0F0F" stroke="#FFF" stroke-width=".216" stroke-miterlimit="22.926" d="M88.7 205l-36.4 15.6-24.1-89.4z"/><path fill="#FFF" stroke="#FFF" stroke-width=".216" stroke-miterlimit="22.926" d="M91.3 145.7L88.7 205l-60.5-73.8z"/><path fill="#0F0F0F" stroke="#FFF" stroke-width=".216" stroke-miterlimit="22.926" d="M135.8 176.2l-44.5-30.5-2.6 59.3z"/><path fill="#FFF" stroke="#FFF" stroke-width=".216" stroke-miterlimit="22.926" d="M131.1 218.5l4.7-42.3L88.7 205z"/><path fill="#0F0F0F" stroke="#FFF" stroke-width=".216" stroke-miterlimit="22.926" d="M135.8 292.4l-4.7-73.9L88.7 205z"/><path fill="#FFF" stroke="#FFF" stroke-width=".216" stroke-miterlimit="22.926" d="M106 265.9l29.8 26.5L88.7 205z"/><path stroke="#FFF" stroke-width=".216" stroke-miterlimit="22.926" d="M61.3 265.3l44.7.6L88.7 205z"/><path fill="#FFF" stroke="#FFF" stroke-width=".216" stroke-miterlimit="22.926" d="M61.3 265.3L88.7 205l-36.4 15.6z"/><path fill="#0F0F0F" stroke="#FFF" stroke-width=".216" stroke-miterlimit="22.926" d="M0 233.7l52.3-13.1L0 187.8z"/><path fill="#FFF" stroke="#FFF" stroke-width=".216" stroke-miterlimit="22.926" d="M0 248.4l61.3 16.9-9-44.7L0 233.7zM199.9 99.6l-5.2-44-58.9.3z"/><path fill="#0F0F0F" stroke="#FFF" stroke-width=".216" stroke-miterlimit="22.926" d="M254.8 55.3l-60.1.3 5.2 44zM180.3 145.7l-44.5-89.8 64.1 43.7z"/><path fill="#FFF" stroke="#FFF" stroke-width=".216" stroke-miterlimit="22.926" d="M135.8 176.2V55.9l44.5 89.8z"/><path fill="#0F0F0F" stroke="#FFF" stroke-width=".216" stroke-miterlimit="22.926" d="M243.4 131.2l-43.5-31.6-19.6 46.1z"/><path fill="#FFF" stroke="#FFF" stroke-width=".216" stroke-miterlimit="22.926" d="M254.8 55.3l-54.9 44.3 43.5 31.6z"/><path fill="#0F0F0F" stroke="#FFF" stroke-width=".216" stroke-miterlimit="22.926" d="M299.6 55.9l-44.8-.6-11.4 75.9z"/><path fill="#FFF" stroke="#FFF" stroke-width=".216" stroke-miterlimit="22.926" d="M299.9 170.2l-.3-114.3-56.2 75.3z"/><path stroke="#FFF" stroke-width=".216" stroke-miterlimit="22.926" d="M329.3 82.4l-29.7-26.5.3 114.3z"/><path fill="#0F0F0F" stroke="#FFF" stroke-width=".216" stroke-miterlimit="22.926" d="M219.3 220.6l24.1-89.4 56.5 39z"/><path stroke="#FFF" stroke-width=".216" stroke-miterlimit="22.926" d="M182.9 205l36.4 15.6 24.1-89.4z"/><path fill="#FFF" stroke="#FFF" stroke-width=".216" stroke-miterlimit="22.926" d="M180.3 145.7l2.6 59.3 60.5-73.8z"/><path fill="#0F0F0F" stroke="#FFF" stroke-width=".216" stroke-miterlimit="22.926" d="M135.8 176.2l44.5-30.5 2.6 59.3z"/><path stroke="#FFF" stroke-width=".216" stroke-miterlimit="22.926" d="M131.1 218.5l4.7-42.3 47.1 28.8z"/><path fill="#FFF" stroke="#FFF" stroke-width=".216" stroke-miterlimit="22.926" d="M135.8 292.4l-4.7-73.9 51.8-13.5z"/><path fill="#0F0F0F" stroke="#FFF" stroke-width=".216" stroke-miterlimit="22.926" d="M165.6 265.9l-29.8 26.5 47.1-87.4z"/><path fill="#FFF" stroke="#FFF" stroke-width=".216" stroke-miterlimit="22.926" d="M210.4 265.3l-44.8.6 17.3-60.9z"/><path fill="#0F0F0F" stroke="#FFF" stroke-width=".216" stroke-miterlimit="22.926" d="M210.4 265.3L182.9 205l36.4 15.6z"/><path fill="#FFF" stroke="#FFF" stroke-width=".216" stroke-miterlimit="22.926" d="M299.5 240.7l-80.2-20.1 80.6-50.4z"/><path stroke="#FFF" stroke-width=".216" stroke-miterlimit="22.926" d="M210.4 265.3l8.9-44.7 80.2 20.1z"/><path fill="#0F0F0F" stroke="#FFF" stroke-width=".216" stroke-miterlimit="22.926" d="M75.4 30.7L75.5-2h18.8l6.3 12.9zM165.4-2l.2 32.7L113 1.2l4.1-3.2z"/><path fill="#FFF" stroke="#FFF" stroke-width=".216" stroke-miterlimit="22.926" d="M75.4 30.7L113 1.2l52.6 29.5z"/><path fill="#0F0F0F" stroke="#FFF" stroke-width=".216" stroke-miterlimit="22.926" d="M94.3-2h22.6l-16.4 12.8z"/><path fill="#FFF" stroke="#FFF" stroke-width=".216" stroke-miterlimit="22.926" d="M54.5 64.8L0 57.2v-5.7l75.4-20.8z"/><path stroke="#FFF" stroke-width=".216" stroke-miterlimit="22.926" d="M73.5 66.4l62.3-10.5-60.4-25.2z"/><path fill="#FFF" stroke="#FFF" stroke-width=".216" stroke-miterlimit="22.926" d="M73.8 66.4l62-10.5-44.5 89.8z"/><path fill="#0F0F0F" stroke="#FFF" stroke-width=".216" stroke-miterlimit="22.926" d="M135.8 55.9L75.4 30.7h90.2z"/><path stroke="#FFF" stroke-width=".216" stroke-miterlimit="22.926" d="M254.8 55.3l-119 .6 29.8-25.2zM660.1-2h-16.7l20.1 12.6z"/><path fill="#FFF" stroke="#FFF" stroke-width=".216" stroke-miterlimit="22.926" d="M693-2l-29.5 12.6L660.1-2zM700 55.7V-2h-1.4l-26.2 57.3z"/><path stroke="#FFF" stroke-width=".216" stroke-miterlimit="22.926" d="M672.4 55.3L698.6-2H693l-29.5 12.6z"/><path fill="#FFF" stroke="#FFF" stroke-width=".216" stroke-miterlimit="22.926" d="M583.1-2l.1 32.7 80.3-20.1L643.4-2z"/><path fill="#0F0F0F" stroke="#FFF" stroke-width=".216" stroke-miterlimit="22.926" d="M672.4 55.3l-8.9-44.7-80.3 20.1zM416.2-2h16.7l-20.1 12.6z"/><path fill="#0F0F0F" stroke="#FFF" stroke-width=".216" stroke-miterlimit="22.926" d="M383.3-2l29.5 12.6L416.2-2zM328.3-2h38.9l-39.3 12.4z"/><path fill="#FFF" stroke="#FFF" stroke-width=".216" stroke-miterlimit="22.926" d="M374.8-2l-45.5 84.4-1.4-72L367.2-2z"/><path fill="#0F0F0F" stroke="#FFF" stroke-width=".216" stroke-miterlimit="22.926" d="M375.6-2l-16.5 57.9-29.8 26.5L374.8-2z"/><path fill="#0F0F0F" stroke="#FFF" stroke-width=".216" stroke-miterlimit="22.926" d="M377.8-2l26.1 57.3-44.8.6L375.6-2z"/><path fill="#FFF" stroke="#FFF" stroke-width=".216" stroke-miterlimit="22.926" d="M403.9 55.3L377.8-2h5.5l29.5 12.6z"/><path fill="#0F0F0F" stroke="#FFF" stroke-width=".216" stroke-miterlimit="22.926" d="M493.2-2l-.2 32.7-80.2-20.1L432.9-2z"/><path fill="#FFF" stroke="#FFF" stroke-width=".216" stroke-miterlimit="22.926" d="M403.9 55.3l8.9-44.7L493 30.7z"/><path fill="#0F0F0F" stroke="#FFF" stroke-width=".216" stroke-miterlimit="22.926" d="M586.9 99.6l17.3-34.8-21-34.1z"/><path fill="#0F0F0F" stroke="#FFF" stroke-width=".216" stroke-miterlimit="22.926" d="M672.4 55.3l-68.2 9.5-17.3 34.8zM567.3 145.7l17.8-80.6 1.8 34.5zM522.8 176.2V55.9l44.5 89.8zM630.4 131.2l-43.5-31.6-19.6 46.1z"/><path fill="#FFF" stroke="#FFF" stroke-width=".216" stroke-miterlimit="22.926" d="M672.4 55.3l-85.5 44.3 43.5 31.6z"/><path fill="#0F0F0F" stroke="#FFF" stroke-width=".216" stroke-miterlimit="22.926" d="M700 70.8V55.7l-27.6-.4-42 75.9z"/><path fill="#FFF" stroke="#FFF" stroke-width=".216" stroke-miterlimit="22.926" d="M686.9 170.2l13.1-49.5V70.8l-69.6 60.4z"/><path fill="#0F0F0F" stroke="#FFF" stroke-width=".216" stroke-miterlimit="22.926" d="M700 158.3v-37.6l-13.1 49.5zM606.3 220.6l24.1-89.4 56.5 39z"/><path stroke="#FFF" stroke-width=".216" stroke-miterlimit="22.926" d="M569.9 205l36.4 15.6 24.1-89.4z"/><path fill="#FFF" stroke="#FFF" stroke-width=".216" stroke-miterlimit="22.926" d="M567.3 145.7l2.6 59.3 60.5-73.8z"/><path fill="#FFF" stroke="#FFF" stroke-width=".216" stroke-miterlimit="22.926" d="M522.8 176.2l44.5-30.5 2.6 59.3z"/><path stroke="#FFF" stroke-width=".216" stroke-miterlimit="22.926" d="M521.4 220.5l1.4-44.3 47.1 28.8zM597.4 265.3l-44.8.6 17.3-60.9z"/><path fill="#0F0F0F" stroke="#FFF" stroke-width=".216" stroke-miterlimit="22.926" d="M597.4 265.3L569.9 205l36.4 15.6z"/><path fill="#FFF" stroke="#FFF" stroke-width=".216" stroke-miterlimit="22.926" d="M686.6 240.7l-80.3-20.1 80.6-50.4z"/><path stroke="#FFF" stroke-width=".216" stroke-miterlimit="22.926" d="M597.4 265.3l8.9-44.7 80.3 20.1z"/><path fill="#FFF" stroke="#FFF" stroke-width=".216" stroke-miterlimit="22.926" d="M458.7 99.6l5.2-44 58.9.3z"/><path fill="#FFF" stroke="#FFF" stroke-width=".216" stroke-miterlimit="22.926" d="M403.9 55.3l60 .3-5.2 44z"/><path fill="#0F0F0F" stroke="#FFF" stroke-width=".216" stroke-miterlimit="22.926" d="M478.3 145.7l44.5-89.8-64.1 43.7z"/><path fill="#FFF" stroke="#FFF" stroke-width=".216" stroke-miterlimit="22.926" d="M522.8 176.2V55.9l-44.5 89.8z"/><path fill="#0F0F0F" stroke="#FFF" stroke-width=".216" stroke-miterlimit="22.926" d="M415.2 131.2l43.5-31.6 19.6 46.1z"/><path fill="#0F0F0F" stroke="#FFF" stroke-width=".216" stroke-miterlimit="22.926" d="M403.9 55.3l54.8 44.3-43.5 31.6z"/><path fill="#0F0F0F" stroke="#FFF" stroke-width=".216" stroke-miterlimit="22.926" d="M359.1 55.9l44.8-.6 11.3 75.9z"/><path fill="#FFF" stroke="#FFF" stroke-width=".216" stroke-miterlimit="22.926" d="M358.8 170.2l.3-114.3 56.1 75.3z"/><path stroke="#FFF" stroke-width=".216" stroke-miterlimit="22.926" d="M329.3 82.4l29.8-26.5-.3 114.3z"/><path fill="#0F0F0F" stroke="#FFF" stroke-width=".216" stroke-miterlimit="22.926" d="M439.3 220.6l-24.1-89.4-56.4 39z"/><path fill="#FFF" stroke="#FFF" stroke-width=".216" stroke-miterlimit="22.926" d="M475.7 205l-36.4 15.6-24.1-89.4z"/><path fill="#FFF" stroke="#FFF" stroke-width=".216" stroke-miterlimit="22.926" d="M478.3 145.7l-2.6 59.3-60.5-73.8z"/><path fill="#0F0F0F" stroke="#FFF" stroke-width=".216" stroke-miterlimit="22.926" d="M522.8 176.2l-44.5-30.5-2.6 59.3z"/><path fill="#FFF" stroke="#FFF" stroke-width=".216" stroke-miterlimit="22.926" d="M521.4 220.5l1.4-44.3-47.1 28.8z"/><path fill="#FFF" stroke="#FFF" stroke-width=".216" stroke-miterlimit="22.926" d="M448.3 265.3l44.8.6-17.4-60.9z"/><path fill="#0F0F0F" stroke="#FFF" stroke-width=".216" stroke-miterlimit="22.926" d="M448.3 265.3l27.4-60.3-36.4 15.6z"/><path stroke="#FFF" stroke-width=".216" stroke-miterlimit="22.926" d="M358.4 241.5l80.9-20.9-80.5-50.4z"/><path fill="#FFF" stroke="#FFF" stroke-width=".216" stroke-miterlimit="22.926" d="M448.3 265.3l-9-44.7-80.9 20.9zM583.2 30.7L583.1-2h-18.7l-6.3 12.9zM493.2-2l-.2 32.7 52.6-29.5-4-3.2z"/><path fill="#0F0F0F" stroke="#FFF" stroke-width=".216" stroke-miterlimit="22.926" d="M583.2 30.7L545.7 1.2 493 30.7zM564.4-2h-22.7l16.4 12.8z"/><path fill="#FFF" stroke="#FFF" stroke-width=".216" stroke-miterlimit="22.926" d="M604.2 64.8l68.2-9.5-89.2-24.6z"/><path stroke="#FFF" stroke-width=".216" stroke-miterlimit="22.926" d="M585.2 66.4l-62.4-10.5 60.4-25.2z"/><path fill="#FFF" stroke="#FFF" stroke-width=".216" stroke-miterlimit="22.926" d="M584.8 66.4l-62-10.5 44.5 89.8zM522.8 55.9l60.4-25.2H493z"/><path stroke="#FFF" stroke-width=".216" stroke-miterlimit="22.926" d="M403.9 55.3l118.9.6L493 30.7z"/><path fill="#0F0F0F" stroke="#FFF" stroke-width=".216" stroke-miterlimit="22.926" d="M700 174.1v-15.8l-13.1 11.9z"/><path stroke="#FFF" stroke-width=".216" stroke-miterlimit="22.926" d="M700 235.2v-61.1l-13.1-3.9-.3 70.5zM0 320.3v-21.5l4.8 10.1z"/><path fill="#0F0F0F" stroke="#FFF" stroke-width=".216" stroke-miterlimit="22.926" d="M0 328.9h32.2l-27.4-20L0 320.3z"/><path fill="#FFF" stroke="#FFF" stroke-width=".216" stroke-miterlimit="22.926" d="M50.3 328.9l11-63.6-56.5 43.6 27.4 20z"/><path fill="#0F0F0F" stroke="#FFF" stroke-width=".216" stroke-miterlimit="22.926" d="M85.5 328.9l-24.2-63.6-11 63.6z"/><path fill="#FFF" stroke="#FFF" stroke-width=".216" stroke-miterlimit="22.926" d="M137.4 328.9l-76.1-63.6 24.2 63.6zM302.8 328.9h24l31.6-63.6-64.1 43.6z"/><path stroke="#FFF" stroke-width=".216" stroke-miterlimit="22.926" d="M358.4 328.9v-63.6l-31.6 63.6zM266.9 328.9l27.4-20 8.5 20z"/><path fill="#0F0F0F" stroke="#FFF" stroke-width=".216" stroke-miterlimit="22.926" d="M244.5 328.9l-34.1-63.6 83.9 43.6-27.4 20zM181.5 328.9l-15.9-63 71.8 63z"/><path stroke="#FFF" stroke-width=".216" stroke-miterlimit="22.926" d="M146.6 328.9l-10.8-36.5 24.5 36.5z"/><path fill="#0F0F0F" stroke="#FFF" stroke-width=".216" stroke-miterlimit="22.926" d="M0 298.8l4.8 10.1 56.5-43.6L0 248.4z"/><path stroke="#FFF" stroke-width=".216" stroke-miterlimit="22.926" d="M137.4 328.9l-38.7-32.3 37.1-4.2 10.8 36.5z"/><path fill="#FFF" stroke="#FFF" stroke-width=".216" stroke-miterlimit="22.926" d="M106 265.9l-44.7-.6 37.4 31.3 37.1-4.2zM135.8 292.4l24.5 36.5h21.2l-15.9-63zM244.5 328.9l-34.1-63.6-44.8.6 71.8 63z"/><path fill="#FFF" stroke="#FFF" stroke-width=".216" stroke-miterlimit="22.926" d="M299.5 240.7l-89.1 24.6 83.9 43.6zM358.8 170.2l-29.5-87.8-29.4 87.8zM358.8 170.2h-58.9l-.4 70.5z"/><path stroke="#FFF" stroke-width=".216" stroke-miterlimit="22.926" d="M358.4 265.3l-64.1 43.6 5.2-68.2z"/><path fill="#0F0F0F" stroke="#FFF" stroke-width=".216" stroke-miterlimit="22.926" d="M358.7 169.2l-59.5 71.6 59.2 25.2zM700 293.9V324l-31.5-7.2z"/><path fill="#FFF" stroke="#FFF" stroke-width=".216" stroke-miterlimit="22.926" d="M638.2 254l61.8 26.1v13.8l-31.5 22.9z"/><path stroke="#FFF" stroke-width=".216" stroke-miterlimit="22.926" d="M651 328.9h-32.1l19.3-74.9 30.3 62.8z"/><path fill="#FFF" stroke="#FFF" stroke-width=".216" stroke-miterlimit="22.926" d="M618.9 328.9h-36.7l-15-13.6 30.2-50 40.8-11.3z"/><path fill="#0F0F0F" stroke="#FFF" stroke-width=".216" stroke-miterlimit="22.926" d="M671.7 328.9l-3.2-12.1-17.5 12.1z"/><path fill="#0F0F0F" stroke="#FFF" stroke-width=".216" stroke-miterlimit="22.926" d="M678.3 328.9h-6.6l-3.2-12.1zM700 324v4.9h-21.7l-9.8-12.1z"/><path fill="#FFF" stroke="#FFF" stroke-width=".216" stroke-miterlimit="22.926" d="M403.9 328.9h-2.2l-43.3-87.4 64.1 43.7z"/><path fill="#0F0F0F" stroke="#FFF" stroke-width=".216" stroke-miterlimit="22.926" d="M358.4 328.9v-87.4l43.3 87.4zM413.4 328.9l52.6-12.1-43.5-31.6-18.6 43.7z"/><path fill="#FFF" stroke="#FFF" stroke-width=".216" stroke-miterlimit="22.926" d="M552.2 328.9l15-13.6-14.6-49.4-21.1 63z"/><path fill="#0F0F0F" stroke="#FFF" stroke-width=".216" stroke-miterlimit="22.926" d="M462.8 328.9l3.2-12.1 17.4 12.1z"/><path fill="#0F0F0F" stroke="#FFF" stroke-width=".216" stroke-miterlimit="22.926" d="M456.1 328.9h6.7l3.2-12.1zM413.4 328.9h42.7l9.9-12.1z"/><path stroke="#FFF" stroke-width=".216" stroke-miterlimit="22.926" d="M582.2 328.9l-15-13.6-15 13.6z"/><path fill="#0F0F0F" stroke="#FFF" stroke-width=".216" stroke-miterlimit="22.926" d="M700 235.2v44.9L638.2 254l48.4-13.3zM597.4 265.3l-44.8.6 14.6 49.4zM493.1 265.9L475.7 205l45.7 15.5z"/><path fill="#FFF" stroke="#FFF" stroke-width=".216" stroke-miterlimit="22.926" d="M569.9 205l-17.3 60.9-31.2-45.4z"/><path stroke="#FFF" stroke-width=".216" stroke-miterlimit="22.926" d="M448.3 265.3l-89.9-23.8 64.1 43.7z"/><path fill="#FFF" stroke="#FFF" stroke-width=".216" stroke-miterlimit="22.926" d="M466 316.8l-17.7-51.5-25.8 19.9z"/><path fill="#0F0F0F" stroke="#FFF" stroke-width=".216" stroke-miterlimit="22.926" d="M493.1 265.9l-44.8-.6 17.7 51.5zM519.1 328.9l-2.8-22.7-50.3 10.6 17.4 12.1z"/><path fill="#FFF" stroke="#FFF" stroke-width=".216" stroke-miterlimit="22.926" d="M493.1 265.9L466 316.8l50.3-10.6z"/><path fill="#FFF" stroke="#FFF" stroke-width=".216" stroke-miterlimit="22.926" d="M521.4 220.5l-28.3 45.4 23.2 40.3z"/><path fill="#0F0F0F" stroke="#FFF" stroke-width=".216" stroke-miterlimit="22.926" d="M552.6 265.9l-21.1 63h-12.4l-2.8-22.7z"/><path stroke="#FFF" stroke-width=".216" stroke-miterlimit="22.926" d="M521.4 220.5l-5.1 85.7 36.3-40.3z"/></svg>