<?xml version="1.0" encoding="UTF-8" standalone="no"?>
<!-- Generator: Adobe Illustrator 18.1.1, SVG Export Plug-In . SVG Version: 6.00 Build 0)  -->

<svg
   xmlns:dc="http://purl.org/dc/elements/1.1/"
   xmlns:cc="http://creativecommons.org/ns#"
   xmlns:rdf="http://www.w3.org/1999/02/22-rdf-syntax-ns#"
   xmlns:svg="http://www.w3.org/2000/svg"
   xmlns="http://www.w3.org/2000/svg"
   xmlns:sodipodi="http://sodipodi.sourceforge.net/DTD/sodipodi-0.dtd"
   xmlns:inkscape="http://www.inkscape.org/namespaces/inkscape"
   version="1.1"
   id="Camada_1"
   x="0px"
   y="0px"
   viewBox="0 0 1684 2384"
   xml:space="preserve"
   sodipodi:docname="bg.svg"><metadata
     id="metadata349"><rdf:RDF><cc:Work
         rdf:about=""><dc:format>image/svg+xml</dc:format><dc:type
           rdf:resource="http://purl.org/dc/dcmitype/StillImage" /><dc:title></dc:title></cc:Work></rdf:RDF></metadata><defs
     id="defs347" /><sodipodi:namedview
     pagecolor="#ffffff"
     objecttolerance="10"
     gridtolerance="10"
     guidetolerance="10"
     inkscape:current-layer="Camada_1" /><polygon
     style="clip-rule:evenodd;fill-rule:evenodd;stroke:#1b1b1b;stroke-width:0.21600001;stroke-miterlimit:22.92560005"
     id="polygon5"
     points="37.6,811.9 72.7,811.9 37.6,833.8 "
     stroke-miterlimit="22.9256" /><polygon
     style="clip-rule:evenodd;fill:#1b1b1b;fill-rule:evenodd;stroke:#1b1b1b;stroke-width:0.21600001;stroke-miterlimit:22.92560005"
     id="polygon7"
     points="211.2,811.9 210.8,887.1 37.6,843.6 37.6,833.8 72.7,811.9 "
     stroke-miterlimit="22.9256" /><polygon
     style="clip-rule:evenodd;fill-rule:evenodd;stroke:#1b1b1b;stroke-width:0.21600001;stroke-miterlimit:22.92560005"
     id="polygon9"
     points="37.6,934.8 37.6,843.6 210.8,887.1 "
     stroke-miterlimit="22.9256" /><polygon
     style="clip-rule:evenodd;fill:#0f0f0f;fill-rule:evenodd;stroke:#1b1b1b;stroke-width:0.21600001;stroke-miterlimit:22.92560005"
     id="polygon11"
     points="594.7,811.9 556.3,811.9 602.5,840.8 "
     stroke-miterlimit="22.9256" /><polygon
     style="clip-rule:evenodd;fill:#1b1b1b;fill-rule:evenodd;stroke:#1b1b1b;stroke-width:0.21600001;stroke-miterlimit:22.92560005"
     id="polygon13"
     points="670.4,811.9 602.5,840.8 594.7,811.9 "
     stroke-miterlimit="22.9256" /><polygon
     style="clip-rule:evenodd;fill:#0f0f0f;fill-rule:evenodd;stroke:#1b1b1b;stroke-width:0.21600001;stroke-miterlimit:22.92560005"
     id="polygon15"
     points="796.8,811.9 707.3,811.9 797.8,840.5 "
     stroke-miterlimit="22.9256" /><polygon
     style="clip-rule:evenodd;fill:#1b1b1b;fill-rule:evenodd;stroke:#1b1b1b;stroke-width:0.21600001;stroke-miterlimit:22.92560005"
     id="polygon17"
     points="689.8,811.9 794.4,1005.8 797.8,840.5 707.3,811.9 "
     stroke-miterlimit="22.9256" /><polygon
     style="clip-rule:evenodd;fill:#0f0f0f;fill-rule:evenodd;stroke:#1b1b1b;stroke-width:0.21600001;stroke-miterlimit:22.92560005"
     id="polygon19"
     points="688.1,811.9 726,945 794.4,1005.8 689.8,811.9 "
     stroke-miterlimit="22.9256" /><polygon
     style="clip-rule:evenodd;fill:#1b1b1b;fill-rule:evenodd;stroke:#1b1b1b;stroke-width:0.21600001;stroke-miterlimit:22.92560005"
     id="polygon21"
     points="683.1,811.9 623.1,943.5 726,945 688.1,811.9 "
     stroke-miterlimit="22.9256" /><polygon
     style="clip-rule:evenodd;fill:#0f0f0f;fill-rule:evenodd;stroke:#1b1b1b;stroke-width:0.21600001;stroke-miterlimit:22.92560005"
     id="polygon23"
     points="623.1,943.5 683.1,811.9 670.4,811.9 602.5,840.8 "
     stroke-miterlimit="22.9256" /><polygon
     style="clip-rule:evenodd;fill:#0f0f0f;fill-rule:evenodd;stroke:#1b1b1b;stroke-width:0.21600001;stroke-miterlimit:22.92560005"
     id="polygon25"
     points="417.8,811.9 418.2,887.1 602.5,840.8 556.3,811.9 "
     stroke-miterlimit="22.9256" /><polygon
     style="clip-rule:evenodd;fill:#1b1b1b;fill-rule:evenodd;stroke:#1b1b1b;stroke-width:0.21600001;stroke-miterlimit:22.92560005"
     id="polygon27"
     points="623.1,943.5 602.5,840.8 418.2,887.1 "
     stroke-miterlimit="22.9256" /><polygon
     style="clip-rule:evenodd;fill:#1b1b1b;fill-rule:evenodd;stroke:#1b1b1b;stroke-width:0.21600001;stroke-miterlimit:22.92560005"
     id="polygon29"
     points="202.4,1045.3 162.8,965.5 210.8,887.1 "
     stroke-miterlimit="22.9256" /><polygon
     style="clip-rule:evenodd;fill:#0f0f0f;fill-rule:evenodd;stroke:#1b1b1b;stroke-width:0.21600001;stroke-miterlimit:22.92560005"
     id="polygon31"
     points="37.6,959.9 37.6,947.9 162.8,965.5 202.4,1045.3 "
     stroke-miterlimit="22.9256" /><polygon
     style="clip-rule:evenodd;fill-rule:evenodd;stroke:#1b1b1b;stroke-width:0.21600001;stroke-miterlimit:22.92560005"
     id="polygon33"
     points="247.4,1151.2 206.6,966.2 202.4,1045.3 "
     stroke-miterlimit="22.9256" /><polygon
     style="clip-rule:evenodd;fill:#0f0f0f;fill-rule:evenodd;stroke:#1b1b1b;stroke-width:0.21600001;stroke-miterlimit:22.92560005"
     id="polygon35"
     points="349.7,1221.4 349.7,945 247.4,1151.2 "
     stroke-miterlimit="22.9256" /><polygon
     style="clip-rule:evenodd;fill:#0f0f0f;fill-rule:evenodd;stroke:#1b1b1b;stroke-width:0.21600001;stroke-miterlimit:22.92560005"
     id="polygon37"
     points="102.4,1118 202.4,1045.3 247.4,1151.2 "
     stroke-miterlimit="22.9256" /><polygon
     style="clip-rule:evenodd;fill:#1b1b1b;fill-rule:evenodd;stroke:#1b1b1b;stroke-width:0.21600001;stroke-miterlimit:22.92560005"
     id="polygon39"
     points="37.6,1000.8 37.6,959.9 202.4,1045.3 102.4,1118 "
     stroke-miterlimit="22.9256" /><polygon
     style="clip-rule:evenodd;fill:#0f0f0f;fill-rule:evenodd;stroke:#1b1b1b;stroke-width:0.21600001;stroke-miterlimit:22.92560005"
     id="polygon41"
     points="37.6,1061.8 37.6,1000.8 102.4,1118 "
     stroke-miterlimit="22.9256" /><polygon
     style="clip-rule:evenodd;fill-rule:evenodd;stroke:#1b1b1b;stroke-width:0.21600001;stroke-miterlimit:22.92560005"
     id="polygon43"
     points="37.6,1162.8 37.6,1061.8 102.4,1118 "
     stroke-miterlimit="22.9256" /><polygon
     style="clip-rule:evenodd;fill:#1b1b1b;fill-rule:evenodd;stroke:#1b1b1b;stroke-width:0.21600001;stroke-miterlimit:22.92560005"
     id="polygon45"
     points="37.6,1248.1 157.8,1323.4 102.4,1118 37.6,1162.8 "
     stroke-miterlimit="22.9256" /><polygon
     style="clip-rule:evenodd;fill:#0f0f0f;fill-rule:evenodd;stroke:#1b1b1b;stroke-width:0.21600001;stroke-miterlimit:22.92560005"
     id="polygon47"
     points="241.5,1287.7 157.8,1323.4 102.4,1118 "
     stroke-miterlimit="22.9256" /><polygon
     style="clip-rule:evenodd;fill:#1b1b1b;fill-rule:evenodd;stroke:#1b1b1b;stroke-width:0.21600001;stroke-miterlimit:22.92560005"
     id="polygon49"
     points="247.4,1151.2 241.5,1287.7 102.4,1118 "
     stroke-miterlimit="22.9256" /><polygon
     style="clip-rule:evenodd;fill:#0f0f0f;fill-rule:evenodd;stroke:#1b1b1b;stroke-width:0.21600001;stroke-miterlimit:22.92560005"
     id="polygon51"
     points="349.7,1221.4 247.4,1151.2 241.5,1287.7 "
     stroke-miterlimit="22.9256" /><polygon
     style="clip-rule:evenodd;fill:#1b1b1b;fill-rule:evenodd;stroke:#1b1b1b;stroke-width:0.21600001;stroke-miterlimit:22.92560005"
     id="polygon53"
     points="338.8,1318.6 349.7,1221.4 241.5,1287.7 "
     stroke-miterlimit="22.9256" /><polygon
     style="clip-rule:evenodd;fill:#0f0f0f;fill-rule:evenodd;stroke:#1b1b1b;stroke-width:0.21600001;stroke-miterlimit:22.92560005"
     id="polygon55"
     points="349.7,1488.4 338.8,1318.6 241.5,1287.7 "
     stroke-miterlimit="22.9256" /><polygon
     style="clip-rule:evenodd;fill:#1b1b1b;fill-rule:evenodd;stroke:#1b1b1b;stroke-width:0.21600001;stroke-miterlimit:22.92560005"
     id="polygon57"
     points="281.3,1427.6 349.7,1488.4 241.5,1287.7 "
     stroke-miterlimit="22.9256" /><polygon
     style="clip-rule:evenodd;fill-rule:evenodd;stroke:#1b1b1b;stroke-width:0.21600001;stroke-miterlimit:22.92560005"
     id="polygon59"
     points="178.4,1426.1 281.3,1427.6 241.5,1287.7 "
     stroke-miterlimit="22.9256" /><polygon
     style="clip-rule:evenodd;fill:#1b1b1b;fill-rule:evenodd;stroke:#1b1b1b;stroke-width:0.21600001;stroke-miterlimit:22.92560005"
     id="polygon61"
     points="178.4,1426.1 241.5,1287.7 157.8,1323.4 "
     stroke-miterlimit="22.9256" /><polygon
     style="clip-rule:evenodd;fill:#0f0f0f;fill-rule:evenodd;stroke:#1b1b1b;stroke-width:0.21600001;stroke-miterlimit:22.92560005"
     id="polygon63"
     points="37.6,1353.6 157.8,1323.4 37.6,1248.1 "
     stroke-miterlimit="22.9256" /><polygon
     style="clip-rule:evenodd;fill:#1b1b1b;fill-rule:evenodd;stroke:#1b1b1b;stroke-width:0.21600001;stroke-miterlimit:22.92560005"
     id="polygon65"
     points="37.6,1387.3 178.4,1426.1 157.8,1323.4 37.6,1353.6 "
     stroke-miterlimit="22.9256" /><polygon
     style="clip-rule:evenodd;fill:#1b1b1b;fill-rule:evenodd;stroke:#1b1b1b;stroke-width:0.21600001;stroke-miterlimit:22.92560005"
     id="polygon67"
     points="497,1045.3 485.1,944.2 349.7,945 "
     stroke-miterlimit="22.9256" /><polygon
     style="clip-rule:evenodd;fill:#0f0f0f;fill-rule:evenodd;stroke:#1b1b1b;stroke-width:0.21600001;stroke-miterlimit:22.92560005"
     id="polygon69"
     points="623.1,943.5 485.1,944.2 497,1045.3 "
     stroke-miterlimit="22.9256" /><polygon
     style="clip-rule:evenodd;fill:#0f0f0f;fill-rule:evenodd;stroke:#1b1b1b;stroke-width:0.21600001;stroke-miterlimit:22.92560005"
     id="polygon71"
     points="452,1151.2 349.7,945 497,1045.3 "
     stroke-miterlimit="22.9256" /><polygon
     style="clip-rule:evenodd;fill:#1b1b1b;fill-rule:evenodd;stroke:#1b1b1b;stroke-width:0.21600001;stroke-miterlimit:22.92560005"
     id="polygon73"
     points="349.7,1221.4 349.7,945 452,1151.2 "
     stroke-miterlimit="22.9256" /><polygon
     style="clip-rule:evenodd;fill:#0f0f0f;fill-rule:evenodd;stroke:#1b1b1b;stroke-width:0.21600001;stroke-miterlimit:22.92560005"
     id="polygon75"
     points="597,1118 497,1045.3 452,1151.2 "
     stroke-miterlimit="22.9256" /><polygon
     style="clip-rule:evenodd;fill:#1b1b1b;fill-rule:evenodd;stroke:#1b1b1b;stroke-width:0.21600001;stroke-miterlimit:22.92560005"
     id="polygon77"
     points="623.1,943.5 497,1045.3 597,1118 "
     stroke-miterlimit="22.9256" /><polygon
     style="clip-rule:evenodd;fill:#0f0f0f;fill-rule:evenodd;stroke:#1b1b1b;stroke-width:0.21600001;stroke-miterlimit:22.92560005"
     id="polygon79"
     points="726,945 623.1,943.5 597,1118 "
     stroke-miterlimit="22.9256" /><polygon
     style="clip-rule:evenodd;fill:#1b1b1b;fill-rule:evenodd;stroke:#1b1b1b;stroke-width:0.21600001;stroke-miterlimit:22.92560005"
     id="polygon81"
     points="726.7,1207.6 726,945 597,1118 "
     stroke-miterlimit="22.9256" /><polygon
     style="clip-rule:evenodd;fill-rule:evenodd;stroke:#1b1b1b;stroke-width:0.21600001;stroke-miterlimit:22.92560005"
     id="polygon83"
     points="794.4,1005.8 726,945 726.7,1207.6 "
     stroke-miterlimit="22.9256" /><polygon
     style="clip-rule:evenodd;fill:#0f0f0f;fill-rule:evenodd;stroke:#1b1b1b;stroke-width:0.21600001;stroke-miterlimit:22.92560005"
     id="polygon85"
     points="541.6,1323.4 597,1118 726.7,1207.6 "
     stroke-miterlimit="22.9256" /><polygon
     style="clip-rule:evenodd;fill-rule:evenodd;stroke:#1b1b1b;stroke-width:0.21600001;stroke-miterlimit:22.92560005"
     id="polygon87"
     points="457.9,1287.7 541.6,1323.4 597,1118 "
     stroke-miterlimit="22.9256" /><polygon
     style="clip-rule:evenodd;fill:#1b1b1b;fill-rule:evenodd;stroke:#1b1b1b;stroke-width:0.21600001;stroke-miterlimit:22.92560005"
     id="polygon89"
     points="452,1151.2 457.9,1287.7 597,1118 "
     stroke-miterlimit="22.9256" /><polygon
     style="clip-rule:evenodd;fill:#0f0f0f;fill-rule:evenodd;stroke:#1b1b1b;stroke-width:0.21600001;stroke-miterlimit:22.92560005"
     id="polygon91"
     points="349.7,1221.4 452,1151.2 457.9,1287.7 "
     stroke-miterlimit="22.9256" /><polygon
     style="clip-rule:evenodd;fill-rule:evenodd;stroke:#1b1b1b;stroke-width:0.21600001;stroke-miterlimit:22.92560005"
     id="polygon93"
     points="338.8,1318.6 349.7,1221.4 457.9,1287.7 "
     stroke-miterlimit="22.9256" /><polygon
     style="clip-rule:evenodd;fill:#1b1b1b;fill-rule:evenodd;stroke:#1b1b1b;stroke-width:0.21600001;stroke-miterlimit:22.92560005"
     id="polygon95"
     points="349.7,1488.4 338.8,1318.6 457.9,1287.7 "
     stroke-miterlimit="22.9256" /><polygon
     style="clip-rule:evenodd;fill:#0f0f0f;fill-rule:evenodd;stroke:#1b1b1b;stroke-width:0.21600001;stroke-miterlimit:22.92560005"
     id="polygon97"
     points="418.1,1427.6 349.7,1488.4 457.9,1287.7 "
     stroke-miterlimit="22.9256" /><polygon
     style="clip-rule:evenodd;fill:#1b1b1b;fill-rule:evenodd;stroke:#1b1b1b;stroke-width:0.21600001;stroke-miterlimit:22.92560005"
     id="polygon99"
     points="521,1426.1 418.1,1427.6 457.9,1287.7 "
     stroke-miterlimit="22.9256" /><polygon
     style="clip-rule:evenodd;fill:#0f0f0f;fill-rule:evenodd;stroke:#1b1b1b;stroke-width:0.21600001;stroke-miterlimit:22.92560005"
     id="polygon101"
     points="521,1426.1 457.9,1287.7 541.6,1323.4 "
     stroke-miterlimit="22.9256" /><polygon
     style="clip-rule:evenodd;fill:#1b1b1b;fill-rule:evenodd;stroke:#1b1b1b;stroke-width:0.21600001;stroke-miterlimit:22.92560005"
     id="polygon103"
     points="725.9,1369.6 541.6,1323.4 726.7,1207.6 "
     stroke-miterlimit="22.9256" /><polygon
     style="clip-rule:evenodd;fill-rule:evenodd;stroke:#1b1b1b;stroke-width:0.21600001;stroke-miterlimit:22.92560005"
     id="polygon105"
     points="521,1426.1 541.6,1323.4 725.9,1369.6 "
     stroke-miterlimit="22.9256" /><polygon
     style="clip-rule:evenodd;fill:#0f0f0f;fill-rule:evenodd;stroke:#1b1b1b;stroke-width:0.21600001;stroke-miterlimit:22.92560005"
     id="polygon107"
     points="210.8,887.1 211.2,811.9 254.2,811.9 268.8,841.6 "
     stroke-miterlimit="22.9256" /><polygon
     style="clip-rule:evenodd;fill:#0f0f0f;fill-rule:evenodd;stroke:#1b1b1b;stroke-width:0.21600001;stroke-miterlimit:22.92560005"
     id="polygon109"
     points="417.8,811.9 418.2,887.1 297.3,819.2 306.7,811.9 "
     stroke-miterlimit="22.9256" /><polygon
     style="clip-rule:evenodd;fill:#1b1b1b;fill-rule:evenodd;stroke:#1b1b1b;stroke-width:0.21600001;stroke-miterlimit:22.92560005"
     id="polygon111"
     points="210.8,887.1 297.2,819.2 418.2,887.1 "
     stroke-miterlimit="22.9256" /><polygon
     style="clip-rule:evenodd;fill:#0f0f0f;fill-rule:evenodd;stroke:#1b1b1b;stroke-width:0.21600001;stroke-miterlimit:22.92560005"
     id="polygon113"
     points="254.2,811.9 306.3,811.9 268.6,841.3 "
     stroke-miterlimit="22.9256" /><polygon
     style="clip-rule:evenodd;fill:#1b1b1b;fill-rule:evenodd;stroke:#1b1b1b;stroke-width:0.21600001;stroke-miterlimit:22.92560005"
     id="polygon115"
     points="162.8,965.5 37.6,947.9 37.6,934.8 210.8,887.1 "
     stroke-miterlimit="22.9256" /><polygon
     style="clip-rule:evenodd;fill-rule:evenodd;stroke:#1b1b1b;stroke-width:0.21600001;stroke-miterlimit:22.92560005"
     id="polygon117"
     points="206.4,969.1 349.7,945 210.8,887.1 "
     stroke-miterlimit="22.9256" /><polygon
     style="clip-rule:evenodd;fill:#1b1b1b;fill-rule:evenodd;stroke:#1b1b1b;stroke-width:0.21600001;stroke-miterlimit:22.92560005"
     id="polygon119"
     points="207.2,969 349.7,945 247.4,1151.2 "
     stroke-miterlimit="22.9256" /><polygon
     style="clip-rule:evenodd;fill:#0f0f0f;fill-rule:evenodd;stroke:#1b1b1b;stroke-width:0.21600001;stroke-miterlimit:22.92560005"
     id="polygon121"
     points="349.7,945 210.8,887.1 418.2,887.1 "
     stroke-miterlimit="22.9256" /><polygon
     style="clip-rule:evenodd;fill-rule:evenodd;stroke:#1b1b1b;stroke-width:0.21600001;stroke-miterlimit:22.92560005"
     id="polygon123"
     points="623.1,943.5 349.7,945 418.2,887.1 "
     stroke-miterlimit="22.9256" /><polygon
     style="clip-rule:evenodd;fill-rule:evenodd;stroke:#1b1b1b;stroke-width:0.21600001;stroke-miterlimit:22.92560005"
     id="polygon125"
     points="1554.5,811.9 1516.1,811.9 1562.3,840.8 "
     stroke-miterlimit="22.9256" /><polygon
     style="clip-rule:evenodd;fill:#1b1b1b;fill-rule:evenodd;stroke:#1b1b1b;stroke-width:0.21600001;stroke-miterlimit:22.92560005"
     id="polygon127"
     points="1630.2,811.9 1562.3,840.8 1554.5,811.9 "
     stroke-miterlimit="22.9256" /><polygon
     style="clip-rule:evenodd;fill:#1b1b1b;fill-rule:evenodd;stroke:#1b1b1b;stroke-width:0.21600001;stroke-miterlimit:22.92560005"
     id="polygon129"
     points="1646.2,944.4 1646.2,811.9 1642.9,811.9 1582.8,943.5 "
     stroke-miterlimit="22.9256" /><polygon
     style="clip-rule:evenodd;fill-rule:evenodd;stroke:#1b1b1b;stroke-width:0.21600001;stroke-miterlimit:22.92560005"
     id="polygon131"
     points="1582.8,943.5 1642.9,811.9 1630.2,811.9 1562.3,840.8 "
     stroke-miterlimit="22.9256" /><polygon
     style="clip-rule:evenodd;fill:#1b1b1b;fill-rule:evenodd;stroke:#1b1b1b;stroke-width:0.21600001;stroke-miterlimit:22.92560005"
     id="polygon133"
     points="1377.6,811.9 1377.9,887.1 1562.3,840.8 1516.1,811.9 "
     stroke-miterlimit="22.9256" /><polygon
     style="clip-rule:evenodd;fill:#0f0f0f;fill-rule:evenodd;stroke:#1b1b1b;stroke-width:0.21600001;stroke-miterlimit:22.92560005"
     id="polygon135"
     points="1582.8,943.5 1562.3,840.8 1377.9,887.1 "
     stroke-miterlimit="22.9256" /><polygon
     style="clip-rule:evenodd;fill:#0f0f0f;fill-rule:evenodd;stroke:#1b1b1b;stroke-width:0.21600001;stroke-miterlimit:22.92560005"
     id="polygon137"
     points="994,811.9 1032.5,811.9 986.2,840.8 "
     stroke-miterlimit="22.9256" /><polygon
     style="clip-rule:evenodd;fill:#0f0f0f;fill-rule:evenodd;stroke:#1b1b1b;stroke-width:0.21600001;stroke-miterlimit:22.92560005"
     id="polygon139"
     points="918.4,811.9 986.2,840.8 994,811.9 "
     stroke-miterlimit="22.9256" /><polygon
     style="clip-rule:evenodd;fill:#0f0f0f;fill-rule:evenodd;stroke:#1b1b1b;stroke-width:0.21600001;stroke-miterlimit:22.92560005"
     id="polygon141"
     points="792,811.9 881.4,811.9 791,840.5 "
     stroke-miterlimit="22.9256" /><polygon
     style="clip-rule:evenodd;fill:#1b1b1b;fill-rule:evenodd;stroke:#1b1b1b;stroke-width:0.21600001;stroke-miterlimit:22.92560005"
     id="polygon143"
     points="899,811.9 794.4,1005.8 791,840.5 881.4,811.9 "
     stroke-miterlimit="22.9256" /><polygon
     style="clip-rule:evenodd;fill:#0f0f0f;fill-rule:evenodd;stroke:#1b1b1b;stroke-width:0.21600001;stroke-miterlimit:22.92560005"
     id="polygon145"
     points="900.7,811.9 862.8,945 794.4,1005.8 899,811.9 "
     stroke-miterlimit="22.9256" /><polygon
     style="clip-rule:evenodd;fill:#0f0f0f;fill-rule:evenodd;stroke:#1b1b1b;stroke-width:0.21600001;stroke-miterlimit:22.92560005"
     id="polygon147"
     points="905.7,811.9 965.7,943.5 862.8,945 900.7,811.9 "
     stroke-miterlimit="22.9256" /><polygon
     style="clip-rule:evenodd;fill:#1b1b1b;fill-rule:evenodd;stroke:#1b1b1b;stroke-width:0.21600001;stroke-miterlimit:22.92560005"
     id="polygon149"
     points="965.7,943.5 905.7,811.9 918.4,811.9 986.2,840.8 "
     stroke-miterlimit="22.9256" /><polygon
     style="clip-rule:evenodd;fill:#0f0f0f;fill-rule:evenodd;stroke:#1b1b1b;stroke-width:0.21600001;stroke-miterlimit:22.92560005"
     id="polygon151"
     points="1170.9,811.9 1170.6,887.1 986.2,840.8 1032.5,811.9 "
     stroke-miterlimit="22.9256" /><polygon
     style="clip-rule:evenodd;fill:#1b1b1b;fill-rule:evenodd;stroke:#1b1b1b;stroke-width:0.21600001;stroke-miterlimit:22.92560005"
     id="polygon153"
     points="965.7,943.5 986.2,840.8 1170.6,887.1 "
     stroke-miterlimit="22.9256" /><polygon
     style="clip-rule:evenodd;fill:#0f0f0f;fill-rule:evenodd;stroke:#1b1b1b;stroke-width:0.21600001;stroke-miterlimit:22.92560005"
     id="polygon155"
     points="1386.4,1045.3 1426,965.5 1377.9,887.1 "
     stroke-miterlimit="22.9256" /><polygon
     style="clip-rule:evenodd;fill:#0f0f0f;fill-rule:evenodd;stroke:#1b1b1b;stroke-width:0.21600001;stroke-miterlimit:22.92560005"
     id="polygon157"
     points="1582.8,943.5 1426,965.5 1386.4,1045.3 "
     stroke-miterlimit="22.9256" /><polygon
     style="clip-rule:evenodd;fill:#0f0f0f;fill-rule:evenodd;stroke:#1b1b1b;stroke-width:0.21600001;stroke-miterlimit:22.92560005"
     id="polygon159"
     points="1341.3,1151.2 1382.2,966.2 1386.4,1045.3 "
     stroke-miterlimit="22.9256" /><polygon
     style="clip-rule:evenodd;fill:#0f0f0f;fill-rule:evenodd;stroke:#1b1b1b;stroke-width:0.21600001;stroke-miterlimit:22.92560005"
     id="polygon161"
     points="1239,1221.4 1239,945 1341.3,1151.2 "
     stroke-miterlimit="22.9256" /><polygon
     style="clip-rule:evenodd;fill:#0f0f0f;fill-rule:evenodd;stroke:#1b1b1b;stroke-width:0.21600001;stroke-miterlimit:22.92560005"
     id="polygon163"
     points="1486.3,1118 1386.4,1045.3 1341.3,1151.2 "
     stroke-miterlimit="22.9256" /><polygon
     style="clip-rule:evenodd;fill:#1b1b1b;fill-rule:evenodd;stroke:#1b1b1b;stroke-width:0.21600001;stroke-miterlimit:22.92560005"
     id="polygon165"
     points="1582.8,943.5 1386.4,1045.3 1486.3,1118 "
     stroke-miterlimit="22.9256" /><polygon
     style="clip-rule:evenodd;fill:#0f0f0f;fill-rule:evenodd;stroke:#1b1b1b;stroke-width:0.21600001;stroke-miterlimit:22.92560005"
     id="polygon167"
     points="1646.2,979.3 1646.2,944.4 1582.8,943.5 1486.3,1118 "
     stroke-miterlimit="22.9256" /><polygon
     style="clip-rule:evenodd;fill:#1b1b1b;fill-rule:evenodd;stroke:#1b1b1b;stroke-width:0.21600001;stroke-miterlimit:22.92560005"
     id="polygon169"
     points="1616,1207.6 1646.2,1093.9 1646.2,979.3 1486.3,1118 "
     stroke-miterlimit="22.9256" /><polygon
     style="clip-rule:evenodd;fill:#0f0f0f;fill-rule:evenodd;stroke:#1b1b1b;stroke-width:0.21600001;stroke-miterlimit:22.92560005"
     id="polygon171"
     points="1646.2,1180.3 1646.2,1093.9 1616,1207.6 "
     stroke-miterlimit="22.9256" /><polygon
     style="clip-rule:evenodd;fill:#0f0f0f;fill-rule:evenodd;stroke:#1b1b1b;stroke-width:0.21600001;stroke-miterlimit:22.92560005"
     id="polygon173"
     points="1430.9,1323.4 1486.3,1118 1616,1207.6 "
     stroke-miterlimit="22.9256" /><polygon
     style="clip-rule:evenodd;fill-rule:evenodd;stroke:#1b1b1b;stroke-width:0.21600001;stroke-miterlimit:22.92560005"
     id="polygon175"
     points="1347.3,1287.7 1430.9,1323.4 1486.3,1118 "
     stroke-miterlimit="22.9256" /><polygon
     style="clip-rule:evenodd;fill:#1b1b1b;fill-rule:evenodd;stroke:#1b1b1b;stroke-width:0.21600001;stroke-miterlimit:22.92560005"
     id="polygon177"
     points="1341.3,1151.2 1347.3,1287.7 1486.3,1118 "
     stroke-miterlimit="22.9256" /><polygon
     style="clip-rule:evenodd;fill:#1b1b1b;fill-rule:evenodd;stroke:#1b1b1b;stroke-width:0.21600001;stroke-miterlimit:22.92560005"
     id="polygon179"
     points="1239,1221.4 1341.3,1151.2 1347.3,1287.7 "
     stroke-miterlimit="22.9256" /><polygon
     style="clip-rule:evenodd;fill-rule:evenodd;stroke:#1b1b1b;stroke-width:0.21600001;stroke-miterlimit:22.92560005"
     id="polygon181"
     points="1235.7,1323.1 1239,1221.4 1347.3,1287.7 "
     stroke-miterlimit="22.9256" /><polygon
     style="clip-rule:evenodd;fill-rule:evenodd;stroke:#1b1b1b;stroke-width:0.21600001;stroke-miterlimit:22.92560005"
     id="polygon183"
     points="1410.4,1426.1 1307.4,1427.6 1347.3,1287.7 "
     stroke-miterlimit="22.9256" /><polygon
     style="clip-rule:evenodd;fill:#0f0f0f;fill-rule:evenodd;stroke:#1b1b1b;stroke-width:0.21600001;stroke-miterlimit:22.92560005"
     id="polygon185"
     points="1410.4,1426.1 1347.3,1287.7 1430.9,1323.4 "
     stroke-miterlimit="22.9256" /><polygon
     style="clip-rule:evenodd;fill:#1b1b1b;fill-rule:evenodd;stroke:#1b1b1b;stroke-width:0.21600001;stroke-miterlimit:22.92560005"
     id="polygon187"
     points="1615.3,1369.6 1430.9,1323.4 1616,1207.6 "
     stroke-miterlimit="22.9256" /><polygon
     style="clip-rule:evenodd;fill-rule:evenodd;stroke:#1b1b1b;stroke-width:0.21600001;stroke-miterlimit:22.92560005"
     id="polygon189"
     points="1410.4,1426.1 1430.9,1323.4 1615.3,1369.6 "
     stroke-miterlimit="22.9256" /><polygon
     style="clip-rule:evenodd;fill:#1b1b1b;fill-rule:evenodd;stroke:#1b1b1b;stroke-width:0.21600001;stroke-miterlimit:22.92560005"
     id="polygon191"
     points="1091.7,1045.3 1103.6,944.2 1239,945 "
     stroke-miterlimit="22.9256" /><polygon
     style="clip-rule:evenodd;fill:#1b1b1b;fill-rule:evenodd;stroke:#1b1b1b;stroke-width:0.21600001;stroke-miterlimit:22.92560005"
     id="polygon193"
     points="965.7,943.5 1103.6,944.2 1091.7,1045.3 "
     stroke-miterlimit="22.9256" /><polygon
     style="clip-rule:evenodd;fill:#0f0f0f;fill-rule:evenodd;stroke:#1b1b1b;stroke-width:0.21600001;stroke-miterlimit:22.92560005"
     id="polygon195"
     points="1136.8,1151.2 1239,945 1091.7,1045.3 "
     stroke-miterlimit="22.9256" /><polygon
     style="clip-rule:evenodd;fill:#1b1b1b;fill-rule:evenodd;stroke:#1b1b1b;stroke-width:0.21600001;stroke-miterlimit:22.92560005"
     id="polygon197"
     points="1239,1221.4 1239,945 1136.8,1151.2 "
     stroke-miterlimit="22.9256" /><polygon
     style="clip-rule:evenodd;fill:#0f0f0f;fill-rule:evenodd;stroke:#1b1b1b;stroke-width:0.21600001;stroke-miterlimit:22.92560005"
     id="polygon199"
     points="991.8,1118 1091.7,1045.3 1136.8,1151.2 "
     stroke-miterlimit="22.9256" /><polygon
     style="clip-rule:evenodd;fill:#0f0f0f;fill-rule:evenodd;stroke:#1b1b1b;stroke-width:0.21600001;stroke-miterlimit:22.92560005"
     id="polygon201"
     points="965.7,943.5 1091.7,1045.3 991.8,1118 "
     stroke-miterlimit="22.9256" /><polygon
     style="clip-rule:evenodd;fill:#0f0f0f;fill-rule:evenodd;stroke:#1b1b1b;stroke-width:0.21600001;stroke-miterlimit:22.92560005"
     id="polygon203"
     points="862.8,945 965.7,943.5 991.8,1118 "
     stroke-miterlimit="22.9256" /><polygon
     style="clip-rule:evenodd;fill:#1b1b1b;fill-rule:evenodd;stroke:#1b1b1b;stroke-width:0.21600001;stroke-miterlimit:22.92560005"
     id="polygon205"
     points="862.1,1207.6 862.8,945 991.8,1118 "
     stroke-miterlimit="22.9256" /><polygon
     style="clip-rule:evenodd;fill-rule:evenodd;stroke:#1b1b1b;stroke-width:0.21600001;stroke-miterlimit:22.92560005"
     id="polygon207"
     points="794.4,1005.8 862.8,945 862.1,1207.6 "
     stroke-miterlimit="22.9256" /><polygon
     style="clip-rule:evenodd;fill:#0f0f0f;fill-rule:evenodd;stroke:#1b1b1b;stroke-width:0.21600001;stroke-miterlimit:22.92560005"
     id="polygon209"
     points="1047.2,1323.4 991.8,1118 862.1,1207.6 "
     stroke-miterlimit="22.9256" /><polygon
     style="clip-rule:evenodd;fill:#1b1b1b;fill-rule:evenodd;stroke:#1b1b1b;stroke-width:0.21600001;stroke-miterlimit:22.92560005"
     id="polygon211"
     points="1130.8,1287.7 1047.2,1323.4 991.8,1118 "
     stroke-miterlimit="22.9256" /><polygon
     style="clip-rule:evenodd;fill:#1b1b1b;fill-rule:evenodd;stroke:#1b1b1b;stroke-width:0.21600001;stroke-miterlimit:22.92560005"
     id="polygon213"
     points="1136.8,1151.2 1130.8,1287.7 991.8,1118 "
     stroke-miterlimit="22.9256" /><polygon
     style="clip-rule:evenodd;fill:#0f0f0f;fill-rule:evenodd;stroke:#1b1b1b;stroke-width:0.21600001;stroke-miterlimit:22.92560005"
     id="polygon215"
     points="1239,1221.4 1136.8,1151.2 1130.8,1287.7 "
     stroke-miterlimit="22.9256" /><polygon
     style="clip-rule:evenodd;fill:#1b1b1b;fill-rule:evenodd;stroke:#1b1b1b;stroke-width:0.21600001;stroke-miterlimit:22.92560005"
     id="polygon217"
     points="1235.7,1323.1 1239,1221.4 1130.8,1287.7 "
     stroke-miterlimit="22.9256" /><polygon
     style="clip-rule:evenodd;fill:#1b1b1b;fill-rule:evenodd;stroke:#1b1b1b;stroke-width:0.21600001;stroke-miterlimit:22.92560005"
     id="polygon219"
     points="1067.7,1426.1 1170.7,1427.6 1130.8,1287.7 "
     stroke-miterlimit="22.9256" /><polygon
     style="clip-rule:evenodd;fill:#0f0f0f;fill-rule:evenodd;stroke:#1b1b1b;stroke-width:0.21600001;stroke-miterlimit:22.92560005"
     id="polygon221"
     points="1067.7,1426.1 1130.8,1287.7 1047.2,1323.4 "
     stroke-miterlimit="22.9256" /><polygon
     style="clip-rule:evenodd;fill-rule:evenodd;stroke:#1b1b1b;stroke-width:0.21600001;stroke-miterlimit:22.92560005"
     id="polygon223"
     points="861.2,1371.5 1047.2,1323.4 862.1,1207.6 "
     stroke-miterlimit="22.9256" /><polygon
     style="clip-rule:evenodd;fill:#1b1b1b;fill-rule:evenodd;stroke:#1b1b1b;stroke-width:0.21600001;stroke-miterlimit:22.92560005"
     id="polygon225"
     points="1067.7,1426.1 1047.2,1323.4 861.2,1371.5 "
     stroke-miterlimit="22.9256" /><polygon
     style="clip-rule:evenodd;fill:#1b1b1b;fill-rule:evenodd;stroke:#1b1b1b;stroke-width:0.21600001;stroke-miterlimit:22.92560005"
     id="polygon227"
     points="1377.9,887.1 1377.6,811.9 1334.5,811.9 1320,841.6 "
     stroke-miterlimit="22.9256" /><polygon
     style="clip-rule:evenodd;fill:#1b1b1b;fill-rule:evenodd;stroke:#1b1b1b;stroke-width:0.21600001;stroke-miterlimit:22.92560005"
     id="polygon229"
     points="1170.9,811.9 1170.6,887.1 1291.5,819.2 1282.1,811.9 "
     stroke-miterlimit="22.9256" /><polygon
     style="clip-rule:evenodd;fill:#0f0f0f;fill-rule:evenodd;stroke:#1b1b1b;stroke-width:0.21600001;stroke-miterlimit:22.92560005"
     id="polygon231"
     points="1377.9,887.1 1291.6,819.2 1170.6,887.1 "
     stroke-miterlimit="22.9256" /><polygon
     style="clip-rule:evenodd;fill:#0f0f0f;fill-rule:evenodd;stroke:#1b1b1b;stroke-width:0.21600001;stroke-miterlimit:22.92560005"
     id="polygon233"
     points="1334.5,811.9 1282.5,811.9 1320.1,841.3 "
     stroke-miterlimit="22.9256" /><polygon
     style="clip-rule:evenodd;fill:#1b1b1b;fill-rule:evenodd;stroke:#1b1b1b;stroke-width:0.21600001;stroke-miterlimit:22.92560005"
     id="polygon235"
     points="1426,965.5 1582.8,943.5 1377.9,887.1 "
     stroke-miterlimit="22.9256" /><polygon
     style="clip-rule:evenodd;fill-rule:evenodd;stroke:#1b1b1b;stroke-width:0.21600001;stroke-miterlimit:22.92560005"
     id="polygon237"
     points="1382.3,969.1 1239,945 1377.9,887.1 "
     stroke-miterlimit="22.9256" /><polygon
     style="clip-rule:evenodd;fill:#1b1b1b;fill-rule:evenodd;stroke:#1b1b1b;stroke-width:0.21600001;stroke-miterlimit:22.92560005"
     id="polygon239"
     points="1381.5,969 1239,945 1341.3,1151.2 "
     stroke-miterlimit="22.9256" /><polygon
     style="clip-rule:evenodd;fill:#1b1b1b;fill-rule:evenodd;stroke:#1b1b1b;stroke-width:0.21600001;stroke-miterlimit:22.92560005"
     id="polygon241"
     points="1239,945 1377.9,887.1 1170.6,887.1 "
     stroke-miterlimit="22.9256" /><polygon
     style="clip-rule:evenodd;fill-rule:evenodd;stroke:#1b1b1b;stroke-width:0.21600001;stroke-miterlimit:22.92560005"
     id="polygon243"
     points="965.7,943.5 1239,945 1170.6,887.1 "
     stroke-miterlimit="22.9256" /><polygon
     style="clip-rule:evenodd;fill:#0f0f0f;fill-rule:evenodd;stroke:#1b1b1b;stroke-width:0.21600001;stroke-miterlimit:22.92560005"
     id="polygon245"
     points="1646.2,1216.6 1646.2,1180.3 1616,1207.6 "
     stroke-miterlimit="22.9256" /><polygon
     style="clip-rule:evenodd;fill-rule:evenodd;stroke:#1b1b1b;stroke-width:0.21600001;stroke-miterlimit:22.92560005"
     id="polygon247"
     points="1646.2,1357 1646.2,1216.6 1616,1207.6 1615.3,1369.6 "
     stroke-miterlimit="22.9256" /><polygon
     style="clip-rule:evenodd;fill-rule:evenodd;stroke:#1b1b1b;stroke-width:0.21600001;stroke-miterlimit:22.92560005"
     id="polygon249"
     points="37.6,1552.5 37.6,1503.2 48.7,1526.4 "
     stroke-miterlimit="22.9256" /><polygon
     style="clip-rule:evenodd;fill:#0f0f0f;fill-rule:evenodd;stroke:#1b1b1b;stroke-width:0.21600001;stroke-miterlimit:22.92560005"
     id="polygon251"
     points="37.6,1572.2 111.7,1572.2 48.7,1526.4 37.6,1552.5 "
     stroke-miterlimit="22.9256" /><polygon
     style="clip-rule:evenodd;fill:#1b1b1b;fill-rule:evenodd;stroke:#1b1b1b;stroke-width:0.21600001;stroke-miterlimit:22.92560005"
     id="polygon253"
     points="153.3,1572.2 178.4,1426.1 48.7,1526.4 111.7,1572.2 "
     stroke-miterlimit="22.9256" /><polygon
     style="clip-rule:evenodd;fill:#0f0f0f;fill-rule:evenodd;stroke:#1b1b1b;stroke-width:0.21600001;stroke-miterlimit:22.92560005"
     id="polygon255"
     points="234,1572.2 178.4,1426.1 153.3,1572.2 "
     stroke-miterlimit="22.9256" /><polygon
     style="clip-rule:evenodd;fill:#1b1b1b;fill-rule:evenodd;stroke:#1b1b1b;stroke-width:0.21600001;stroke-miterlimit:22.92560005"
     id="polygon257"
     points="353.3,1572.2 178.4,1426.1 234,1572.2 "
     stroke-miterlimit="22.9256" /><polygon
     style="clip-rule:evenodd;fill:#1b1b1b;fill-rule:evenodd;stroke:#1b1b1b;stroke-width:0.21600001;stroke-miterlimit:22.92560005"
     id="polygon259"
     points="733.4,1572.2 788.7,1572.2 861.2,1426.1 713.9,1526.4 "
     stroke-miterlimit="22.9256" /><polygon
     style="clip-rule:evenodd;fill-rule:evenodd;stroke:#1b1b1b;stroke-width:0.21600001;stroke-miterlimit:22.92560005"
     id="polygon261"
     points="861.2,1572.2 861.2,1426.1 788.7,1572.2 "
     stroke-miterlimit="22.9256" /><polygon
     style="clip-rule:evenodd;fill-rule:evenodd;stroke:#1b1b1b;stroke-width:0.21600001;stroke-miterlimit:22.92560005"
     id="polygon263"
     points="650.9,1572.2 713.9,1526.4 733.4,1572.2 "
     stroke-miterlimit="22.9256" /><polygon
     style="clip-rule:evenodd;fill:#0f0f0f;fill-rule:evenodd;stroke:#1b1b1b;stroke-width:0.21600001;stroke-miterlimit:22.92560005"
     id="polygon265"
     points="599.5,1572.2 521,1426.1 713.9,1526.4 650.9,1572.2 "
     stroke-miterlimit="22.9256" /><polygon
     style="clip-rule:evenodd;fill:#0f0f0f;fill-rule:evenodd;stroke:#1b1b1b;stroke-width:0.21600001;stroke-miterlimit:22.92560005"
     id="polygon267"
     points="454.7,1572.2 418.1,1427.6 583.2,1572.2 "
     stroke-miterlimit="22.9256" /><polygon
     style="clip-rule:evenodd;fill-rule:evenodd;stroke:#1b1b1b;stroke-width:0.21600001;stroke-miterlimit:22.92560005"
     id="polygon269"
     points="374.4,1572.2 349.7,1488.4 406,1572.2 "
     stroke-miterlimit="22.9256" /><polygon
     style="clip-rule:evenodd;fill:#0f0f0f;fill-rule:evenodd;stroke:#1b1b1b;stroke-width:0.21600001;stroke-miterlimit:22.92560005"
     id="polygon271"
     points="37.6,1503.2 48.7,1526.4 178.4,1426.1 37.6,1387.3 "
     stroke-miterlimit="22.9256" /><polygon
     style="clip-rule:evenodd;fill-rule:evenodd;stroke:#1b1b1b;stroke-width:0.21600001;stroke-miterlimit:22.92560005"
     id="polygon273"
     points="353.3,1572.2 264.5,1498 349.7,1488.4 374.4,1572.2 "
     stroke-miterlimit="22.9256" /><polygon
     style="clip-rule:evenodd;fill:#1b1b1b;fill-rule:evenodd;stroke:#1b1b1b;stroke-width:0.21600001;stroke-miterlimit:22.92560005"
     id="polygon275"
     points="281.3,1427.6 178.4,1426.1 264.5,1498 349.7,1488.4 "
     stroke-miterlimit="22.9256" /><polygon
     style="clip-rule:evenodd;fill:#1b1b1b;fill-rule:evenodd;stroke:#1b1b1b;stroke-width:0.21600001;stroke-miterlimit:22.92560005"
     id="polygon277"
     points="349.7,1488.4 406,1572.2 454.7,1572.2 418.1,1427.6 "
     stroke-miterlimit="22.9256" /><polygon
     style="clip-rule:evenodd;fill:#1b1b1b;fill-rule:evenodd;stroke:#1b1b1b;stroke-width:0.21600001;stroke-miterlimit:22.92560005"
     id="polygon279"
     points="599.5,1572.2 521,1426.1 418.1,1427.6 583.2,1572.2 "
     stroke-miterlimit="22.9256" /><polygon
     style="clip-rule:evenodd;fill:#1b1b1b;fill-rule:evenodd;stroke:#1b1b1b;stroke-width:0.21600001;stroke-miterlimit:22.92560005"
     id="polygon281"
     points="725.9,1369.6 521,1426.1 713.9,1526.4 "
     stroke-miterlimit="22.9256" /><polygon
     style="clip-rule:evenodd;fill:#1b1b1b;fill-rule:evenodd;stroke:#1b1b1b;stroke-width:0.21600001;stroke-miterlimit:22.92560005"
     id="polygon283"
     points="862.1,1207.6 794.4,1005.8 726.7,1207.6 "
     stroke-miterlimit="22.9256" /><polygon
     style="clip-rule:evenodd;fill:#1b1b1b;fill-rule:evenodd;stroke:#1b1b1b;stroke-width:0.21600001;stroke-miterlimit:22.92560005"
     id="polygon285"
     points="862.1,1207.6 726.7,1207.6 725.9,1369.6 "
     stroke-miterlimit="22.9256" /><polygon
     style="clip-rule:evenodd;fill-rule:evenodd;stroke:#1b1b1b;stroke-width:0.21600001;stroke-miterlimit:22.92560005"
     id="polygon287"
     points="861.2,1426.1 713.9,1526.4 725.9,1369.6 "
     stroke-miterlimit="22.9256" /><polygon
     style="clip-rule:evenodd;fill:#0f0f0f;fill-rule:evenodd;stroke:#1b1b1b;stroke-width:0.21600001;stroke-miterlimit:22.92560005"
     id="polygon289"
     points="861.2,1207.6 725.9,1369.6 861.2,1426.1 "
     stroke-miterlimit="22.9256"
     transform="matrix(1.0065433,0.00299387,-0.00296146,1.0175582,-1.4047364,-26.033146)" /><polygon
     style="clip-rule:evenodd;fill:#0f0f0f;fill-rule:evenodd;stroke:#1b1b1b;stroke-width:0.21600001;stroke-miterlimit:22.92560005"
     id="polygon291"
     points="1646.2,1491.8 1646.2,1561.1 1573.7,1544.6 "
     stroke-miterlimit="22.9256" /><polygon
     style="clip-rule:evenodd;fill:#1b1b1b;fill-rule:evenodd;stroke:#1b1b1b;stroke-width:0.21600001;stroke-miterlimit:22.92560005"
     id="polygon293"
     points="1504.2,1400.2 1646.2,1460.2 1646.2,1491.8 1573.7,1544.6 "
     stroke-miterlimit="22.9256" /><polygon
     style="clip-rule:evenodd;fill-rule:evenodd;stroke:#1b1b1b;stroke-width:0.21600001;stroke-miterlimit:22.92560005"
     id="polygon295"
     points="1533.7,1572.2 1459.9,1572.2 1504.2,1400.2 1573.7,1544.6 "
     stroke-miterlimit="22.9256" /><polygon
     style="clip-rule:evenodd;fill:#1b1b1b;fill-rule:evenodd;stroke:#1b1b1b;stroke-width:0.21600001;stroke-miterlimit:22.92560005"
     id="polygon297"
     points="1459.9,1572.2 1375.5,1572.2 1341.1,1541.1 1410.4,1426.1 1504.2,1400.2 "
     stroke-miterlimit="22.9256" /><polygon
     style="clip-rule:evenodd;fill:#0f0f0f;fill-rule:evenodd;stroke:#1b1b1b;stroke-width:0.21600001;stroke-miterlimit:22.92560005"
     id="polygon299"
     points="1581.1,1572.2 1573.7,1544.6 1533.7,1572.2 "
     stroke-miterlimit="22.9256" /><polygon
     style="clip-rule:evenodd;fill:#0f0f0f;fill-rule:evenodd;stroke:#1b1b1b;stroke-width:0.21600001;stroke-miterlimit:22.92560005"
     id="polygon301"
     points="1596.3,1572.2 1581.1,1572.2 1573.7,1544.6 "
     stroke-miterlimit="22.9256" /><polygon
     style="clip-rule:evenodd;fill:#0f0f0f;fill-rule:evenodd;stroke:#1b1b1b;stroke-width:0.21600001;stroke-miterlimit:22.92560005"
     id="polygon303"
     points="1646.2,1561.1 1646.2,1572.2 1596.3,1572.2 1573.7,1544.6 "
     stroke-miterlimit="22.9256" /><polygon
     style="clip-rule:evenodd;fill:#1b1b1b;fill-rule:evenodd;stroke:#1b1b1b;stroke-width:0.21600001;stroke-miterlimit:22.92560005"
     id="polygon305"
     points="965.8,1572.2 960.7,1572.2 861.2,1371.5 1008.5,1471.8 "
     stroke-miterlimit="22.9256" /><polygon
     style="clip-rule:evenodd;fill:#0f0f0f;fill-rule:evenodd;stroke:#1b1b1b;stroke-width:0.21600001;stroke-miterlimit:22.92560005"
     id="polygon307"
     points="861.2,1572.2 861.2,1371.5 960.7,1572.2 "
     stroke-miterlimit="22.9256" /><polygon
     style="clip-rule:evenodd;fill:#0f0f0f;fill-rule:evenodd;stroke:#1b1b1b;stroke-width:0.21600001;stroke-miterlimit:22.92560005"
     id="polygon309"
     points="987.6,1572.2 1108.5,1544.6 1008.5,1471.8 965.8,1572.2 "
     stroke-miterlimit="22.9256" /><polygon
     style="clip-rule:evenodd;fill:#1b1b1b;fill-rule:evenodd;stroke:#1b1b1b;stroke-width:0.21600001;stroke-miterlimit:22.92560005"
     id="polygon311"
     points="1306.6,1572.2 1341.1,1541.1 1307.4,1427.6 1258.9,1572.2 "
     stroke-miterlimit="22.9256" /><polygon
     style="clip-rule:evenodd;fill:#0f0f0f;fill-rule:evenodd;stroke:#1b1b1b;stroke-width:0.21600001;stroke-miterlimit:22.92560005"
     id="polygon313"
     points="1101,1572.2 1108.5,1544.6 1148.5,1572.2 "
     stroke-miterlimit="22.9256" /><polygon
     style="clip-rule:evenodd;fill:#0f0f0f;fill-rule:evenodd;stroke:#1b1b1b;stroke-width:0.21600001;stroke-miterlimit:22.92560005"
     id="polygon315"
     points="1085.8,1572.2 1101,1572.2 1108.5,1544.6 "
     stroke-miterlimit="22.9256" /><polygon
     style="clip-rule:evenodd;fill:#0f0f0f;fill-rule:evenodd;stroke:#1b1b1b;stroke-width:0.21600001;stroke-miterlimit:22.92560005"
     id="polygon317"
     points="987.6,1572.2 1085.8,1572.2 1108.5,1544.6 "
     stroke-miterlimit="22.9256" /><polygon
     style="clip-rule:evenodd;fill-rule:evenodd;stroke:#1b1b1b;stroke-width:0.21600001;stroke-miterlimit:22.92560005"
     id="polygon319"
     points="1375.5,1572.2 1341.1,1541.1 1306.6,1572.2 "
     stroke-miterlimit="22.9256" /><polygon
     style="clip-rule:evenodd;fill:#0f0f0f;fill-rule:evenodd;stroke:#1b1b1b;stroke-width:0.21600001;stroke-miterlimit:22.92560005"
     id="polygon321"
     points="1646.2,1357 1646.2,1460.2 1504.2,1400.2 1615.3,1369.6 "
     stroke-miterlimit="22.9256" /><polygon
     style="clip-rule:evenodd;fill:#0f0f0f;fill-rule:evenodd;stroke:#1b1b1b;stroke-width:0.21600001;stroke-miterlimit:22.92560005"
     id="polygon323"
     points="1410.4,1426.1 1307.4,1427.6 1341.1,1541.1 "
     stroke-miterlimit="22.9256" /><polygon
     style="clip-rule:evenodd;fill:#0f0f0f;fill-rule:evenodd;stroke:#1b1b1b;stroke-width:0.21600001;stroke-miterlimit:22.92560005"
     id="polygon325"
     points="1170.7,1427.6 1130.8,1287.7 1235.7,1323.1 "
     stroke-miterlimit="22.9256" /><polygon
     style="clip-rule:evenodd;fill:#1b1b1b;fill-rule:evenodd;stroke:#1b1b1b;stroke-width:0.21600001;stroke-miterlimit:22.92560005"
     id="polygon327"
     points="1347.3,1287.7 1307.4,1427.6 1235.7,1323.1 "
     stroke-miterlimit="22.9256" /><polygon
     style="clip-rule:evenodd;fill-rule:evenodd;stroke:#1b1b1b;stroke-width:0.21600001;stroke-miterlimit:22.92560005"
     id="polygon329"
     points="1067.7,1426.1 861.2,1371.5 1008.5,1471.8 "
     stroke-miterlimit="22.9256" /><polygon
     style="clip-rule:evenodd;fill:#1b1b1b;fill-rule:evenodd;stroke:#1b1b1b;stroke-width:0.21600001;stroke-miterlimit:22.92560005"
     id="polygon331"
     points="1108.5,1544.6 1067.7,1426.1 1008.5,1471.8 "
     stroke-miterlimit="22.9256" /><polygon
     style="clip-rule:evenodd;fill:#0f0f0f;fill-rule:evenodd;stroke:#1b1b1b;stroke-width:0.21600001;stroke-miterlimit:22.92560005"
     id="polygon333"
     points="1170.7,1427.6 1067.7,1426.1 1108.5,1544.6 "
     stroke-miterlimit="22.9256" /><polygon
     style="clip-rule:evenodd;fill:#0f0f0f;fill-rule:evenodd;stroke:#1b1b1b;stroke-width:0.21600001;stroke-miterlimit:22.92560005"
     id="polygon335"
     points="1230.5,1572.2 1224,1520.1 1108.5,1544.6 1148.5,1572.2 "
     stroke-miterlimit="22.9256" /><polygon
     style="clip-rule:evenodd;fill:#1b1b1b;fill-rule:evenodd;stroke:#1b1b1b;stroke-width:0.21600001;stroke-miterlimit:22.92560005"
     id="polygon337"
     points="1170.7,1427.6 1108.5,1544.6 1224,1520.1 "
     stroke-miterlimit="22.9256" /><polygon
     style="clip-rule:evenodd;fill:#1b1b1b;fill-rule:evenodd;stroke:#1b1b1b;stroke-width:0.21600001;stroke-miterlimit:22.92560005"
     id="polygon339"
     points="1235.7,1323.1 1170.7,1427.6 1224,1520.1 "
     stroke-miterlimit="22.9256" /><polygon
     style="clip-rule:evenodd;fill:#0f0f0f;fill-rule:evenodd;stroke:#1b1b1b;stroke-width:0.21600001;stroke-miterlimit:22.92560005"
     id="polygon341"
     points="1307.4,1427.6 1258.9,1572.2 1230.5,1572.2 1224,1520.1 "
     stroke-miterlimit="22.9256" /><polygon
     style="clip-rule:evenodd;fill-rule:evenodd;stroke:#1b1b1b;stroke-width:0.21600001;stroke-miterlimit:22.92560005"
     id="polygon343"
     points="1235.7,1323.1 1224,1520.1 1307.4,1427.6 "
     stroke-miterlimit="22.9256" /></svg>
