<svg xmlns="http://www.w3.org/2000/svg" width="210mm" height="297mm" viewBox="0 0 21000 29700" id="svg2" shape-rendering="geometricPrecision" text-rendering="geometricPrecision" image-rendering="optimizeQuality" fill-rule="evenodd" clip-rule="evenodd"><defs id="defs4"><style id="style6"><![CDATA[
    .str0 {stroke:black;stroke-width:7.62}
    .str1 {stroke:black;stroke-width:20}
    .str2 {stroke:#230F5E;stroke-width:20}
    .fil20 {fill:none}
    .fil1 {fill:#201E1E}
    .fil7 {fill:#2B2C32}
    .fil2 {fill:#332D36}
    .fil21 {fill:#424141}
    .fil12 {fill:#E6E7E8}
    .fil0 {fill:#FEFEFE}
    .fil4 {fill:black}
    .fil9 {fill:#0C0030}
    .fil3 {fill:#0C0D17}
    .fil10 {fill:#170845}
    .fil11 {fill:#230F5E}
    .fil6 {fill:#240F24}
    .fil8 {fill:#333333}
    .fil19 {fill:#360036}
    .fil5 {fill:#383838}
    .fil17 {fill:#3C0032}
    .fil18 {fill:#500049}
    .fil15 {fill:#690314}
    .fil13 {fill:#91021A}
    .fil14 {fill:#BA001F}
    .fil16 {fill:#DC0024}
    .fil22 {fill:white;fill-rule:nonzero}
   ]]></style></defs><g id="g5557"><path id="polygon11" class="fil0 str0" fill="#fefefe" stroke="#000" stroke-width="7.62" d="M2107 12164v-2115l4145-2392 4144-2393 4144 2393 4144 2392v2115z"/><path id="rect13" class="fil0 str1" fill="#fefefe" stroke="#000" stroke-width="20" d="M3119 10029h14694v2425H3119z"/><path id="path15" d="M9813 14841l378 260c47-10 94-19 142-25v-336c-178 17-352 51-520 101z" class="fil1 str1" fill="#201e1e" stroke="#000" stroke-width="20"/><path id="path17" d="M8168 16187l139 87-61-225c-27 45-53 91-78 138z" class="fil2 str1" fill="#332d36" stroke="#000" stroke-width="20"/><path id="path19" d="M8307 16274l-61-225c148-244 331-460 541-643l257 314c-134 121-257 255-369 397l-368 157z" class="fil3 str1" fill="#0c0d17" stroke="#000" stroke-width="20"/><path id="path21" d="M9044 15720l-257-314c135-118 282-223 438-313l-21 491c-54 43-108 88-159 135z" class="fil4 str1" stroke="#000" stroke-width="20"/><path id="path23" d="M9204 15584c296-234 632-407 988-484l-378-260c-206 61-401.91 144.753-586.91 251.753-8.926 161.41-16.11 329.04-23.09 492.247z" class="fil3 str1" fill="#0c0d17" stroke="#000" stroke-width="20"/><path id="path25" d="M8675 16117l-368 157 61 307c88-161 191-317 307-463z" class="fil4 str1" stroke="#000" stroke-width="20"/><path id="path27" d="M8307 16274l-139-87c-24 45-47 92-69 139l208-52z" class="fil2 str1" fill="#332d36" stroke="#000" stroke-width="20"/><path id="path29" d="M8307 16274l-208 52c-11 25-22 49-33 74-111 262-263 500-446 709l419 115c70-98 127-200 167-304l2-1c8-19 16-39 24-58 2-5 5-10 7-15 39-90 82-179 130-266l-61-307z" class="fil3 str1" fill="#0c0d17" stroke="#000" stroke-width="20"/><path id="path31" d="M4095 18175l-14 258-114-229c43-11 86-21 127-30z" class="fil5 str1" fill="#383838" stroke="#000" stroke-width="20"/><path id="path33" d="M4082 18434l-320-166c71-25 137.023-45.882 204.023-63.882 34.764 73.973 78.395 154.39 115.977 229.882z" class="fil5 str1" fill="#383838" stroke="#000" stroke-width="20"/><path id="path35" d="M4095.624 18173.597L4081 18433l52 122c66-16 131-30 195-42l-81-365c-50 7-100.376 14.597-151.376 25.597z" class="fil4 str1" stroke="#000" stroke-width="20"/><path id="path37" d="M5271 18112l-164 331c176-6 351-9 530-22v-330c-126.633 11.233-257.976 17.922-366 21z" class="fil4 str1" stroke="#000" stroke-width="20"/><path id="path39" d="M4081 18433l52 122c-127 32-257 73-393 126l341-248z" class="fil5 str1" fill="#383838" stroke="#000" stroke-width="20"/><path id="path41" d="M4081 18433l-341 248c-89 35-180 76-273 123-121 61-296 182-475 338l-189-342c167-135 355-258 561-363 139-71 267.795-123.795 393.795-167.795L4080 18433z" class="fil4 str1" stroke="#000" stroke-width="20"/><path id="path43" d="M2804 18800l189 342-18 15-293-254c39-35 80-70 121-103z" class="fil6 str1" fill="#240f24" stroke="#000" stroke-width="20"/><path id="path45" d="M2683 18904l293 254c-90 80-181 168-266 262l-280 193-234-135c124-200 288-396 487-574z" class="fil7 str1" fill="#2b2c32" stroke="#000" stroke-width="20"/><path id="path47" d="M2709 19420l-280 193 84 48c59-83 126-164 196-242z" class="fil6 str1" fill="#240f24" stroke="#000" stroke-width="20"/><path id="path49" d="M6422 17908l364 248c48-21 96-43 146-67 70-34 140-71 208-109l-48-407c-131 88-270 165-416 231-88 40-172 74-254 104z" class="fil4 str1" stroke="#000" stroke-width="20"/><path id="path51" d="M7092 17573l48 407c306-172 586-384 791-619l-567 3c-86 75-177 144-272 208z" class="fil4 str1" stroke="#000" stroke-width="20"/><path id="path53" d="M6786 18156c-233 100-451 163-660 204l-159-320c143-30 292.228-72.66 454.228-131.66 119.16 79.156 244.24 165.54 364.772 247.66z" class="fil8 str1" fill="#333" stroke="#000" stroke-width="20"/><path id="path55" d="M5967 18040l159 320c-168 32-330 50-489 61v-330c106-11 216-27 330-51z" class="fil4 str1" stroke="#000" stroke-width="20"/><path id="path57" d="M5271 18112l-164 331c-254 8-510 21-779 70l-81-365c357-53 678-30 1024-36z" class="fil3 str1" fill="#0c0d17" stroke="#000" stroke-width="20"/><path id="path59" d="M7618.898 17109.78L8039 17225c-33 46-69 92-108 137l-568.102 2.78c91-79 177-165 256-255z" class="fil1 str1" fill="#201e1e" stroke="#000" stroke-width="20"/><path id="path61" d="M10980 14753l-443 304c-69 2-137 8-204 18l3.97-335.118c87-8 171.03-13.882 260.03-13.882 129 0 257 9 383 27z" class="fil4 str1" stroke="#000" stroke-width="20"/><path id="path63" d="M12548 16156c-38-50-77-98-118-146l125-463c120 122 230.772 255.34 326.772 399.34-106.914 68.172-223.475 140.642-333.772 209.66z" class="fil6 str1" fill="#240f24" stroke="#000" stroke-width="20"/><path id="path65" d="M12430 16010l125-463c-144-146-304-276-476-386l-250 306c221 151 424 336 601 543z" class="fil3 str1" fill="#0c0d17" stroke="#000" stroke-width="20"/><path id="path67" d="M11829 15467l250-306c-201-129-419-232-649-305l17 394c132 60 260 133 381 217z" class="fil4 str1" stroke="#000" stroke-width="20"/><path id="path69" d="M11430 14856l17 394c-269-123-556-194-851-194-20 0-40 0-60 1l443-304c154 22 305 56 451 103z" class="fil8 str1" fill="#333" stroke="#000" stroke-width="20"/><path id="path71" d="M12548 16156l334-209c95 141 177 293 245 453l33 75-469-118c-45-69-93-136-143-202z" class="fil4 str1" stroke="#000" stroke-width="20"/><path id="path73" d="M12691 16357l469 118c86 185 192 358 315 516l-401 110c-34-59-64-120-87-181l-2-1c-8-19-16-39-24-58-2-5-5-10-7-15-72-167-161-332-265-489z" class="fil3 str1" fill="#0c0d17" stroke="#000" stroke-width="20"/><path id="path75" d="M16567 18115l17 318 153-309c-57-4-114-7-170-9z" class="fil6 str1" fill="#240f24" stroke="#000" stroke-width="20"/><path id="path77" d="M16738 18124l-153 309 503-261c-120-24-236-39-350-48z" class="fil8 str1" fill="#333" stroke="#000" stroke-width="20"/><path id="path79" d="M16567 18115l17 318-16 38c-73-7-145-13-217-17l75-342c47 0 94 1 141 3z" class="fil6 str1" fill="#240f24" stroke="#000" stroke-width="20"/><path id="path81" d="M15372 18067l175 353c-169-12-340-32-519-68v-360c120 33 234 58 344 75z" class="fil6 str1" fill="#240f24" stroke="#000" stroke-width="20"/><path id="path83" d="M16584 18433l-16 38 81 9-65-47z" class="fil6 str1" fill="#240f24" stroke="#000" stroke-width="20"/><path id="path85" d="M16592.107 18428.323L16649 18480c334 40 684 126 1077 324 31 16 65 35 102 58l180-326c-58-35-118-68-180-99-272-139-514-219-740-265-168.138 86.613-327.522 170.596-495.893 256.323z" class="fil4 str1" stroke="#000" stroke-width="20"/><path id="path87" d="M18008 18536l-180 326c36 22 75 48 115 77l293-254c-73-52-149-101-228-148z" class="fil8 str1" fill="#333" stroke="#000" stroke-width="20"/><path id="path89" d="M18236 18684l-293 254c232 164 522 425 729 711l319-184c-176-282-433-554-754-782z" class="fil3 str1" fill="#0c0d17" stroke="#000" stroke-width="20"/><path id="path91" d="M13598 17366l234 1c184 159 390 295 613 403l-346 235c-191-104-374-224-535-356l33-284z" class="fil8 str1" fill="#333" stroke="#000" stroke-width="20"/><path id="path93" d="M13598 17366l-33 284c-111-90-212-186-299-286l333 2z" class="fil3 str1" fill="#0c0d17" stroke="#000" stroke-width="20"/><path id="path95" d="M14446 17771l-346 235c53 29 107 57 162 83 117 57 231 104 341 143l162-327c-80-30-162-63-248-102-24-11-48-22-71-33z" class="fil4 str1" stroke="#000" stroke-width="20"/><path id="path97" d="M14765 17906l-162 327c147 52 289 91 426 119v-360c-85-24-173-52-264-86z" class="fil3 str1" fill="#0c0d17" stroke="#000" stroke-width="20"/><path id="path99" d="M15372 18067l175 353c271 19 534 18 803 34l75-342c-337-3-669 17-1054-45z" class="fil4 str1" stroke="#000" stroke-width="20"/><path id="path101" d="M13475 16991l-401 110c52 90 117 178 191 263l567 3c-131-114-251-240-358-376z" class="fil4 str1" stroke="#000" stroke-width="20"/><path id="path103" d="M4167 18547l670 1242-86-1328c-189 14-382 39-584 86z" class="fil9 str1" fill="#0c0030" stroke="#000" stroke-width="20"/><path id="path105" d="M4837 19788l-670-1242c-68 16-137 35-207 57l154 542 722 643z" class="fil10 str1" fill="#170845" stroke="#000" stroke-width="20"/><path id="path107" d="M4115 19146l-154-542c-158 49-321 114-493 200-110 55-265 161-427 297l-13 29 1087 16z" class="fil11 str1" fill="#230f5e" stroke="#000" stroke-width="20"/><path id="path109" d="M3025 19115l3 15 13-29c-5 5-11 9-16 14z" class="fil12 str1" fill="#e6e7e8" stroke="#000" stroke-width="20"/><path id="path111" d="M3012 19126l16 4-3-15c-4 4-8 7-13 11z" class="fil12 str1" fill="#e6e7e8" stroke="#000" stroke-width="20"/><path id="path113" d="M8396 16531l422 291-2-872c-161 179-302 375-420 581z" class="fil9 str1" fill="#0c0030" stroke="#000" stroke-width="20"/><path id="path115" d="M8815 15950l2 872 426-1269c-154 117-297 251-428 397z" class="fil11 str1" fill="#230f5e" stroke="#000" stroke-width="20"/><path id="path117" d="M8396 16531l422 291-920 576c137-150 245-311 308-477l2-1c8-19 16-39 24-58 2-5 5-10 7-15 46-107 99-212 158-315z" class="fil11 str1" fill="#230f5e" stroke="#000" stroke-width="20"/><path id="path119" d="M5572 18425l-735 1363-86-1328c277-21 545-19 821-35z" class="fil11 str1" fill="#230f5e" stroke="#000" stroke-width="20"/><path id="path121" d="M4837 19788l735-1363c65-4 130-9 197-15l-210 735-722 643z" class="fil10 str1" fill="#170845" stroke="#000" stroke-width="20"/><path id="path123" d="M5559 19146l210-735c165-16 335-41 511-84l367 804-1087 16z" class="fil9 str1" fill="#0c0030" stroke="#000" stroke-width="20"/><path id="path125" d="M6846 18129l-200 1000-367-804c180-44 368-107 567-197z" class="fil10 str1" fill="#170845" stroke="#000" stroke-width="20"/><path id="path127" d="M7897 17398l920-576-8 1712-1842-462c355-177 689-410 930-673z" class="fil9 str1" fill="#0c0030" stroke="#000" stroke-width="20"/><path id="path129" d="M6968 18072l1842 462-2164 596 200-1000c28-13 57-26 85-40l36-18z" class="fil11 str1" fill="#230f5e" stroke="#000" stroke-width="20"/><path id="path131" d="M14951 19146l219-768c188 30 370 44 549 52l319 700-1087 16z" class="fil11 str1" fill="#230f5e" stroke="#000" stroke-width="20"/><path id="path133" d="M16174 18446l-137 684-319-700c153 7 304 10 456 16z" class="fil10 str1" fill="#170845" stroke="#000" stroke-width="20"/><path id="path135" d="M17538 18717l-1501 413 137-684c427 16 862 55 1364 271z" class="fil10 str1" fill="#170845" stroke="#000" stroke-width="20"/><path id="path137" d="M12485 16075l-867-198 386-281c176 141 338 303 481 479z" class="fil11 str1" fill="#230f5e" stroke="#000" stroke-width="20"/><path id="path139" d="M12003 15596l-386 281-88-588c166 84 325 187 474 306z" class="fil11 str2" fill="#230f5e" stroke="#230f5e" stroke-width="20"/><path id="path141" d="M11529 15289l88 588-571-766c166 40 328 101 484 179z" class="fil10 str1" fill="#170845" stroke="#000" stroke-width="20"/><path id="path143" d="M11046 15111l571 766-1369 946 4-1734c113-21 228-32 344-32 152 0 303 19 449 54z" class="fil9 str1" fill="#0c0030" stroke="#000" stroke-width="20"/><path id="path145" d="M10252 15088l-4 1734-524-1562c170-80 347-138 529-172z" class="fil10 str1" fill="#170845" stroke="#000" stroke-width="20"/><path id="polygon147" class="fil11 str1" fill="#230f5e" stroke="#000" stroke-width="20" d="M10248 16823l1954 1222-585-2168z"/><path id="polygon149" class="fil9 str1" fill="#0c0030" stroke="#000" stroke-width="20" d="M11617 15877l1469 1792-884 376z"/><path id="path151" d="M13086 17669l-1469-1792 867 198c193 238 354 501 471 771 2 5 5 10 7 15 8 19 16 39 24 58l2 1c31 80 71 159 120 235l-22 513z" class="fil10 str1" fill="#170845" stroke="#000" stroke-width="20"/><path id="path153" d="M13108 17156l-22 513 296-181c-107-105-200-216-274-331z" class="fil10 str1" fill="#170845" stroke="#000" stroke-width="20"/><path id="path155" d="M13382 17488l-296 182 1040 351c-277-148-537-330-744-532z" class="fil10 str1" fill="#170845" stroke="#000" stroke-width="20"/><path id="polygon157" class="fil10 str1" fill="#170845" stroke="#000" stroke-width="20" d="M13086 17669l-667 1461 1087 16z"/><path id="polygon159" class="fil10 str1" fill="#170845" stroke="#000" stroke-width="20" d="M12202 18045l217 1085 667-1461z"/><path id="polygon161" class="fil10 str1" fill="#170845" stroke="#000" stroke-width="20" d="M10248 16823l-10 1731 1964-509z"/><path id="polygon163" class="fil12 str1" fill="#e6e7e8" stroke="#000" stroke-width="20" d="M10238 18554l2181 576-217-1085z"/><path id="path165" d="M2898 19884l129-754-141 109c-134 127-266 272-374 423l385 222z" class="fil11 str1" fill="#230f5e" stroke="#000" stroke-width="20"/><path id="polygon167" class="fil9 str1" fill="#0c0030" stroke="#000" stroke-width="20" d="M2898 19884l534 308-404-1062z"/><path id="path169" d="M3028 19130l404 1062 246 142-122-70c75 0 152 0 232 2 203 4 420 15 639 34l-1399-1169z" class="fil11 str1" fill="#230f5e" stroke="#000" stroke-width="20"/><path id="path171" d="M7010 19808l-364-678 684 356c-110 108-214 217-320 322z" class="fil10 str1" fill="#170845" stroke="#000" stroke-width="20"/><path id="path173" d="M5559 19146l1102 965c-211 152-455 266-780 306l-322-1271z" class="fil9 str1" fill="#0c0030" stroke="#000" stroke-width="20"/><path id="path175" d="M4837 19788l415 618c-49-6-98-13-149-22-31-5-63-11-95-16l-171-580z" class="fil10 str1" fill="#170845" stroke="#000" stroke-width="20"/><path id="path177" d="M3028 19130l-16-4c-42 36-84 74-125 113l141-109z" class="fil12 str1" fill="#e6e7e8" stroke="#000" stroke-width="20"/><path id="path179" d="M4837 19788l171 580c-191-30-387-53-581-69l-490-409 900-102z" class="fil10 str1" fill="#170845" stroke="#000" stroke-width="20"/><path id="polygon181" class="fil9 str1" fill="#0c0030" stroke="#000" stroke-width="20" d="M3937 19890l900-102-722-642-1087-16z"/><path id="path183" d="M5881 20417l-322-1271-722 643 415 618c240 31 447 32 629 10z" class="fil11 str1" fill="#230f5e" stroke="#000" stroke-width="20"/><path id="path185" d="M5559 19146l1102 965c125-90 238-194 349-303l-364-678-1087 16z" class="fil11 str1" fill="#230f5e" stroke="#000" stroke-width="20"/><path id="path187" d="M6646 19130l684 356c343-335 746-655 1464-757l15-195-2164 596z" class="fil10 str1" fill="#170845" stroke="#000" stroke-width="20"/><path id="path189" d="M9244 15554l-426 1269h1430l-524-1562c-168 79-329 178-480 293z" class="fil10 str1" fill="#170845" stroke="#000" stroke-width="20"/><path id="polygon191" class="fil11 str1" fill="#230f5e" stroke="#000" stroke-width="20" d="M8810 18534l1438-1711H8818z"/><path id="path193" d="M8795 18729l15-195 390 163c-145 4-280 15-405 32z" class="fil12 str1" fill="#e6e7e8" stroke="#000" stroke-width="20"/><path id="path195" d="M8810 18534l390 163c82-2 166-2 255 1 273 9 536 50 784 116v-1992l-1428 1712z" class="fil10 str1" fill="#170845" stroke="#000" stroke-width="20"/><path id="path197" d="M17685 20220l-656-1363 1527 645c41 48 80 98 116 148l-987 570z" class="fil9 str1" fill="#0c0030" stroke="#000" stroke-width="20"/><path id="polygon199" class="fil10 str1" fill="#170845" stroke="#000" stroke-width="20" d="M17685 20220l-1183 683 526-2046z"/><path id="polygon201" class="fil11 str1" fill="#230f5e" stroke="#000" stroke-width="20" d="M15306 20344l732-1214 990-273-526 2046-353 203z"/><path id="path203" d="M10238 18554l1556 1059-44 104-29-29c-338-365-797-659-1331-829l-151-305z" class="fil12 str1" fill="#e6e7e8" stroke="#000" stroke-width="20"/><path id="path205" d="M10238 18554l151 305c-50-16-100-31-151-44v-260z" class="fil12 str1" fill="#e6e7e8" stroke="#000" stroke-width="20"/><path id="path207" d="M11794 19613l-44 104c266 266 426 532 530 795l570-130-1056-768z" class="fil12 str1" fill="#e6e7e8" stroke="#000" stroke-width="20"/><path id="polygon209" class="fil11 str1" fill="#230f5e" stroke="#000" stroke-width="20" d="M14219 21327l1087-983-355-1198z"/><path id="path211" d="M12850 20381l1369 946-1458 912c-121-214-183-440-231-674l320-1184z" class="fil12 str1" fill="#e6e7e8" stroke="#000" stroke-width="20"/><path id="path213" d="M12530 21565l320-1184-444 542c51 219 82 434 124 642z" class="fil12 str1" fill="#e6e7e8" stroke="#000" stroke-width="20"/><path id="path215" d="M12406 20923l444-542-570 130c55 138 94 276 126 411z" class="fil12 str1" fill="#e6e7e8" stroke="#000" stroke-width="20"/><path id="path217" d="M12761 22239l1458-912-4 896-962 556c-231-169-385-350-492-540z" class="fil12 str1" fill="#e6e7e8" stroke="#000" stroke-width="20"/><path id="polygon219" class="fil12 str1" fill="#e6e7e8" stroke="#000" stroke-width="20" d="M15306 20344l-1087 983h1548l382-221z"/><path id="polygon221" class="fil12 str1" fill="#e6e7e8" stroke="#000" stroke-width="20" d="M14219 21327l-4 896 660-381z"/><path id="polygon223" class="fil12 str1" fill="#e6e7e8" stroke="#000" stroke-width="20" d="M15767 21327l-635 367-913-367z"/><path id="polygon225" class="fil12 str1" fill="#e6e7e8" stroke="#000" stroke-width="20" d="M14219 21327l658 514 255-147z"/><path id="path227" d="M17028 18857l510-140c61 26 124 55 187 87 203 102 557 374 830 698l-1527-645z" class="fil11 str1" fill="#230f5e" stroke="#000" stroke-width="20"/><path id="polygon229" class="fil10 str1" fill="#170845" stroke="#000" stroke-width="20" d="M15306 20344l732-1214-1087 16z"/><path id="path231" d="M13086 17669l1040 351c20 11 41 22 61 32l-681 1093-421-1476z" class="fil11 str1" fill="#230f5e" stroke="#000" stroke-width="20"/><path id="path233" d="M14951 19146l-745-1084c19 9 37 19 56 28 327 159 625 243 908 288l-219 768z" class="fil9 str1" fill="#0c0030" stroke="#000" stroke-width="20"/><path id="polygon235" class="fil12 str1" fill="#e6e7e8" stroke="#000" stroke-width="20" d="M11794 19613l625-483-2181-576z"/><path id="polygon237" class="fil12 str1" fill="#e6e7e8" stroke="#000" stroke-width="20" d="M11794 19613l1056 768-431-1251z"/><path id="polygon239" class="fil12 str1" fill="#e6e7e8" stroke="#000" stroke-width="20" d="M12850 20381l656-1235-1087-16z"/><path id="polygon241" class="fil12 str1" fill="#e6e7e8" stroke="#000" stroke-width="20" d="M14219 21327l-150-1204-1219 258z"/><path id="polygon243" class="fil12 str1" fill="#e6e7e8" stroke="#000" stroke-width="20" d="M14069 20123l-563-977-656 1235z"/><path id="polygon245" class="fil9 str1" fill="#0c0030" stroke="#000" stroke-width="20" d="M13506 19146l563 977 123-2068-5-3z"/><path id="polygon247" class="fil10 str1" fill="#170845" stroke="#000" stroke-width="20" d="M14069 20123l882-977-732 2181z"/><path id="path249" d="M14069 20123l881-977-745-1084c-5-2-9-5-14-7l-123 2068z" class="fil11 str1" fill="#230f5e" stroke="#000" stroke-width="20"/><path id="path251" d="M4555 20060l89 166-10-154c-26-4-53-8-80-12z" class="fil8 str1" fill="#333" stroke="#000" stroke-width="20"/><path id="path253" d="M4644 20226l-89-166c-38-5-76-11-114-16l204 181z" class="fil8 str1" fill="#333" stroke="#000" stroke-width="20"/><path id="path255" d="M4720 20086l-76 140-10-154c29 4 57 9 86 14z" class="fil8 str1" fill="#333" stroke="#000" stroke-width="20"/><path id="path257" d="M4644 20226l76-140c13 2 26 4 39 7 10 2 20 3 30 5l-145 129z" class="fil8 str1" fill="#333" stroke="#000" stroke-width="20"/><path id="path259" d="M8620 18318l-2 442c-143 30-272 68-390 114l-588-147c258-180 568-329 980-408z" class="fil3 str1" fill="#0c0d17" stroke="#000" stroke-width="20"/><path id="path261" d="M7640 18727l588 147c-258 100-465 234-645 383l-745 205c247-244 485-513 803-735z" class="fil4 str1" stroke="#000" stroke-width="20"/><path id="path263" d="M10049 18317l-2 451c144 30 283 68 417 114l685-177c-329-181-699-316-1099-389z" class="fil4 str1" stroke="#000" stroke-width="20"/><path id="path265" d="M11149 18706l-685 177c315 109 602 260 851 444l845 223c-60-72-127-144-201-215-225-243-499-457-811-629z" class="fil3 str1" fill="#0c0d17" stroke="#000" stroke-width="20"/><path id="path267" d="M3669 20264l-360-301c-95-2-187-2-276-1l523 302h112z" class="fil2 str1" fill="#332d36" stroke="#000" stroke-width="20"/><path id="path269" d="M6721 20066l-180-336c29-23 58-47 87-72l350 182c-82 80-166 156-256 226z" class="fil4 str1" stroke="#000" stroke-width="20"/><path id="path271" d="M5915 20064l313 274c-182 63-393 98-647 94l-75-294c150-11 285-37 408-73z" class="fil6 str1" fill="#240f24" stroke="#000" stroke-width="20"/><path id="path273" d="M4644 20226l69 102c-13-2-27-3-40-5l-29-98z" class="fil2 str1" fill="#332d36" stroke="#000" stroke-width="20"/><path id="path275" d="M4644 20226l29 98c-171-19-343-34-510-43l481-54z" class="fil8 str1" fill="#333" stroke="#000" stroke-width="20"/><path id="path277" d="M4163 20280l481-54-204-181c-384-50-778-75-1132-82l360 301c157 1 323 6 495 16z" class="fil8 str1" fill="#333" stroke="#000" stroke-width="20"/><path id="path279" d="M5581 20432l-75-294c-207 16-444 5-718-40l-145 129 69 102c131 15 262 34 390 56 175 30 334 45 479 47z" class="fil4 str1" stroke="#000" stroke-width="20"/><path id="path281" d="M5915 20064l313 274c190-65 349-160 493-272l-180-336c-179 142-379 261-625 334z" class="fil3 str1" fill="#0c0d17" stroke="#000" stroke-width="20"/><path id="path283" d="M6627 19658l350 182c195-189 380-397 606-583l-745 205c-69 68-138 134-211 196z" class="fil8 str1" fill="#333" stroke="#000" stroke-width="20"/><path id="path285" d="M8620 18318l-2 442c66-14 135-25 206-34l394-469c-221 5-419 27-598 62z" class="fil4 str1" stroke="#000" stroke-width="20"/><path id="path287" d="M10046 18768v-452c-178-32-363-52-552-59-97-3-190-4-280-1l-391 469c188-25 397-35 632-27 204 7 401 31 591 70z" class="fil4 str1" stroke="#000" stroke-width="20"/><path id="path289" d="M12395 20879l262-60-360-262c40 108 72 215 98 322z" class="fil3 str1" fill="#0c0d17" stroke="#000" stroke-width="20"/><path id="path291" d="M12657 20819l91 63c97 497 140 972 454 1399l-289 181c-266-325-345-682-414-1058l158-585z" class="fil1 str1" fill="#201e1e" stroke="#000" stroke-width="20"/><path id="path293" d="M12499 21403l158-585-217 265c21 108 40 215 59 320z" class="fil3 str1" fill="#0c0d17" stroke="#000" stroke-width="20"/><path id="path295" d="M12440 21083l217-265-262 60c17 69 32 137 45 205z" class="fil3 str1" fill="#0c0d17" stroke="#000" stroke-width="20"/><path id="path297" d="M12913 22461l289-181c86 117 192 231 325 340l-274 158c-139-102-250-208-340-318z" class="fil6 str1" fill="#240f24" stroke="#000" stroke-width="20"/><path id="path299" d="M11869 19844l326-251c-11-14-23-28-34-42l-845-223c149 110 285 231 406 361 53 52 103 104 148 156z" class="fil6 str1" fill="#240f24" stroke="#000" stroke-width="20"/><path id="path301" d="M12195 19592l-326 251c210 239 340 478 428 713l360 262-389-1132c-23-32-47-63-73-95z" class="fil1 str1" fill="#201e1e" stroke="#000" stroke-width="20"/><path id="path303" d="M12268 19687l389 1132 56-105c-76-336-192-680-445-1027z" class="fil6 str1" fill="#240f24" stroke="#000" stroke-width="20"/><path id="path305" d="M12657 20819l91 63c-5-26-10-53-16-79l-75 16z" class="fil6 str1" fill="#240f24" stroke="#000" stroke-width="20"/><path id="path307" d="M12657 20819l75-16c-6-30-13-60-19-89l-56 105z" class="fil6 str1" fill="#240f24" stroke="#000" stroke-width="20"/><path id="path309" d="M3752 20265l174 213-370-214c64 0 129 0 196 1z" class="fil12 str1" fill="#e6e7e8" stroke="#000" stroke-width="20"/><path id="path311" d="M3927 20478l-174-213c171 3 351 10 536 23l-17 388-345-199z" class="fil13 str1" fill="#91021a" stroke="#000" stroke-width="20"/><path id="path313" d="M4288 20288l-17 388 172 99 644-395c-261-44-534-74-799-93z" class="fil14 str1" fill="#ba001f" stroke="#000" stroke-width="20"/><path id="path315" d="M5088 20382l-644 395 648 374 349 111-28-837c-97-8-200-21-310-39l-15-3z" class="fil13 str1" fill="#91021a" stroke="#000" stroke-width="20"/><path id="polygon317" class="fil12 str1" fill="#e6e7e8" stroke="#000" stroke-width="20" d="M5092 21150l347 201 2-90z"/><path id="path319" d="M11860 19833l-300 207-176-662c122 96 235 199 337 309 50 48 96 97 139 145z" class="fil15 str1" fill="#690314" stroke="#000" stroke-width="20"/><path id="path321" d="M11384 19379l176 662-1087-983 31-161c328 118 625 283 880 482z" class="fil13 str1" fill="#91021a" stroke="#000" stroke-width="20"/><path id="path323" d="M11860 19833l-300 207 709 444c-88-215-215-433-409-651z" class="fil14 str1" fill="#ba001f" stroke="#000" stroke-width="20"/><path id="path325" d="M12269 20484l-709-444 8 1712 952-239c-64-331-106-677-251-1029z" class="fil13 str1" fill="#91021a" stroke="#000" stroke-width="20"/><path id="path327" d="M12520 21513l-952 239 1104 304c-73-175-116-357-152-543z" class="fil15 str1" fill="#690314" stroke="#000" stroke-width="20"/><path id="path329" d="M7696 19168l320-73-99-72c-79 46-152 94-221 145z" class="fil14 str1" fill="#ba001f" stroke="#000" stroke-width="20"/><path id="path331" d="M7917 19023l99 72 24-138c-42 21-83 43-123 66z" class="fil14 str1" fill="#ba001f" stroke="#000" stroke-width="20"/><path id="path333" d="M8040 18957l-24 138 286-248c-94 33-181 70-263 110z" class="fil14 str1" fill="#ba001f" stroke="#000" stroke-width="20"/><path id="path335" d="M8303 18846l-286 248 1369 946 351-1322c-93-11-187-18-282-21-478-16-849 43-1152 148z" class="fil13 str1" fill="#91021a" stroke="#000" stroke-width="20"/><path id="path337" d="M9737 18719l-351 1322 1087-983-36-184c-221-74-455-127-700-155z" class="fil15 str1" fill="#690314" stroke="#000" stroke-width="20"/><path id="polygon339" class="fil13 str1" fill="#91021a" stroke="#000" stroke-width="20" d="M9386 20041l-1955 1223 585-2169z"/><path id="polygon341" class="fil14 str1" fill="#ba001f" stroke="#000" stroke-width="20" d="M8016 19095l-1468 1792 883 377z"/><path id="path343" d="M6548 20887l1469-1792-320 73c-455 337-733 774-1178 1036l30 683z" class="fil15 str1" fill="#690314" stroke="#000" stroke-width="20"/><path id="path345" d="M6518 20204l30 683-754-462c295-23 526-105 724-221z" class="fil13 str1" fill="#91021a" stroke="#000" stroke-width="20"/><path id="path347" d="M5794 20425l754 462-1179 374 28-839c144 12 276 12 396 3z" class="fil14 str1" fill="#ba001f" stroke="#000" stroke-width="20"/><path id="polygon349" class="fil13 str1" fill="#91021a" stroke="#000" stroke-width="20" d="M5369 21261l1179-374-454 842-724-418z"/><path id="polygon351" class="fil15 str1" fill="#690314" stroke="#000" stroke-width="20" d="M6548 20887l-270 948-184-106z"/><path id="polygon353" class="fil13 str1" fill="#91021a" stroke="#000" stroke-width="20" d="M6278 21835l270-948 666 1461-47 1z"/><path id="polygon355" class="fil15 str1" fill="#690314" stroke="#000" stroke-width="20" d="M7431 21264l-217 1084-666-1461z"/><path id="polygon357" class="fil14 str1" fill="#ba001f" stroke="#000" stroke-width="20" d="M9386 20041l-8 1711-1947-488z"/><path id="polygon359" class="fil13 str1" fill="#91021a" stroke="#000" stroke-width="20" d="M9378 21752l-2164 596 217-1084z"/><path id="polygon361" class="fil15 str1" fill="#690314" stroke="#000" stroke-width="20" d="M11568 21752l88 1671 419-842z"/><path id="path363" d="M12075 22581l-418 842 1458-755c-76-67-142-135-200-205l-840 118z" class="fil13 str1" fill="#91021a" stroke="#000" stroke-width="20"/><path id="polygon365" class="fil13 str1" fill="#91021a" stroke="#000" stroke-width="20" d="M11612 22588l44 835-156 368-176 101z"/><path id="polygon367" class="fil13 str1" fill="#91021a" stroke="#000" stroke-width="20" d="M10101 24042v-1678l861 1737-380 219z"/><path id="polygon369" class="fil16 str1" fill="#dc0024" stroke="#000" stroke-width="20" d="M11500 23791l369-213-213-155z"/><path id="path371" d="M11656 23423l213 155 1384-799c-50-36-96-74-139-111l-1458 755z" class="fil13 str1" fill="#91021a" stroke="#000" stroke-width="20"/><path id="polygon373" class="fil15 str1" fill="#690314" stroke="#000" stroke-width="20" d="M8671 22356l1430 8-1334 908-191-110z"/><path id="polygon375" class="fil14 str1" fill="#ba001f" stroke="#000" stroke-width="20" d="M8671 22356l-95 806-1241-717-121-97z"/><path id="polygon377" class="fil14 str1" fill="#ba001f" stroke="#000" stroke-width="20" d="M8767 23272l687 397 647-1305z"/><path id="polygon379" class="fil15 str1" fill="#690314" stroke="#000" stroke-width="20" d="M9454 23669l647 373v-1678z"/><path id="polygon381" class="fil12 str1" fill="#e6e7e8" stroke="#000" stroke-width="20" d="M7214 22348l121 97-116-67z"/><path id="polygon383" class="fil12 str1" fill="#e6e7e8" stroke="#000" stroke-width="20" d="M7219 22378l-52-29 47-1z"/><path id="path385" d="M10437 18874l36 184 31-161c-22-8-45-16-67-23z" class="fil14 str1" fill="#ba001f" stroke="#000" stroke-width="20"/><path id="polygon387" class="fil14 str1" fill="#ba001f" stroke="#000" stroke-width="20" d="M9386 20041h2174l-1087-983z"/><path id="polygon389" class="fil15 str1" fill="#690314" stroke="#000" stroke-width="20" d="M10955 21272l613 480-8-1711z"/><path id="polygon391" class="fil13 str1" fill="#91021a" stroke="#000" stroke-width="20" d="M9386 20041l-8 1711 1276-716z"/><path id="polygon393" class="fil14 str1" fill="#ba001f" stroke="#000" stroke-width="20" d="M9378 21752h2190l-912-717z"/><path id="polygon395" class="fil15 str1" fill="#690314" stroke="#000" stroke-width="20" d="M11560 20041l-358 729-1816-729z"/><path id="polygon397" class="fil14 str1" fill="#ba001f" stroke="#000" stroke-width="20" d="M9386 20041l1571 1228 245-499z"/><path id="path399" d="M12672 22056l-1104-304 507 828 840-118c-107-131-184-266-242-406z" class="fil14 str1" fill="#ba001f" stroke="#000" stroke-width="20"/><path id="polygon401" class="fil13 str1" fill="#91021a" stroke="#000" stroke-width="20" d="M11568 21752l46 867-1513-255z"/><path id="polygon403" class="fil14 str1" fill="#ba001f" stroke="#000" stroke-width="20" d="M10101 22364l861 1737 362-209 281-1275z"/><path id="polygon405" class="fil15 str1" fill="#690314" stroke="#000" stroke-width="20" d="M9378 21752l723 612 1467-612z"/><path id="polygon407" class="fil13 str1" fill="#91021a" stroke="#000" stroke-width="20" d="M9378 21752l-2164 596 2887 16z"/><path id="path409" d="M10676 17553l220 152v-149c-72-4-146-5-220-4z" class="fil17 str1" fill="#3c0032" stroke="#000" stroke-width="20"/><path id="path411" d="M10896 17557v149l49-146c-16-1-33-2-49-3z" class="fil17 str1" fill="#3c0032" stroke="#000" stroke-width="20"/><path id="path413" d="M10676 17553l220 152-951 595c-147-23-298-37-452-42-131-4-254-4-371 2l99-366c483-223 989-333 1455-341z" class="fil18 str1" fill="#500049" stroke="#000" stroke-width="20"/><path id="path415" d="M9123 18260l99-366c-257 119-508 270-744 455 190-47 403-78 645-89z" class="fil17 str1" fill="#3c0032" stroke="#000" stroke-width="20"/><path id="path417" d="M9946 18300l951-595-4 873c-291-131-609-226-947-278z" class="fil17 str1" fill="#3c0032" stroke="#000" stroke-width="20"/><path id="path419" d="M12325 18035l-8 1401 962-249c-236-415-500-834-955-1152z" class="fil19 str1" fill="#360036" stroke="#000" stroke-width="20"/><path id="path421" d="M13280 19187l-962 249 1309 346c-122-189-231-391-347-595z" class="fil17 str1" fill="#3c0032" stroke="#000" stroke-width="20"/><path id="path423" d="M10946 17559l-49 146h765c-74-25-150-48-231-69-152-39-315-65-485-77z" class="fil17 str1" fill="#3c0032" stroke="#000" stroke-width="20"/><path id="path425" d="M10897 17705l-4 873c170 76 330 164 480 263l773-919c-143-82-303-155-484-216h-765z" class="fil19 str1" fill="#360036" stroke="#000" stroke-width="20"/><path id="path427" d="M12317 19758v-1728c-56-39-116-76-178-112l-769 921c221 145 419 312 589 495 21 20 41 41 61 61 6 7 13 13 19 20 13 14 26 28 39 41l21 24c11 13 22 25 33 38 7 8 14 17 21 25l30 36c7 8 14 17 20 25 10 12 19 24 28 36 6 8 13 17 19 25 9 13 18 25 27 38 6 8 11 16 17 24l21 30z" class="fil18 str1" fill="#500049" stroke="#000" stroke-width="20"/><path id="polygon429" class="fil17 str1" fill="#3c0032" stroke="#000" stroke-width="20" d="M13873 20496l-476 1118-1080-2178z"/><path id="path431" d="M12317 19436l1080 2178-409 281c-194-478-191-1000-374-1539l-1-4c-6-19-13-38-20-56-1-4-3-7-4-11-6-16-12-32-19-49-2-5-4-11-6-16-6-15-12-30-19-45-2-6-5-12-7-17-6-15-13-30-20-44-3-6-5-12-8-18-7-15-14-30-22-45-3-6-5-11-8-17-8-16-17-33-25-49-2-4-4-8-7-12-22-41-46-82-71-124l-9-15c-10-15-19-31-30-46-5-7-9-14-14-21l-7-10v-321z" class="fil18 str1" fill="#500049" stroke="#000" stroke-width="20"/><path id="polygon433" class="fil18 str1" fill="#500049" stroke="#000" stroke-width="20" d="M13397 21614l1532-350-1056-768z"/><path id="polygon435" class="fil18 str1" fill="#500049" stroke="#000" stroke-width="20" d="M15360 21562l-606 350 175-648z"/><path id="polygon437" class="fil17 str1" fill="#3c0032" stroke="#000" stroke-width="20" d="M14929 21264l-851 1038 676-390z"/><path id="path439" d="M14078 22302l851-1038-1531 350 40 929c28 26 58 52 89 78l551-318z" class="fil19 str1" fill="#360036" stroke="#000" stroke-width="20"/><path id="path441" d="M13397 21614l40 929c-222-204-358-421-450-648l409-281z" class="fil17 str1" fill="#3c0032" stroke="#000" stroke-width="20"/><path id="path443" d="M12317 19436l1556 1059 216-167c-185-156-331-343-462-547l-1309-346z" class="fil18 str1" fill="#500049" stroke="#000" stroke-width="20"/><path id="path445" d="M14089 20329l-216 167 1056 768-205-597c-258-77-463-193-634-338z" class="fil18 str1" fill="#500049" stroke="#000" stroke-width="20"/><path id="path447" d="M14723 20667l205 597 270-508c-20-2-39-5-59-7-153-17-291-45-417-83z" class="fil17 str1" fill="#3c0032" stroke="#000" stroke-width="20"/><path id="polygon449" class="fil17 str1" fill="#3c0032" stroke="#000" stroke-width="20" d="M14929 21264l431 298 800-462-11-94z"/><path id="path451" d="M14929 21264l1220-258-30-52c-292-86-610-159-920-197l-270 508z" class="fil19 str1" fill="#360036" stroke="#000" stroke-width="20"/><path id="path453" d="M16119 20953l30 52 3-43c-11-3-22-7-33-10z" class="fil12 str1" fill="#e6e7e8" stroke="#000" stroke-width="20"/><path id="path455" d="M16160 21100l-12-94 31-34c33 10 66 21 99 31 11 4 21 7 32 11l-150 86z" class="fil12 str1" fill="#e6e7e8" stroke="#000" stroke-width="20"/><path id="path457" d="M16149 21006l31-34c-9-3-19-6-28-9l-3 43z" class="fil12 str1" fill="#e6e7e8" stroke="#000" stroke-width="20"/><path id="path459" d="M9078 17557l305 210v-346c-105 41-207 86-305 136z" class="fil6 str1" fill="#240f24" stroke="#000" stroke-width="20"/><path id="path461" d="M8103 18298l102 124c-96 31-186 67-270 106 51-78 107-155 169-230z" class="fil3 str1" fill="#0c0d17" stroke="#000" stroke-width="20"/><path id="path463" d="M8204 18422l-102-124c47-57 98-114 153-169l-12 281-39 12z" class="fil3 str1" fill="#0c0d17" stroke="#000" stroke-width="20"/><path id="path465" d="M8255 18129l-12 281c52-16 107-31 163-45l330-202c66-43 132-84 199-122l449-275-305-210c-70 36-138 74-204 115-256 139-456 293-619 457z" class="fil4 str1" stroke="#000" stroke-width="20"/><path id="path467" d="M9383 17767l-449 275c145-82 293-154 442-215l7-60zm-648 397l-330 202c24-6 47-11 72-16 84-66 170-128 258-185z" class="fil6 str1" fill="#240f24" stroke="#000" stroke-width="20"/><path id="path469" d="M10176 17222l-793 545v-346c248-95 514-163 793-199z" class="fil6 str1" fill="#240f24" stroke="#000" stroke-width="20"/><path id="path471" d="M12873 17927l-380 238c-209-175-462-327-782-442l94-348c471 145 809 336 1068 552z" class="fil5 str1" fill="#383838" stroke="#000" stroke-width="20"/><path id="path473" d="M11712 17723l94-348c-85-26-173-51-267-73-16-4-33-8-49-12l-250 305c65 11 129 25 190 41 99 26 193 55 281 87z" class="fil4 str1" stroke="#000" stroke-width="20"/><path id="path475" d="M11240 17595l250-305c-347-80-690-109-1019-94l16 366c264-20 519-8 754 33z" class="fil8 str1" fill="#333" stroke="#000" stroke-width="20"/><path id="path477" d="M10471 17196l16 366c-341 26-697 104-1047 239l-57-35 793-545c97-12 195-21 295-26z" class="fil4 str1" stroke="#000" stroke-width="20"/><path id="path479" d="M9383 17767l57 35c-21 8-42 17-63 25l7-60z" class="fil6 str1" fill="#240f24" stroke="#000" stroke-width="20"/><path id="path481" d="M12494 18165l380-238c204 170 358 356 487 547l-4 849c-227-404-463-823-862-1158z" class="fil4 str1" stroke="#000" stroke-width="20"/><path id="path483" d="M14587 20062l-449 306c98 76 206 144 329 202l225-454c-36-17-71-35-105-53z" class="fil3 str1" fill="#0c0d17" stroke="#000" stroke-width="20"/><path id="path485" d="M14691 20116l-225 454c97 45 203 84 319 114v-527c-32-13-63-27-93-41z" class="fil6 str1" fill="#240f24" stroke="#000" stroke-width="20"/><path id="path487" d="M13360 18474l-4 849 3 5 297-354c-91-166-185-335-296-500z" class="fil3 str1" fill="#0c0d17" stroke="#000" stroke-width="20"/><path id="path489" d="M13363 19334l708 295c136 165 299 313 516 433l-449 306c-343-268-555-643-775-1034z" class="fil4 str1" stroke="#000" stroke-width="20"/><path id="path491" d="M13363 19334l708 295c-164-200-288-425-415-657l-297 355 4 6z" class="fil6 str1" fill="#240f24" stroke="#000" stroke-width="20"/><path id="path493" d="M16321 20456l-211 495c-194-57-399-108-605-147l-252-508c108 22 223 39 348 53 238 25 481 62 720 107z" class="fil4 str1" stroke="#000" stroke-width="20"/><path id="path495" d="M15253 20296l252 508c-122-23-245-42-365-55-129-14-246-36-355-65v-527c137 56 291 103 469 139z" class="fil3 str1" fill="#0c0d17" stroke="#000" stroke-width="20"/><path id="path497" d="M16321 20456l-211 495c57 17 113 34 168 52l488-282-334-243c-37-7-74-15-112-22z" class="fil3 str1" fill="#0c0d17" stroke="#000" stroke-width="20"/><path id="path499" d="M16433 20478l334 243 207-120c-172-44-355-86-541-123z" class="fil3 str1" fill="#0c0d17" stroke="#000" stroke-width="20"/><path id="polygon501" class="fil3 str1" fill="#0c0d17" stroke="#000" stroke-width="20" d="M3489 9426l-552-139 554-319z"/><path id="polygon503" class="fil4 str1" stroke="#000" stroke-width="20" d="M3489 9426l-1513 416 961-555z"/><path id="polygon505" class="fil3 str1" fill="#0c0d17" stroke="#000" stroke-width="20" d="M8201 6248l204 479 505-292 415-836z"/><path id="polygon507" class="fil8 str1" fill="#333" stroke="#000" stroke-width="20" d="M9325 5599l-415 836 741-428v-596z"/><path id="polygon509" class="fil4 str1" stroke="#000" stroke-width="20" d="M8201 6248l204 479-438 253-741-169z"/><path id="polygon511" class="fil20 str1" fill="none" stroke="#000" stroke-width="20" d="M5671 7714l-1-4 45-26z"/><path transform="matrix(.60222 0 0 .6412 2262.024 2777.116)" id="polygon513" class="fil20 str1" fill="none" stroke="#000" stroke-width="20" d="M5667 7711l3-1 1 4z"/><path id="polygon515" class="fil8 str1" fill="#333" stroke="#000" stroke-width="20" d="M7075 6898l-1360 786-44 30 492 308 1051-608z"/><path id="polygon517" class="fil4 str1" stroke="#000" stroke-width="20" d="M7214 7414l-139-516 48-28 332 405z"/><path id="polygon519" class="fil6 str1" fill="#240f24" stroke="#000" stroke-width="20" d="M7455 7275l-332-405 103-59 741 169z"/><path id="polygon521" class="fil4 str1" stroke="#000" stroke-width="20" d="M9651 10680l14-651h-365z"/><path id="polygon523" class="fil1 str1" fill="#201e1e" stroke="#000" stroke-width="20" d="M9651 10680l-351-651h-373l2 8z"/><path id="polygon525" class="fil20 str1" fill="none" stroke="#000" stroke-width="20" d="M8927 10029h-536l538 8z"/><path id="polygon527" class="fil6 str1" fill="#240f24" stroke="#000" stroke-width="20" d="M5676 7726l-3 578 490-282z"/><path id="path529" d="M2981 10254l138-225h338l-57 1067-418-842zm375-612l132-216-8 144-125 72z" class="fil4 str1" stroke="#000" stroke-width="20"/><path id="polygon531" class="fil8 str1" fill="#333" stroke="#000" stroke-width="20" d="M2981 10254l419 842-1490-772v-220z"/><path id="polygon533" class="fil6 str1" fill="#240f24" stroke="#000" stroke-width="20" d="M3818 12062v-106l-374-1695-44 835 476 1119-34-153z"/><path id="path535" d="M4950 10060l-347 689 353 577-6-1266zm-544 1086l-203 410v506h-251l-76 152 349 240h731v-412l-550-897z" class="fil3 str1" fill="#0c0d17" stroke="#000" stroke-width="20"/><path id="polygon537" class="fil4 str1" stroke="#000" stroke-width="20" d="M3876 12215l-1532-351 1056-768z"/><path id="polygon539" class="fil3 str1" fill="#0c0d17" stroke="#000" stroke-width="20" d="M3400 11096l-1056 768-434-784v-756z"/><path id="polygon541" class="fil1 str1" fill="#201e1e" stroke="#000" stroke-width="20" d="M2344 11864l-434-376v-408z"/><path id="polygon543" class="fil6 str1" fill="#240f24" stroke="#000" stroke-width="20" d="M2344 11864l-434 300v-676z"/><path id="polygon545" class="fil4 str1" stroke="#000" stroke-width="20" d="M2462 12455h42l-160-591-434 300v1231l552 345z"/><path id="polygon547" class="fil1 str1" fill="#201e1e" stroke="#000" stroke-width="20" d="M2344 11864l484 591h-324z"/><path id="polygon549" class="fil3 str1" fill="#0c0d17" stroke="#000" stroke-width="20" d="M2828 12455l-484-591 1532 351-11 240z"/><path id="polygon551" class="fil6 str1" fill="#240f24" stroke="#000" stroke-width="20" d="M3865 12455h360l-349-240z"/><path id="polygon553" class="fil3 str1" fill="#0c0d17" stroke="#000" stroke-width="20" d="M2462 13740l-552-345v894l552-138z"/><path id="polygon555" class="fil6 str1" fill="#240f24" stroke="#000" stroke-width="20" d="M2462 14151l-552 138v488l552 152z"/><path id="path557" d="M6386 10029l-1430 8 416 283h98v67l397 270c124-183 317-308 551-357l-32-270z" class="fil4 str1" stroke="#000" stroke-width="20"/><path id="path559" d="M6386 10029l32 270c75-16 153-24 235-24 245 0 460 72 622 203l557-450H6385z" class="fil3 str1" fill="#0c0d17" stroke="#000" stroke-width="20"/><path id="path561" d="M4972 10055l399 265h-275l-124-265zm497 332l397 270c-98 144-153 325-153 534 0 359 163 634 424 785l-101 238-566-1141v-686z" class="fil8 str1" fill="#333" stroke="#000" stroke-width="20"/><path id="path563" d="M4964 10072l132 248h-10v1211h-5l-125-205 9-1254zm505 1001l566 1141-349 240h-731v-412l12 19h502v-989z" class="fil4 str1" stroke="#000" stroke-width="20"/><path id="path565" d="M6137 11976l-101 238 499-114c-148-15-282-57-397-124zm1084-33l346-79-149-109c-55 73-121 136-197 188z" class="fil3 str1" fill="#0c0d17" stroke="#000" stroke-width="20"/><path id="path567" d="M7418 11756l149 109 274-1835h-9l-557 450c198 159 317 405 317 712 0 224-64 416-175 565z" class="fil4 str1" stroke="#000" stroke-width="20"/><path id="path569" d="M7841 10029l-274 1835 270-362v-1183h576c100 0 196 8 288 24l229-307-539-8h-550z" class="fil3 str1" fill="#0c0d17" stroke="#000" stroke-width="20"/><path id="path571" d="M8929 10061l-229 283c81 14 158 35 229 62l-1-345zm-1093 1442l-270 362 270 186zm17 559l567.065 392.935L8935 12454l-1-485c-142 61-303 93-470 93z" class="fil4 str1" stroke="#000" stroke-width="20"/><path id="path573" d="M8938 10059l-8 347c305 118 513 366 513 790 0 44-3 87-8 128l216-644zm-4 1911l1 481.913 120 1.323L9334 11625c-91 156-232 272-400 345z" class="fil3 str1" fill="#0c0d17" stroke="#000" stroke-width="20"/><path id="polygon575" class="fil6 str1" fill="#240f24" stroke="#000" stroke-width="20" d="M8421 12455H7408l159-591 270 187v11h16z"/><path id="polygon577" class="fil3 str1" fill="#0c0d17" stroke="#000" stroke-width="20" d="M7567 11864l-484 591h325z"/><path id="path579" d="M7083 12455l484-590-346 79c-155 105-349 163-568 163-40 0-80-2-119-6l-499 114 10 240h1037z" class="fil4 str1" stroke="#000" stroke-width="20"/><path id="polygon581" class="fil6 str1" fill="#240f24" stroke="#000" stroke-width="20" d="M6046 12455h-360l350-240z"/><path id="polygon583" class="fil20 str1" fill="none" stroke="#000" stroke-width="20" d="M5648.903 7725.243l-4.956-.667 7.856-4.392z"/><path id="polygon585" class="fil1 str1" fill="#201e1e" stroke="#000" stroke-width="20" d="M3975 8688l126 257-612 481 2-458z"/><path id="polygon587" class="fil4 str1" stroke="#000" stroke-width="20" d="M4402 8709l1261-981 10 576-982 567z"/><path id="polygon589" class="fil3 str1" fill="#0c0d17" stroke="#000" stroke-width="20" d="M4401 8709l290 162-960 555h-242z"/><path id="polygon591" class="fil6 str1" fill="#240f24" stroke="#000" stroke-width="20" d="M4100 8942l-125-254 1667-963z"/><path id="polygon593" class="fil3 str1" fill="#0c0d17" stroke="#000" stroke-width="20" d="M3119 10029l-138 225-1071-150v-224l66-38 1513-416-133 216-671 387z"/><path id="path595" d="M4956 10037l-19-8H3457l-14 263 1513-255zm-1326-553l-141-59-8 144 148-86z" class="fil4 str1" stroke="#000" stroke-width="20"/><path id="path597" d="M4940 10050l-337 699-262-429h-522v1636l-367-1665 1489-240zm-534 1096l-203 410v-734h5l199 324zm-455 916l-76 152-34-152h109z" class="fil4 str1" stroke="#000" stroke-width="20"/><path id="path599" d="M3489 9426h242l-102 59-141-59zm1476 604l-9 8-19-8h28z" class="fil1 str1" fill="#201e1e" stroke="#000" stroke-width="20"/><path id="polygon601" class="fil20 str1" fill="none" stroke="#000" stroke-width="20" d="M4965 10029h1421l-1430 8z"/><path id="polygon603" class="fil1 str1" fill="#201e1e" stroke="#000" stroke-width="20" d="M19006 9832l59 205 25 23v-180z"/><path id="polygon605" class="fil4 str1" stroke="#000" stroke-width="20" d="M18309 10026l756 11-59-205-746-431-215 473z"/><path id="polygon607" class="fil3 str1" fill="#0c0d17" stroke="#000" stroke-width="20" d="M17800 9136l135 674 110 64 215-473z"/><path id="polygon609" class="fil3 str1" fill="#0c0d17" stroke="#000" stroke-width="20" d="M15807 7985l3 598 1018 588 720-181z"/><path id="polygon611" class="fil6 str1" fill="#240f24" stroke="#000" stroke-width="20" d="M17548 8990l-720 181 1107 639-135-674z"/><path id="polygon613" class="fil4 str1" stroke="#000" stroke-width="20" d="M11197 5920l-75-640-622-359-475 274 474 323 1-1z"/><path id="polygon615" class="fil6 str1" fill="#240f24" stroke="#000" stroke-width="20" d="M11122 5280l75 640 65 37 442-341z"/><path id="polygon617" class="fil3 str1" fill="#0c0d17" stroke="#000" stroke-width="20" d="M10025 5195l474 323-436 252-231-464z"/><path id="polygon619" class="fil4 str1" stroke="#000" stroke-width="20" d="M9832 5306l231 464-412 237v-596z"/><path id="polygon621" class="fil8 str1" fill="#333" stroke="#000" stroke-width="20" d="M12299 6556l93-543-688-397-442 341z"/><path id="polygon623" class="fil3 str1" fill="#0c0d17" stroke="#000" stroke-width="20" d="M12392 6013l-93 543 125 72 413-358z"/><path id="polygon625" class="fil4 str1" stroke="#000" stroke-width="20" d="M12837 6270l-413 358 1297 749 138-517z"/><path id="polygon627" class="fil3 str1" fill="#0c0d17" stroke="#000" stroke-width="20" d="M13859 6860l-138 517 173 100 403-364z"/><path id="polygon629" class="fil3 str1" fill="#0c0d17" stroke="#000" stroke-width="20" d="M9651 10680l-13-651h364l-157 291h-157v291z"/><path id="path631" d="M9651 10680l37-69v36l-37 33zm194-360l157-291h374l-2 8-318 283h-210z" class="fil3 str1" fill="#0c0d17" stroke="#000" stroke-width="20"/><path id="polygon633" class="fil20 str1" fill="none" stroke="#000" stroke-width="20" d="M10376 10029h536l-539 8z"/><path id="polygon635" class="fil4 str1" stroke="#000" stroke-width="20" d="M16092 10716v-396h196l33-66-137-225h-338l57 1067z"/><path id="path637" d="M16321 10254l-33 66h972v73l702-364h-41l-1600 225zm-230 462l-189 380 189-98v-282zm384 83l242-125h-242v125z" class="fil2 str1" fill="#332d36" stroke="#000" stroke-width="20"/><path id="path639" d="M15858 10261l44 835-152 359v-704l108-489zm-366 1801l-65 152 34-152h31z" class="fil2 str1" fill="#332d36" stroke="#000" stroke-width="20"/><path id="path641" d="M14347 10059l140 261h-140zm1004 2003l76 152-352.087 241.323-730.065 1.87L14347 12062h136v-1240h5l760 1240z" class="fil4 str1" stroke="#000" stroke-width="20"/><path id="path643" d="M15903 11096l-152 359v607h-258l-65 152 667-152h-2v-829l-189-137zm573 879l483-110-483-351v462z" class="fil3 str1" fill="#0c0d17" stroke="#000" stroke-width="20"/><path id="path645" d="M15903 11096l189 137v-235l-189 98zm573 417l483 351 1015-1835h-11l-702 364v281h-543l-242 125v229h726v354h-726v130z" class="fil8 str1" fill="#333" stroke="#000" stroke-width="20"/><path id="polygon647" class="fil3 str1" fill="#0c0d17" stroke="#000" stroke-width="20" d="M18315 10029h-342l-1015 1835 2107-1827-756-11z"/><path id="polygon649" class="fil4 str1" stroke="#000" stroke-width="20" d="M19065 10037l-2107 1827 855 591h609z"/><path id="polygon651" class="fil3 str1" fill="#0c0d17" stroke="#000" stroke-width="20" d="M19090 12121v-1955l-25-129-643 2418h186v102z"/><path id="polygon653" class="fil6 str1" fill="#240f24" stroke="#000" stroke-width="20" d="M17813 12455h-1014l159-591z"/><path id="polygon655" class="fil8 str1" fill="#333" stroke="#000" stroke-width="20" d="M16958 11864l-483 591h324z"/><path id="polygon657" class="fil4 str1" stroke="#000" stroke-width="20" d="M16094 12062l-667 153 11 240h1037l483-591-483 111v87z"/><path id="polygon659" class="fil6 str1" fill="#240f24" stroke="#000" stroke-width="20" d="M15438 12455h-360l349-240z"/><path id="path661" d="M12917 10029l1430 8-907 617c-53-16-111-24-173-24-198 0-355 87-448 227l97-828z" class="fil3 str1" fill="#0c0d17" stroke="#000" stroke-width="20"/><path id="path663" d="M12917 10029l-97 828c-38 57-65 124-80 197l-388-313 256-210c-148-189-394-256-588-256-76 0-149 7-219 21l-331-267h1447z" class="fil4 str1" stroke="#000" stroke-width="20"/><path id="path665" d="M14317 10071l-877 584c209 63 345 241 366 474l293-592v-217h108l111-249zm-1263 1643l213 501 258-521c-74 38-161 58-258 58-78 0-149-13-213-38z" class="fil4 str1" stroke="#000" stroke-width="20"/><path id="path667" d="M14340 10067l-133 253h140l-7-253zm-240 470l-293 592c2 20 3 41 3 63 0 229-106 414-283 503l-258 521 349 240h731v-392h-248v-1525z" class="fil6 str1" fill="#240f24" stroke="#000" stroke-width="20"/><path id="path669" d="M13054 11714l213 501-864-198c96-50 182-120 248-213l-320-239c-79 118-204 187-359 187-25 0-49-2-73-6l830-604c-1 16-2 32-2 48 0 248 124 444 328 523z" class="fil3 str1" fill="#0c0d17" stroke="#000" stroke-width="20"/><path id="path671" d="M12727 11143l-830 604c-70-11-135-37-191-76l-124-831c90-130 233-209 401-209 143 0 253 52 330 143l39-32 388 313c-6 29-10 58-12 89zm-1211-744l-55-369h9l331 267c-103 20-199 55-284 102z" class="fil3 str1" fill="#0c0d17" stroke="#000" stroke-width="20"/><path id="path673" d="M11462 10029l55 369c-221 123-374 334-421 607l-247-332h24v-354h-288l-211-283 539-8h550zm121 809l124 831c-138-96-228-269-228-479 0-137 38-258 104-352z" class="fil4 str1" stroke="#000" stroke-width="20"/><path id="path675" d="M10377 10048l208 272h-212l4-272zm472 627l247 332c-10 59-16 121-16 185 0 376 180 661 463 806l-662 457h-514l1-392h548v-354h-547l1-354h458v-354h-457l1-325h477z" class="fil3 str1" fill="#0c0d17" stroke="#000" stroke-width="20"/><path id="path677" d="M10368 10050l5 270h-317l312-270zm4 624l-1 325h-299v-325h300zm-2 679l-1 354h-297v-354h298zm-2 709l-1 392h-120l-132-392h253zm-680-1272l-37-111 37-33v144z" class="fil4 str1" stroke="#000" stroke-width="20"/><path id="path679" d="M11543 11998l-662 457h1014l-100-370c-91-18-175-48-252-87z" class="fil4 str1" stroke="#000" stroke-width="20"/><path id="path681" d="M11895 12455l-100-370c44 9 89 15 136 18l288 351h-324z" class="fil6 str1" fill="#240f24" stroke="#000" stroke-width="20"/><path id="path683" d="M12219 12455l-288-351c29 2 59 3 89 3 131 0 265-29 382-90l864 198-10 240h-1037z" class="fil4 str1" stroke="#000" stroke-width="20"/><path id="polygon685" class="fil1 str1" fill="#201e1e" stroke="#000" stroke-width="20" d="M13257 12455h359l-349-240z"/><path id="polygon687" class="fil6 str1" fill="#240f24" stroke="#000" stroke-width="20" d="M14297 7113l-403 364 410 237h1034z"/><path id="polygon689" class="fil8 str1" fill="#333" stroke="#000" stroke-width="20" d="M15703 7925l-229 464 336 194-3-598z"/><path id="polygon691" class="fil4 str1" stroke="#000" stroke-width="20" d="M14304 7714h1034l365 211-229 464z"/><path id="polygon693" class="fil4 str1" stroke="#000" stroke-width="20" d="M16321 10254l1600-225h-1737z"/><path id="polygon695" class="fil8 str1" fill="#333" stroke="#000" stroke-width="20" d="M14347 10037l19-8h1480l14 263z"/><path id="path697" d="M14351 10045l136 275h133l741 1211h5v-1211h384v430l101-460-1501-246zm1001 2017l76 152 34-152h-109z" class="fil3 str1" fill="#0c0d17" stroke="#000" stroke-width="20"/><path id="polygon699" class="fil20 str1" fill="none" stroke="#000" stroke-width="20" d="M14347 10037l19-8h-28z"/><path id="polygon701" class="fil20 str1" fill="none" stroke="#000" stroke-width="20" d="M14338 10029h-1421l1430 8z"/><path id="polygon703" class="fil1 str1" fill="#201e1e" stroke="#000" stroke-width="20" d="M19065 10037l25 129v-106z"/><path id="polygon705" class="fil1 str1" fill="#201e1e" stroke="#000" stroke-width="20" d="M19090 12121l-482 436v337l482 144z"/><path id="polygon707" class="fil6 str1" fill="#240f24" stroke="#000" stroke-width="20" d="M18608 14248l482-458v-752l-482-144z"/><path id="polygon709" class="fil3 str1" fill="#0c0d17" stroke="#000" stroke-width="20" d="M1910 17156l552-126v-355l-552-401z"/><path id="polygon711" class="fil4 str1" stroke="#000" stroke-width="20" d="M1910 16274l552 401v-1028l-552 427z"/><path id="polygon713" class="fil3 str1" fill="#0c0d17" stroke="#000" stroke-width="20" d="M2248 19114l214-794v660z"/><path id="polygon715" class="fil8 str1" fill="#333" stroke="#000" stroke-width="20" d="M1910 18970l338 144 214-794v-922l-552 673z"/><path id="polygon717" class="fil6 str1" fill="#240f24" stroke="#000" stroke-width="20" d="M1910 18071l552-673v-368l-552 126z"/><path id="polygon719" class="fil3 str1" fill="#0c0d17" stroke="#000" stroke-width="20" d="M1910 18970l338 144-158 788-180-103z"/><path id="polygon721" class="fil3 str1" fill="#0c0d17" stroke="#000" stroke-width="20" d="M2462 18980v187l-214-53z"/><path id="polygon723" class="fil4 str1" stroke="#000" stroke-width="20" d="M2417 20092l-327-190 158-788 214 53v353l655 379z"/><path id="polygon725" class="fil3 str1" fill="#0c0d17" stroke="#000" stroke-width="20" d="M3961 20983l-274-552 92-150 368 212-31 579z"/><path id="polygon727" class="fil4 str1" stroke="#000" stroke-width="20" d="M3961 20983l-1176-679 902 127z"/><path id="polygon729" class="fil4 str1" stroke="#000" stroke-width="20" d="M4147 20493l-31 579 199 115-151-683z"/><path id="polygon731" class="fil4 str1" stroke="#000" stroke-width="20" d="M5216 21111l-230 464 675 389v-596z"/><path id="polygon733" class="fil3 str1" fill="#0c0d17" stroke="#000" stroke-width="20" d="M6741 22391l-278-560 415 239z"/><path id="polygon735" class="fil8 str1" fill="#333" stroke="#000" stroke-width="20" d="M5661 21368l802 463 278 560-155 107-925-534z"/><path id="polygon737" class="fil4 str1" stroke="#000" stroke-width="20" d="M6741 22391l496-113-359-208z"/><path id="polygon739" class="fil6 str1" fill="#240f24" stroke="#000" stroke-width="20" d="M9077 23340l-496 310-643-371 140-516z"/><path id="polygon741" class="fil4 str1" stroke="#000" stroke-width="20" d="M7938 23279l140-516-270-156-331 405z"/><path id="polygon743" class="fil3 str1" fill="#0c0d17" stroke="#000" stroke-width="20" d="M6750 22593l727 419 331-405-571-329-496 113z"/><path id="polygon745" class="fil3 str1" fill="#0c0d17" stroke="#000" stroke-width="20" d="M6750 22593l-164-95 155-107z"/><path id="polygon747" class="fil4 str1" stroke="#000" stroke-width="20" d="M8581 23650l496-310 562 324-3 595z"/><path id="polygon749" class="fil3 str1" fill="#0c0d17" stroke="#000" stroke-width="20" d="M2785 20304l-368-212 700-193 662 382-92 150z"/><path id="polygon751" class="fil8 str1" fill="#333" stroke="#000" stroke-width="20" d="M5216 21111l-230 464-671-388-151-683z"/><path id="polygon753" class="fil8 str1" fill="#333" stroke="#000" stroke-width="20" d="M2462 14929l-552-152v1297l552-427z"/><path id="path755" d="M9651 10680l-216 644c-15 112-50 213-101 300l-279 830h1192l-132-392h-427v-1272l-37-111z" class="fil8 str1" fill="#333" stroke="#000" stroke-width="20"/><path id="polygon757" class="fil1 str1" fill="#201e1e" stroke="#000" stroke-width="20" d="M18937 15600l153 361v-680z"/><path id="polygon759" class="fil3 str1" fill="#0c0d17" stroke="#000" stroke-width="20" d="M18608 15840l329-240 153 361v684l-482-110z"/><path id="polygon761" class="fil1 str1" fill="#201e1e" stroke="#000" stroke-width="20" d="M18608 15840v-378l329 138z"/><path id="polygon763" class="fil6 str1" fill="#240f24" stroke="#000" stroke-width="20" d="M18608 17256l482 588v428l-482 205z"/><path id="polygon765" class="fil1 str1" fill="#201e1e" stroke="#000" stroke-width="20" d="M19090 17844l-482-588v-721l482 110z"/><path id="polygon767" class="fil6 str1" fill="#240f24" stroke="#000" stroke-width="20" d="M18683 19622l407 6v-898z"/><path id="polygon769" class="fil3 str1" fill="#0c0d17" stroke="#000" stroke-width="20" d="M19090 18730v-458l-482 205v768l75 377z"/><path id="polygon771" class="fil1 str1" fill="#201e1e" stroke="#000" stroke-width="20" d="M18513 19575l170 47-75-377v275z"/><path id="polygon773" class="fil20 str1" fill="none" stroke="#000" stroke-width="20" d="M16608 20697l15-31-16 10z"/><path id="polygon775" class="fil1 str1" fill="#201e1e" stroke="#000" stroke-width="20" d="M16623 20666l-15 31 2075-1075-331 46z"/><path id="polygon777" class="fil4 str1" stroke="#000" stroke-width="20" d="M16352 20823l255-147 1 21-301 709-96 55z"/><path id="polygon779" class="fil4 str1" stroke="#000" stroke-width="20" d="M15799 21142l214 433-960 555v-557z"/><path id="polygon781" class="fil6 str1" fill="#240f24" stroke="#000" stroke-width="20" d="M16307 21406l711-411-410-298z"/><path id="polygon783" class="fil3 str1" fill="#0c0d17" stroke="#000" stroke-width="20" d="M16608 20697l410 298 1330-768 335-605z"/><path id="polygon785" class="fil8 str1" fill="#333" stroke="#000" stroke-width="20" d="M18683 19622l-335 605 742-428v-171z"/><path id="polygon787" class="fil8 str1" fill="#333" stroke="#000" stroke-width="20" d="M14274 22022l440 303 339-195v-557z"/><path id="polygon789" class="fil4 str1" stroke="#000" stroke-width="20" d="M12286 23170l463 290 200-116-130-481z"/><path id="polygon791" class="fil6 str1" fill="#240f24" stroke="#000" stroke-width="20" d="M12949 23344l-130-481 521-301 310 378z"/><path id="polygon793" class="fil4 str1" stroke="#000" stroke-width="20" d="M13650 22940l-310-378 615-355-24 570z"/><path id="polygon795" class="fil3 str1" fill="#0c0d17" stroke="#000" stroke-width="20" d="M13955 22207l-24 570 783-452-440-303z"/><path id="polygon797" class="fil3 str1" fill="#0c0d17" stroke="#000" stroke-width="20" d="M12003 23890l746-430-463-290-1207 697 1 255z"/><path id="polygon799" class="fil3 str1" fill="#0c0d17" stroke="#000" stroke-width="20" d="M11080 24122l353 97 570-329z"/><path id="polygon801" class="fil1 str1" fill="#201e1e" stroke="#000" stroke-width="20" d="M18513 19575l-161 93 331-46z"/><path id="polygon803" class="fil3 str1" fill="#0c0d17" stroke="#000" stroke-width="20" d="M15799 21142l214 433 198-114 141-638z"/><path id="polygon805" class="fil3 str1" fill="#0c0d17" stroke="#000" stroke-width="20" d="M18608 15462v-1058l482-197v1074l-153 319z"/><path id="polygon807" class="fil6 str1" fill="#240f24" stroke="#000" stroke-width="20" d="M11079 23867l-186 108 187 147z"/><path id="polygon809" class="fil8 str1" fill="#333" stroke="#000" stroke-width="20" d="M9639 23664l896 517 358-206 187 147-995 397-449-260z"/><path id="polygon811" class="fil5 str1" fill="#383838" stroke="#000" stroke-width="20" d="M18608 14248l482-458v417l-482 197z"/><path id="polygon813" class="fil4 str1" stroke="#000" stroke-width="20" d="M11080 24122l353 97-898 560-450-260z"/><path id="polygon815" class="fil6 str0" fill="#240f24" stroke="#000" stroke-width="7.62" d="M6502 9209l-54 1v-119z"/><path id="polygon817" class="fil4 str0" stroke="#000" stroke-width="7.62" d="M6650 8467l-148 742-54-118v-624z"/><path id="path819" d="M8666 8483l-1 130-440-110v-35h253c81 0 143 5 188 16z" class="fil4 str0" stroke="#000" stroke-width="7.62"/><path id="path821" d="M8226 8503l440 110-127 35c-14-1-30-2-46-2h-39v25l-228 63v-232zm-371 334l-187 52-24-58-31 73-228 63 262-529h15l193 400zm-753 207l-198 55c-6-18-17-34-32-46-26-22-63-32-112-32h-98v145l-160 44 148-742h102c115 0 201 21 259 63 59 42 88 104 88 186 0 50-13 93-40 128s-67 62-121 82c60 14 107 41 141 84 9 11 16 22 23 34zm-440-188h78c46 0 82-10 108-30s39-49 39-85c0-37-12-64-37-81s-63-26-115-26h-72v222z" class="fil6 str0" fill="#240f24" stroke="#000" stroke-width="7.62"/><path id="path823" d="M13362 9225l-104-367v151l-612-574h-18l-5 11v768l217 3v-303l329 308 193 3zm-916-391l-171 376 126 2c13-25 24-51 32-78 17-54 26-112 26-174 0-44-4-86-13-126z" class="fil4 str0" stroke="#000" stroke-width="7.62"/><path id="path825" d="M12126 8465l79 394c4 15 7 31 10 48l60 302 171-376c-6-28-14-54-24-80-25-64-61-119-109-168-47-48-102-86-163-111-8-3-16-7-24-9zm497-19l5-11h-5v11z" class="fil6 str0" fill="#240f24" stroke="#000" stroke-width="7.62"/><path id="polygon827" class="fil6 str0" fill="#240f24" stroke="#000" stroke-width="7.62" d="M10095 8467l-1 166 531-138v-28z"/><path id="path829" d="M10625 8495l-531 137 153 40v-3h378v-175zm184 326l235 62v-416h-235v354zm648 171l254 67c-9-31-14-65-14-101 0-86 25-159 75-216 50-58 112-87 185-87 74 0 135 29 185 87 29 34 50 72 62 116l-79-394c-54-19-110-29-168-29-67 0-131 13-192 38s-115 62-161 110c-49 50-86 107-111 171-25 63-38 131-38 204 0 12 0 23 1 34zm685 181l132 35-60-302c2 17 3 34 3 52 0 86-25 158-75 215z" class="fil3 str0" fill="#0c0d17" stroke="#000" stroke-width="7.62"/><path id="path831" d="M10094 9209l-75.046 54.528 1.137 97.3L10094 9210zm-359 244c42-14 81.102-34 117.102-58l1-22c-34.705 24.964-79.944 54.13-118.102 80z" class="fil2 str0" fill="#332d36" stroke="#000" stroke-width="7.62"/><path id="polygon833" class="fil5 str0" fill="#383838" stroke="#000" stroke-width="7.62" d="M10094 9209l-74 150v91h74z"/><path id="path835" d="M6632 9450l-130-241 418 217c-57 16-125 24-205 24h-83z" class="fil8 str0" fill="#333" stroke="#000" stroke-width="7.62"/><path id="polygon837" class="fil4 str0" stroke="#000" stroke-width="7.62" d="M6632 9450l-130-241-54 1v240z"/><path id="path839" d="M6502 9209l418 217c41-12 76-28 106-48 70-48 105-119 105-214 0-45-9-86-28-121l-198 55c5 13 7 28 7 45 0 40-13 72-40 95s-64 34-111 34h-98v-108l-160 44zm2114 46l29-378c-2 2-5 4-7 6-31 24-76 36-136 36h-50v-247l-228 63v716h228v-386h33l130 191zm43-560l6-83-127 35c45 4 79 14 102 30 7 5 14 11 20 18zm-804 141l-187 52 104 250h-258l100-235-228 63-240 485h236l64-143h399l62 143h246l-297-614z" class="fil4 str0" stroke="#000" stroke-width="7.62"/><path id="path841" d="M8666 8483l-1 130 83-99c-25-13-53-24-82-31z" class="fil5 str0" fill="#383838" stroke="#000" stroke-width="7.62"/><path id="path843" d="M8616 9255l29-378c27-24 40-56 40-97 0-35-9-63-26-84l6-83 231 96c3 15 4 31 4 47 0 62-16 116-47 163s-77 83-136 109l300 423h-268l-133-195zm459-471l219 91c-5 25-8 52-8 81 0 90 26 163 79 219 52 56 121 84 205 84 50 0 99-10 149-31s99-52 148-94l-14 239-118 80c-7 2-14 5-22 7-50 15-102 22-156 22-58 0-113-9-166-27s-102-45-147-80c-63-50-112-110-146-182s-50-150-50-234c0-62 9-120 27-175zm944 394l75 31-75 51v-82z" class="fil6 str0" fill="#240f24" stroke="#000" stroke-width="7.62"/><path id="path845" d="M8666 8613l231 96c-5-26-13-51-26-76-20-39-49-71-85-97-12-8-24-16-37-23l-83 99zm410 171l219 91c11-54 35-101 71-140 53-57 121-86 204-86 48 0 94 11 137 32 44 21 87 54 129 97l25-251c-46-31-94-55-144-70-50-16-103-23-158-23-70 0-136 13-199 39s-118 63-166 112c-47 49-84 105-109 169-4 10-7 20-11 30zm942.898 393.118L10095 9209v-742h-75z" class="fil4 str0" stroke="#000" stroke-width="7.62"/><path id="path847" d="M10094 8633l153 104v111h163l161 110v92h-270l-207-416zm715 487l486 331h-486v-331zm-310 331l-103-207h233v207h-131z" class="fil6 str0" fill="#240f24" stroke="#000" stroke-width="7.62"/><path id="polygon849" class="fil4 str0" stroke="#000" stroke-width="7.62" d="M10397 9244l103 206h-406v-817l207 416h-54v195z"/><path id="polygon851" class="fil3 str0" fill="#0c0d17" stroke="#000" stroke-width="7.62" d="M13474 8467v577l-112 181-104-367v-391z"/><path id="path853" d="M10094 8633l153 104v-64zm316 215l161 110v-110zm399 272l486 331h132v-211h-383v-356l-235-62zm1113 361l352-272-132-35c-50 57-112 86-185 86s-135-29-185-87c-29-33-49-71-61-113l-254-67c3 60 16 117 37 169 25 63 62 120 111 170 47 48 101 86 162 111 52.634 18.492 109.034 33.963 155 38z" class="fil4 str0" stroke="#000" stroke-width="7.62"/><path id="path855" d="M12275 9209l-352 272c12 1 24 1 36 1 78 0 152-18 222-53 51-26 97-59 136-100l-41-120z" class="fil8 str0" fill="#333" stroke="#000" stroke-width="7.62"/><path id="path857" d="M12275 9209l41 120c14-15 28-31 41-48 17-22 32-46 44-70l-126-2zm1024 134l63-119-193-3 130 121zm-459-126l-217-3v236h217v-233z" class="fil3 str0" fill="#0c0d17" stroke="#000" stroke-width="7.62"/><path id="polygon859" class="fil6 str0" fill="#240f24" stroke="#000" stroke-width="7.62" d="M13474 9488v-69l-112-194-63 118 155 145z"/><path id="path861" d="M13362 9225l112 195v-375zm616.11 82.008l9.34-169-73.9.11 87.45-206.11 27.33-457.772L13545 9452h236l64.11-143.992c43.73.01 91.104.458 133-1z" class="fil4 str0" stroke="#000" stroke-width="7.62"/><path id="polygon863" class="fil6 str0" fill="#240f24" stroke="#000" stroke-width="7.62" d="M13988 9138l-10 169h266l62 143h246l-491-1013h-15l-18 38-27 457 43-102 127 308z"/><path id="path865" d="M9917 7401l6 12 1-40c-3 9-5 19-7 29z" class="fil21 str0" fill="#424141" stroke="#000" stroke-width="7.62"/><path id="path867" d="M9924 7412l-6-12-1 5 7 7zm-358-319l239 212c-2-30-9-58-21-82-14-29-34-53-57-72-24-19-51-34-81-44-25-8-52-13-79-14z" class="fil3 str0" fill="#0c0d17" stroke="#000" stroke-width="7.62"/><path id="path869" d="M9319 7861.102v-60l-51 60zm-2.312-601.35l1.715-76.284c-13 12-26.403 25.532-38.403 40.532z" class="fil21 str0" fill="#424141" stroke="#000" stroke-width="7.62"/><path id="path871" d="M9318 7183v78l65 64c19-28 42-51 70-69s59-27 94-27c31 0 57 10 78 29s32 46 32 79c0 14-3 29-8 45-6 15-13 31-23 47-9 16-20 31-32 46s-23 29-34 43l-239.55 281.457.55 61.543h454l47-141h-251l107-134c17-21 33-42 49-63 16-20 29-41 41-62s21-43 28-65c7-23 10-46 10-72 0-6 0-12-1-18l-239-212h-16c-62 0-114 11-156 34-27 15-53 33-76 56zm592 270l14-41-7-7c-3 16-5 31-6 47z" class="fil6 str0" fill="#240f24" stroke="#000" stroke-width="7.62"/><path id="path873" d="M10048 7183l-124 230-1-35c21-77 65-145 125-195z" class="fil21 str0" fill="#424141" stroke="#000" stroke-width="7.62"/><path id="path875" d="M9924 7412l124-230c65-55 137.196-87.677 227.196-91.677z" class="fil3 str0" fill="#0c0d17" stroke="#000" stroke-width="7.62"/><path id="path877" d="M11591 7841l-26-177c2-3 3-6 5-9 8-16 11-33 11-51 0-20-4-38-13-54-7-12-15-22-25-31l-23-157c17 3 34 8 49 14 33 13 62 30 86 52s43 49 56 79 20 64 20 99c0 40-7 76-22 109s-35 61-60 85c-17 16-37 30-59 42zm-90-605l-19-128h192v128h-173z" class="fil6 str0" fill="#240f24" stroke="#000" stroke-width="7.62"/><path id="path879" d="M11481 7108l19 128h-136l-17 142c16-8 34-13 54-16s40-5 58-5c21 0 41 2 60 5l23 157c-3-3-7-6-10-9-15-11-32-19-51-25s-40-8-61-8c-24 0-47 3-68 9s-43 18-64 34l-73-75 37-338 231 1zm83 557l26 177c-9 5-19 9-29 13-34 13-69 20-107 20-54 0-105-10-152-29-32-13-62-32-90-58l-35-47 95-96c7 9 15 18 25 29 10 10 21 20 34 29s27 16 43 22 34 9 54 9c23 0 43-3 62-10s35-16 48-27c11-9 20-19 26-31zm-527-112l-146-196v-86l-50 19-71-96 267-99v458z" class="fil4 str0" stroke="#000" stroke-width="7.62"/><path id="path881" d="M10841 7290l-72 28-1.102-115.614c22.52 25.114 50.508 57.064 73.102 87.614zm51 67l146 196v308h-146zm285 383l35 47c-14-13-27-27-40-42zm-649 63l2-640c99 71 164 188 164 319 0 132-65 249-166 320z" class="fil6 str0" fill="#240f24" stroke="#000" stroke-width="7.62"/><path id="path883" d="M10530 7163l-2 640c-64 45-142 72-227 72-97 0-185-35-254-93l-124-369 362-323h15c85 0 164 27 228 73z" class="fil4 str0" stroke="#000" stroke-width="7.62"/><path id="path885" d="M9924 7412l-14 41c-1 9-1 19-1 29 0 120 54 227 139 299zm-102.56 308.543l-48.1 140.34h48.998l1.103-140.34h-1z" class="fil3 str0" fill="#0c0d17" stroke="#000" stroke-width="7.62"/><path id="path887" d="M17202 11029v354h-726v679h-384v-1742h1169v354h-785v354h726zm-1451-709v1742h-502l-760-1240h-5v1240h-384v-1742h522l741 1211h5v-1211h384zm-1942 871c0 325-214 561-541 561s-541-236-541-561 214-561 541-561 541 236 541 561zm-1838 561c155 0 281-69 359-187l320 239c-145 207-391 303-630 303-544 0-940-357-940-915 0-559 396-915 940-915 194 0 440 66 588 256l-295 241c-76-91-187-143-330-143-290 0-504 236-504 561s214 561 492 561zm-1143-753v354h-755v354h844v354H9689v-1742h1184v354h-800v325h755zm-1384 197c0 563-460 866-979 866h-628v-1742h576c561 0 1031 239 1031 876zm-1850-5c0 559-396 915-940 915s-940-357-940-915c0-559 396-915 940-915s940 357 940 915zm-2123-871v1742h-502c-253-413-507-827-760-1240h-5v1240h-384v-1742h522l741 1211h5v-1211h384z" class="fil22 str1" fill="#fff" fill-rule="nonzero" stroke="#000" stroke-width="20"/></g></svg>